<svg width="77" height="124" viewBox="0 0 77 124" fill="none" xmlns="http://www.w3.org/2000/svg">
<path fill-rule="evenodd" clip-rule="evenodd" d="M7.82574 0.0667434C8.22445 0.129605 9.23634 0.556626 10.0878 1.03346L11.6405 1.87457L12.275 1.29865C14.3651 -0.624358 16.2168 2.34771 15.5478 6.56385C15.4166 7.36234 15.1095 8.31974 14.7487 8.98097L14.1796 10.0857L16.3028 14.7635C22.9525 29.451 27.674 39.6644 27.8776 39.7713C28.0024 39.8368 28.8317 31.5186 28.8761 29.7148C28.974 25.9781 28.5512 22.6172 27.485 18.3525L26.9939 16.4349L25.4307 16.1791C22.9778 15.7658 21.3473 14.6743 20.1677 12.6631C19.2895 11.1623 19.1834 9.8829 19.8327 8.75322C20.0806 8.33032 20.2778 8.18671 20.9942 7.9807C21.4653 7.83438 21.9447 7.76786 22.0908 7.8488C22.4388 8.03172 22.7603 7.89893 22.6732 7.6185C22.5161 7.1127 22.7457 5.33919 23.0241 4.80248C23.2476 4.3542 23.4702 4.18624 23.9915 4.02435C24.5729 3.84379 24.7729 3.88601 25.544 4.31639C26.2711 4.71107 26.6026 5.05288 27.3196 6.08756C28.0076 7.08189 28.235 7.31871 28.4068 7.19944C29.2224 6.53433 29.7381 6.31926 30.3217 6.42903C32.234 6.81802 32.6131 9.64891 31.1057 12.2804C30.4667 13.3903 28.9998 15.0374 28.4937 15.1946C28.3984 15.2242 28.3571 15.3743 28.4007 15.5145C28.4339 15.6744 28.6386 16.4399 28.8327 17.2417C30.0834 22.2069 30.5 25.2293 30.4309 28.9351C30.4015 30.1852 30.4179 31.2289 30.4422 31.2542C30.4866 31.2734 30.8353 30.2371 31.2407 28.9416C32.7073 24.2856 35.4416 17.2702 36.7506 14.832C37.6437 13.16 38.1463 12.7788 38.9525 13.1983C39.6305 13.5588 39.7565 13.9644 39.8556 16.0531C40.1931 23.4214 36.6761 30.8008 30.4011 35.8293C29.9436 36.1965 29.8974 36.4194 29.545 39.3897C29.2117 42.3155 29.1988 42.6105 29.5191 43.2524C31.6395 47.7443 34.2743 52.7244 37.0184 57.402C38.8547 60.5545 40.1868 62.8973 41.5059 65.3044C42.038 66.2923 42.0789 66.318 42.1021 65.844C42.1728 65.0808 41.8594 62.2845 41.4838 60.4025C41.0565 58.2126 40.0314 54.8411 38.2514 49.7822C35.8452 42.919 35.5306 41.5342 36.2738 41.0783C37.1279 40.555 37.8881 41.1096 39.6899 43.5316C43.885 49.1473 45.5282 55.1106 45.1851 63.2782C45.0747 65.8603 44.6373 69.9551 44.4291 70.3821C44.261 70.7253 44.2848 70.8552 44.8672 72.0581C47.4551 77.4536 49.0496 81.9331 52.4719 93.3242C54.4024 99.7529 55.4113 102.948 55.4673 102.81C55.6505 102.462 56.9326 97.1058 57.3082 95.0949C57.4963 94.0371 57.754 92.4251 57.8664 91.4952L58.0692 89.8125L56.8253 87.8596C54.7409 84.5809 54.2622 83.8181 53.0877 81.7175C50.9225 77.8599 50.4471 76.7008 48.9437 71.9129C47.5968 67.5761 47.5642 67.471 47.8073 67.033C47.9651 66.7094 48.1454 66.5821 48.471 66.5688C48.8302 66.5396 49.1939 66.844 50.4542 68.1767C53.9455 71.8804 56.42 76.3447 57.7907 81.3774C58.0877 82.4932 58.3542 83.4042 58.3843 83.3949C58.4945 83.3606 58.4035 79.139 58.1509 70.4869C58.1028 68.8985 58.0715 67.2938 58.088 66.9044C58.1146 66.1054 57.6874 65.1015 55.942 62.047C53.7923 58.2396 53.4284 57.3862 51.7218 51.9971L50.1302 46.9785L49.2458 46.9621C47.0014 46.9014 44.5721 46.069 43.3471 44.9559C41.5243 43.2982 41.3775 41.1089 43.0054 39.8567C43.8962 39.1682 44.0169 38.955 44.0423 37.8159C44.0811 36.5959 44.555 35.5208 45.1514 35.3356C46.1137 35.0367 46.915 35.4578 48.5672 37.1685C48.9993 37.6218 49.4068 37.9784 49.4369 37.9691C49.482 37.9551 49.8235 37.6569 50.1811 37.3042C51.2689 36.2416 52.1898 36.1807 53.0469 37.1006C54.4155 38.5699 54.3799 41.9414 52.9436 44.5893C52.6793 45.0832 52.3087 45.6595 52.1183 45.8779C51.6395 46.389 51.7308 46.7889 53.1486 51.4606C54.3918 55.5167 54.9915 57.0051 56.7056 60.2065C58.174 62.9352 58.1149 62.9042 58.2894 60.9885C58.8071 55.4358 60.2246 50.7455 63.3236 44.3915C64.2584 42.4648 64.4644 41.9068 64.2903 41.7357C63.9272 41.3982 62.5526 38.8655 62.3038 38.0642C61.8014 36.4467 61.8551 34.6729 62.4852 33.4285C63.3697 31.6053 64.7015 31.3455 66.3263 32.7023C66.7623 33.0446 67.1399 33.3227 67.2001 33.304C67.2602 33.2853 67.6695 32.9221 68.0867 32.496C69.1441 31.4593 69.8829 31.0596 70.557 31.1248C71.7298 31.2383 72.2401 31.9968 72.4993 34.0522C72.6868 35.4875 72.7956 35.6789 73.3516 35.5227C73.4619 35.4884 73.8611 35.606 74.2593 35.7734C74.8611 36.0477 74.9911 36.1831 75.1761 36.779C75.551 37.9859 74.5917 39.4095 72.4802 40.7681C70.5 42.0364 68.5407 42.6285 66.3668 42.6008C66.0566 42.5928 65.7768 43.0366 64.6846 45.3415C61.417 52.1437 60.1041 56.9056 59.7861 63.1544C59.6751 65.2919 59.6716 70.7838 59.8029 70.853C59.8226 70.8633 60.0679 70.1667 60.3699 69.2987C62.1056 64.076 64.1026 60.013 70.0713 49.4839C71.8947 46.26 72.5459 45.6845 73.4593 46.4494C73.9622 46.8478 74.0092 47.7776 73.6532 49.9583C72.4991 56.8948 69.0119 63.6443 63.2958 69.9937C62.2011 71.2287 61.1314 72.4559 60.9596 72.7344C60.7713 73.0126 60.4451 73.2896 60.2396 73.3534C60.0191 73.4219 59.8582 73.5762 59.8411 73.6803C59.8452 73.7998 59.8898 75.3235 59.9398 77.0595C60.0417 80.7672 59.9949 85.9431 59.8207 87.7709C59.7557 88.4994 59.7489 89.38 59.8111 89.7395C59.8629 90.1188 59.8182 90.5939 59.7022 90.8221C59.5947 91.0422 59.3559 92.22 59.1775 93.4504C58.782 96.0167 58.2538 98.421 57.1653 102.614C56.2684 106.06 56.1879 105.465 58.1614 110.156C58.8874 111.875 59.5114 113.388 59.5456 113.499C59.6716 113.904 59.8066 113.401 59.9468 112.012C60.4584 106.67 61.7057 100.034 63.0238 95.6604C64.4469 90.8641 65.7702 87.7462 69.1576 81.1704C70.6746 78.2338 72.372 74.7635 72.9226 73.4395C74.1714 70.471 74.6143 70.0039 75.5295 70.6147C75.9468 70.8969 76.036 71.0778 76.2337 71.9445C76.7789 74.5315 76.8637 79.6886 76.4283 83.4534C75.6449 90.2033 72.786 97.3124 67.5108 105.611C65.7637 108.356 64.6241 110.313 62.9693 113.408L61.1678 116.773L61.9109 118.228C62.3191 119.029 63.0088 120.259 63.4291 120.957L64.2088 122.247L63.9911 122.661C63.6703 123.238 63.1566 123.194 62.6261 122.53C62.0952 121.882 60.5334 119.012 59.0721 116.023L57.9943 113.827L56.9209 113.644C55.2866 113.372 52.0428 112.04 48.2782 110.058C42.8053 107.211 36.9648 103.374 29.8135 97.9358C26.4982 95.4183 23.5942 93.3935 20.7174 91.58C17.6131 89.6175 17.241 89.3047 17.331 88.6563C17.4488 87.7083 18.7306 87.4475 22.2735 87.654C30.5943 88.1338 37.3768 91.057 44.6619 97.316C46.653 99.0202 51.0915 103.545 53.9127 106.754C54.9197 107.89 55.751 108.78 55.7867 108.736C55.8075 108.696 55.2014 106.957 54.4379 104.888C53.5222 102.4 52.3894 98.8584 51.1045 94.42L49.1265 87.715L48.1983 86.7788C46.6811 85.2733 44.1499 83.281 43.2184 82.9003C42.6016 82.6307 42.062 82.5566 41.1311 82.6206C36.1043 82.9792 29.5556 82.6849 22.9923 81.8131C17.9618 81.1516 16.8054 80.8079 16.8068 79.9454C16.8081 79.1708 17.305 78.8243 19.3608 78.2243C23.4399 76.9904 27.918 76.7582 32.556 77.5362C33.6445 77.7143 34.9882 77.9888 35.5558 78.153C36.1202 78.3072 36.5799 78.3895 36.5644 78.3395C36.5504 78.2944 35.4058 77.5462 34.0128 76.6884C30.8733 74.7368 28.9989 73.4081 26.5248 71.3871L24.6073 69.8136L23.3827 70.4356C21.9114 71.1835 19.5427 71.8203 18.1712 71.8454C15.8667 71.8747 13.658 70.9738 12.2754 69.4594C11.3926 68.4926 11.0143 67.6107 11.117 66.6674C11.1615 66.0496 11.7301 65.0494 12.2584 64.6272C12.6146 64.3409 12.63 64.3196 11.9901 63.0908C11.3839 61.9173 11.3369 60.9875 11.8274 60.2312C12.4747 59.201 14.1217 59.019 16.757 59.6831C18.065 60.0017 18.4248 59.9394 18.7042 59.3529C19.4865 57.6604 21.1971 57.6123 22.6792 59.2166C24.3394 61.0236 25.671 64.7448 25.6103 67.487L25.5973 68.5068L26.1142 68.9503C28.3731 70.9504 32.8769 74.2517 35.0224 75.4799C35.8635 75.9764 40.4065 78.8374 41.8044 79.7815C42.5409 80.2775 43.4172 80.7632 43.7303 80.869C44.055 80.9769 44.3476 81.1935 44.4067 81.3838C44.4643 81.5691 44.6435 81.8099 44.8077 81.8962C44.9765 81.9975 45.7964 82.6379 46.6469 83.3237L48.1862 84.5643L47.3932 82.4002C44.8332 75.2719 41.6598 68.6636 36.7854 60.2942C35.5518 58.1624 34.2343 55.9195 33.8906 55.2906C33.2304 54.1558 33.1094 54.067 31.6068 53.2104C28.3713 51.4094 27.5348 50.928 26.9079 50.5022C26.1026 49.9616 25.9417 49.9567 21.2267 50.0812C17.5164 50.1847 14.7104 49.7493 9.6413 48.2377C4.48263 46.7209 4.22421 46.6145 4.03915 46.0186C3.82452 45.3275 4.20286 44.9355 5.50601 44.5308C8.96432 43.4568 13.4515 43.5896 17.9668 44.9108C19.0294 45.2177 19.9977 45.5045 20.1263 45.547C20.2402 45.5775 19.4683 44.7026 18.4012 43.5844C16.6707 41.7993 14.5795 39.3298 12.6248 36.7522L12.0156 35.9585L10.5521 36.4131C8.14631 37.1602 6.27231 37.0009 4.26598 35.867C3.07177 35.1891 2.34659 34.4644 1.85063 33.416C1.25581 32.1731 1.70572 30.8968 2.97466 30.2227L3.46636 29.9657L2.99994 28.8531C2.24907 27.0547 2.50388 25.8225 3.71677 25.4458C4.47359 25.2108 5.3673 25.4164 7.23117 26.2157C8.8464 26.9221 8.85106 26.9371 9.04418 26.5148C9.50671 25.509 10.6409 24.9317 11.5383 25.2734C12.9298 25.8077 14.0667 28.0353 14.0898 30.2685C14.0908 31.4926 13.7259 33.3081 13.2743 34.1897L13.0193 34.7136L15.0194 37.2607C17.3623 40.2394 20.9714 44.1098 22.9882 45.7731C24.7472 47.2256 28.0255 49.4471 30.1762 50.657L31.8282 51.588L31.0143 50.0287C28.5525 45.2694 24.7495 37.3413 21.067 29.2708C20.0151 26.9455 19.0599 24.9139 18.977 24.753C18.7744 24.437 18.5041 24.3453 14.813 23.4489C10.3908 22.3569 8.53164 21.6439 3.24817 18.947C0.518917 17.5378 0.215939 17.3409 0.065081 16.8552C-0.233529 15.8936 0.479745 15.5184 2.53024 15.5734C6.71437 15.6687 11.6526 17.2538 15.5279 19.7347L17.2097 20.8321L16.8703 20.0755C16.6898 19.6538 15.7395 17.5494 14.7771 15.3883C13.8147 13.2273 12.9598 11.3239 12.8603 11.1626C12.7374 10.9262 12.4325 10.9001 11.3266 11.002C10.5717 11.0662 9.49634 11.0542 8.9571 10.9637C6.82994 10.6085 4.73495 9.18904 3.85827 7.534C3.44939 6.76596 3.40688 6.576 3.51578 5.97113C3.66825 5.02876 4.10292 4.48195 5.05607 4.06518L5.83883 3.70128L5.78668 2.54243C5.67266 0.688903 6.39437 -0.17214 7.85255 0.0284958L7.82574 0.0667434ZM7.36435 2.84566C7.42874 4.76942 7.36305 4.89412 5.89798 5.5029C5.00029 5.88601 4.98525 5.89068 5.09533 6.42205C5.32255 7.54301 7.38893 9.13605 8.91713 9.40266C9.70106 9.53807 11.1861 9.4887 12.1475 9.31093C12.7973 9.19148 12.8936 9.11216 13.3397 8.33667C13.6428 7.80875 13.9247 6.94697 14.0579 6.13698C14.2304 5.02915 14.2147 4.58928 13.9529 3.53396C13.7683 2.83354 13.5775 2.27231 13.5024 2.29566C13.4222 2.32056 13.2317 2.53895 13.064 2.7777C12.8876 3.04116 12.5205 3.29244 12.1696 3.4014C11.6033 3.57729 11.4137 3.51537 9.62648 2.53843C8.55133 1.96084 7.59886 1.54838 7.49796 1.61261C7.40169 1.69192 7.3286 2.25276 7.36435 2.84566ZM24.2246 7.09225C24.219 7.83524 24.1029 8.62905 23.9715 8.87845C23.7065 9.40551 23.0342 9.64724 22.2356 9.49993C21.012 9.27594 20.6974 9.87332 21.2712 11.3313C21.9531 13.014 23.6229 14.2854 25.6243 14.6247C26.6185 14.7827 26.6733 14.7821 27.0813 14.3973C27.3034 14.1746 27.7967 13.7634 28.1776 13.4858C29.6416 12.3778 30.6741 10.1463 30.3898 8.73557C30.24 8.04083 30.1804 7.95502 29.9298 8.03285C29.7641 8.1008 29.4929 8.28934 29.3112 8.48302C28.9225 8.89475 28.2418 9.14462 27.7657 9.04536C27.526 8.99901 27.1106 8.546 26.5615 7.73367C25.455 6.11713 24.8199 5.45227 24.4927 5.6198C24.3266 5.70433 24.2429 6.21351 24.2215 7.08225L24.2246 7.09225ZM4.6914 17.985C9.19857 20.1818 12.0508 21.2617 15.3043 21.97C16.4922 22.238 16.2494 22.0224 13.9261 20.6464C10.9943 18.9213 8.40661 17.9678 5.13079 17.4533C4.13306 17.3019 3.28897 17.1852 3.2388 17.2008C3.19836 17.2298 3.85509 17.5749 4.69295 17.9901L4.6914 17.985ZM36.4809 19.2863C34.9058 23.0975 32.7638 29.1711 32.0173 31.9343L31.8628 32.4984L32.3726 31.9283C35.3941 28.5629 37.2951 24.6507 37.9917 20.3819C38.2382 18.9107 38.3765 16.029 38.2443 15.6032C38.1515 15.3575 37.7748 16.1443 36.4759 19.2877L36.4809 19.2863ZM4.56444 28.5614C5.17568 30.3703 5.10272 30.684 3.96501 31.5151C3.20506 32.0586 3.14975 32.1636 3.24618 32.6333C3.40066 33.3431 4.50207 34.4122 5.5293 34.818C7.17024 35.4834 8.70464 35.4516 10.6796 34.7504C11.382 34.4993 11.4971 34.3922 11.8524 33.59C12.9202 31.2596 12.5869 27.9039 11.1762 26.865C10.8824 26.6268 10.8585 26.6561 10.4012 27.4132C9.58419 28.7815 9.06436 28.8771 7.07729 27.9293C5.31863 27.0973 4.7155 26.8892 4.35957 26.9998C4.09393 27.0823 4.09306 27.2034 4.56931 28.5599L4.56444 28.5614ZM7.24332 45.8935C7.56235 46.036 12.4461 47.4459 13.7143 47.7604C16.2461 48.3743 20.2375 48.7161 22.0202 48.4755L22.6709 48.3942L21.8637 48.0244C17.7192 46.1104 12.7967 45.1243 9.07036 45.4414C7.81476 45.5568 6.98222 45.7604 7.25154 45.9019L7.24332 45.8935ZM45.5722 38.2948C45.4507 39.7437 45.3136 40.0279 44.3724 40.7485C43.4832 41.442 43.3043 41.8215 43.5096 42.4826C43.8849 43.7442 45.6555 44.88 47.717 45.2007C49.6592 45.5091 50.3852 45.4758 50.8194 45.0334C51.2987 44.5771 52.2435 42.576 52.3908 41.7231C52.5799 40.6156 52.4768 39.1157 52.2012 38.5643C51.8768 37.9622 51.5852 38.0143 50.8845 38.8194C50.2981 39.4793 49.6116 39.7639 48.9934 39.5605C48.7691 39.4929 48.2171 39.0603 47.7866 38.612C46.5954 37.3951 45.8458 36.8043 45.7491 36.988C45.6922 37.088 45.6184 37.682 45.5689 38.3013L45.5722 38.2948ZM63.7881 34.2904C63.4561 35.1677 63.4762 36.3474 63.8433 37.5293C64.2191 38.6865 65.4672 40.918 65.8158 40.9964C66.9328 41.3194 69.7886 40.6412 71.3204 39.6987C72.4153 39.0127 73.5695 37.9515 73.658 37.5287C73.7152 37.2529 73.6054 37.1826 73.0111 37.1091C71.5029 36.9241 71.221 36.512 70.8887 34.0619C70.6722 32.427 70.568 32.4099 69.0457 33.7722C67.5146 35.1592 66.9943 35.2714 65.9963 34.4996C65.6337 34.2169 65.1764 33.8592 64.9723 33.6975C64.4606 33.3238 64.0548 33.5212 63.778 34.2935L63.7881 34.2904ZM38.994 47.0201C40.8434 52.2496 43.1924 60.0962 43.3995 61.7187C43.4878 62.4985 43.6039 63.1378 43.6282 63.1631C43.707 63.2045 43.6978 60.6266 43.6158 58.9116C43.4134 54.7739 42.0451 50.1912 40.0054 46.8438C39.1904 45.4936 38.0781 43.9117 37.9879 43.9397C37.9578 43.9491 38.4066 45.341 38.994 47.0201ZM13.1376 61.815C13.206 62.0353 13.4616 62.5929 13.703 63.034C14.2994 64.1227 14.2292 64.9408 13.4974 65.6457C12.7418 66.38 12.5995 66.7536 12.7986 67.3946C13.3305 69.1072 15.8255 70.364 18.4558 70.2335C20.2069 70.1564 23.6272 68.8361 23.958 68.0964C24.1922 67.6119 23.9092 65.4265 23.4209 63.8541C22.7132 61.5756 21.3497 59.627 20.5343 59.7264C20.363 59.7412 20.0255 60.0876 19.7927 60.5058C19.1443 61.5857 18.5687 61.7315 16.5926 61.2965C13.668 60.6563 12.8156 60.7784 13.1376 61.815ZM68.572 55.4656C66.1178 59.8792 64.3852 63.3604 63.2021 66.3634C62.3299 68.5452 62.2178 68.9095 62.4844 68.6179C66.4588 64.2154 69.5908 58.8171 71.0898 53.8051C71.5464 52.2851 72.1952 49.437 72.1314 49.2317C72.1128 49.1716 71.8125 49.6382 71.4525 50.2662C71.1125 50.8879 69.8102 53.2416 68.572 55.4656ZM52.0121 76.0047C52.7733 77.7835 54.9263 81.8315 56.264 83.9803C57.0204 85.1949 57.0692 85.2457 57.0286 84.7257C57.0017 84.4266 56.5831 82.8489 56.0808 81.2314C54.779 77.0398 53.2277 73.991 51.0146 71.2355L50.0796 70.0652L50.6923 72.1975C51.0231 73.3686 51.6198 75.0778 52.0121 76.0047ZM21.1967 79.996C22.6398 80.2013 23.0933 80.2636 25.2422 80.5296C29.6829 81.0614 39.0154 81.4191 39.2074 81.0465C39.2731 80.9217 36.5813 80.0226 34.9449 79.6194C30.1825 78.4408 24.3151 78.4291 20.4594 79.5496L19.6729 79.7774L21.2021 79.9943L21.1967 79.996ZM20.4879 89.5342C23.6238 91.4211 25.1894 92.5163 32.8905 98.1851C34.5401 99.3915 36.1762 100.607 36.5445 100.855C36.8977 101.108 37.688 101.653 38.2836 102.067C42.9328 105.323 50.7484 109.732 54.3874 111.134C55.344 111.506 56.1534 111.777 56.1687 111.755C56.2102 111.677 51.6735 106.606 49.2587 104.051C39.7976 93.9538 31.7652 89.6778 21.5351 89.2592C20.0556 89.2025 19.9604 89.2321 20.4836 89.5364L20.4879 89.5342ZM73.8615 75.3304C73.4501 76.2708 72.0516 79.0936 70.737 81.6379C67.0464 88.8296 65.3889 92.9244 63.9705 98.4609C63.1049 101.832 62.0102 108.075 61.6461 111.839L61.5816 112.463L61.8445 112.036C61.9971 111.802 62.5094 110.956 62.9596 110.141C63.4164 109.329 64.7991 107.022 66.0244 105.022C70.208 98.2315 72.2501 93.9951 73.592 89.2737C74.9136 84.6462 75.3514 79.898 74.9549 74.9585C74.8955 74.1478 74.8274 73.4331 74.8072 73.368C74.7668 73.2378 74.7979 73.1787 73.8666 75.3294L73.8615 75.3304Z" fill="#173B71"/>
</svg>
