<svg width="206" height="42" viewBox="0 0 206 42" fill="none" xmlns="http://www.w3.org/2000/svg">
<path d="M79.6883 7.10176C79.9739 6.93043 80.3451 6.84476 80.802 6.84476C81.2589 6.84476 81.6729 7.04465 82.0441 7.44442C82.4154 7.81564 82.601 8.25824 82.601 8.77223C82.601 19.9373 82.6438 26.6906 82.7295 29.0321C82.8437 31.345 82.9008 32.5301 82.9008 32.5872C82.9008 33.2154 82.7295 33.815 82.3868 34.3861C82.0441 34.9287 81.6587 35.2 81.2303 35.2C80.8306 35.2 80.5164 35.1857 80.288 35.1571C80.0881 35.1 79.9025 35.0429 79.7312 34.9858C79.5598 34.9287 79.3885 34.8145 79.2172 34.6431L78.7889 34.2148C78.6746 34.1006 78.5176 33.8864 78.3177 33.5723C78.1464 33.2297 78.0036 32.9584 77.8894 32.7585C77.7752 32.5586 77.5895 32.216 77.3326 31.7305C77.1041 31.2165 76.5758 30.1886 75.7477 28.6466C74.9482 27.1046 74.22 25.7197 73.5633 24.4918C71.3074 20.3513 69.2086 17.0818 67.2669 14.6831C67.2669 23.9635 67.0099 30.4027 66.4959 34.0007C66.4102 34.686 65.882 35.0286 64.9111 35.0286C64.4542 35.0286 64.0687 34.9144 63.7546 34.686C63.4691 34.4575 63.3263 34.0863 63.3263 33.5723C63.3263 33.0583 63.4262 30.2314 63.6261 25.0915C63.8545 19.9516 63.9688 16.7534 63.9688 15.497C63.9688 14.212 63.9688 13.3982 63.9688 13.0555C63.9688 10.9995 64.1258 9.84305 64.4399 9.58605C64.754 9.32906 65.0824 9.20056 65.4251 9.20056C66.9956 9.20056 69.3942 11.7705 72.621 16.9104C73.2492 17.9099 74.4485 20.0087 76.2189 23.2068C77.9893 26.3764 79.0459 28.3325 79.3885 29.0749L78.8745 11.2994C78.8745 8.84362 79.1458 7.44442 79.6883 7.10176Z" fill="white"/>
<path d="M44.9797 20.4624C44.5799 20.2054 44.38 19.8342 44.38 19.3488C44.38 18.8633 44.5371 18.4207 44.8512 18.0209C44.7369 15.1654 44.6798 12.1529 44.6798 8.98326C44.8512 8.29794 45.1082 7.79822 45.4508 7.48412C45.822 7.17001 46.3503 6.97013 47.0356 6.88446C50.8049 7.05579 54.8883 7.14146 59.2858 7.14146C60.3709 7.3699 60.9134 7.84106 60.9134 8.55493C60.9134 9.75425 59.7426 10.4538 57.4011 10.6537C56.7729 10.6823 56.0876 10.6966 55.3452 10.6966H52.561C52.0185 10.6966 50.5193 10.5823 48.0636 10.3539C48.0636 13.9233 48.1207 16.379 48.2349 17.7211C49.7484 17.7497 52.661 17.764 56.9728 17.764C58.0008 17.9638 58.5148 18.435 58.5148 19.1774C58.5148 19.8913 58.1007 20.4481 57.2726 20.8479C57.187 20.905 57.0299 20.9621 56.8015 21.0192L49.3914 20.8907C48.9345 20.8907 48.5633 20.9193 48.2778 20.9764L48.4491 28.3436C48.4491 29.9998 48.4063 31.1848 48.3206 31.8987L58.2578 31.7702C59.1715 31.913 59.6284 32.2985 59.6284 32.9267C59.6284 33.355 59.4285 33.7834 59.0288 34.2117C58.6576 34.64 58.2149 34.9113 57.701 35.0255L46.7358 35.1968C46.079 35.1968 45.6222 35.0826 45.3652 34.8542C45.1082 34.5972 44.9797 34.1831 44.9797 33.612C45.0939 32.8125 45.151 31.5275 45.151 29.7571V26.7588L44.9797 20.4624Z" fill="white"/>
<path d="M24.44 30.8279C24.2401 27.8867 24.1402 23.9176 24.1402 18.9204C24.1402 13.8947 24.2116 10.6395 24.3544 9.15459C24.4971 8.24083 25.1254 7.64117 26.239 7.35562C27.3527 7.04151 28.8232 6.88446 30.6508 6.88446C33.3349 6.88446 35.5908 7.46984 37.4183 8.6406C39.2744 9.7828 40.2024 11.4818 40.2024 13.7377C40.2024 15.5938 39.9455 17.15 39.4315 18.4064C38.9175 19.6343 38.275 20.5481 37.504 21.1477C36.2476 22.1186 34.3915 22.604 31.9357 22.604C30.8792 22.604 29.4943 22.4613 27.781 22.1757C27.9238 27.8867 27.9809 31.4847 27.9523 32.9695C27.9238 34.4544 27.424 35.1968 26.4532 35.1968C25.825 35.1968 25.4252 35.0826 25.2539 34.8542C25.0825 34.6257 24.9683 34.4687 24.9112 34.383C24.8541 34.2688 24.797 34.1117 24.7399 33.9119C24.6828 33.712 24.6399 33.5549 24.6114 33.4407C24.5828 33.2979 24.5543 33.098 24.5257 32.841C24.5257 32.584 24.5114 32.3842 24.4829 32.2414C24.4543 31.8131 24.44 31.3419 24.44 30.8279ZM36.6473 13.8662C36.6473 12.6954 36.0191 11.7817 34.7627 11.1249C33.5063 10.4396 32.1642 10.0969 30.7364 10.0969C29.3087 10.0969 28.3092 10.2254 27.7381 10.4824C27.6239 12.1672 27.5668 13.7234 27.5668 15.1512C27.5668 16.5504 27.6239 17.8211 27.7381 18.9633C28.5091 19.0489 29.0374 19.1203 29.323 19.1774C30.0654 19.2631 30.6936 19.3059 31.2076 19.3059C31.7501 19.3059 32.1071 19.3059 32.2784 19.3059C32.4783 19.2774 32.8352 19.2345 33.3492 19.1774C33.8918 19.0918 34.2773 18.9633 34.5057 18.7919C34.7341 18.6206 35.0197 18.3922 35.3624 18.1066C35.705 17.8211 35.9477 17.4927 36.0905 17.1215C36.4617 16.0935 36.6473 15.0084 36.6473 13.8662Z" fill="white"/>
<path d="M11.3078 6.71243C13.3067 6.71243 15.0057 7.35492 16.4049 8.6399C19.1462 11.0956 20.5168 14.9791 20.5168 20.2904C20.5168 25.5731 19.0034 29.7278 15.9766 32.7547C14.406 34.2681 12.5928 35.0962 10.5368 35.239C7.82409 35.239 5.71102 34.3109 4.1976 32.4548C2.68418 30.5988 1.59909 28.5285 0.942319 26.2441C0.314107 23.9312 0 21.7039 0 19.5622C0 15.9072 0.870931 12.8946 2.61279 10.5245C4.44032 7.98313 7.33866 6.71243 11.3078 6.71243ZM11.008 10.2675C7.18161 10.2675 4.79726 12.0808 3.85494 15.7073C3.56939 16.6782 3.42661 17.9203 3.42661 19.4337C3.42661 20.9471 3.71216 22.7033 4.28326 24.7021C5.05425 27.3863 6.19645 29.271 7.70987 30.356C8.59508 31.0414 9.6659 31.384 10.9223 31.384C12.1787 31.384 13.3067 30.8272 14.3061 29.7136C15.3055 28.5714 15.9909 27.1293 16.3621 25.3875C16.7333 23.6456 16.9189 21.8895 16.9189 20.119C16.9189 16.978 16.462 14.5508 15.5482 12.8375C14.663 11.1242 13.1496 10.2675 11.008 10.2675Z" fill="white"/>
<path d="M103.841 0.648398C104.276 0.216133 104.767 0 105.312 0C105.856 0 106.197 0.497105 106.333 1.49132C106.36 6.5056 106.415 14.0054 106.497 23.9907C106.497 30.0857 106.388 35.2513 106.17 39.4875C106.115 40.1359 105.856 40.7194 105.393 41.2381C104.957 41.7136 104.508 41.9514 104.045 41.9514C103.282 41.9514 102.901 41.3246 102.901 40.071C103.173 35.7484 103.309 30.3883 103.309 23.9907L103.064 2.20455C103.173 1.59938 103.432 1.08066 103.841 0.648398Z" fill="#8B5937"/>
<path d="M128.76 3.4223C129.081 3.4223 129.352 3.47656 129.574 3.58509C129.801 3.69361 129.914 3.83174 129.914 3.99946C129.914 4.07346 129.895 4.13759 129.855 4.19185C129.821 4.24611 129.766 4.27325 129.692 4.27325C129.623 4.27325 129.47 4.21898 129.234 4.11046C128.997 3.997 128.78 3.94027 128.583 3.94027C128.39 3.94027 128.19 4.00193 127.983 4.12525C127.776 4.24858 127.672 4.39904 127.672 4.57663C127.672 4.81835 127.798 4.99593 128.05 5.10939C128.237 5.19326 128.506 5.26972 128.856 5.33878C129.207 5.40291 129.493 5.53857 129.715 5.74576C129.937 5.94801 130.048 6.25633 130.048 6.6707C130.048 7.30213 129.858 7.7683 129.478 8.06921C129.266 8.23694 128.965 8.3208 128.575 8.3208C128.19 8.3208 127.806 8.21474 127.421 8.00262C127.169 7.86943 127.043 7.73623 127.043 7.60304C127.043 7.55371 127.063 7.49945 127.103 7.44025C127.147 7.38106 127.206 7.33173 127.28 7.29226C127.354 7.2528 127.421 7.24786 127.48 7.27746C127.544 7.30213 127.645 7.34899 127.783 7.41805C127.922 7.48712 128.023 7.53398 128.087 7.55865C128.294 7.63757 128.489 7.67704 128.671 7.67704C128.854 7.67704 129.029 7.58824 129.197 7.41065C129.369 7.22813 129.456 7.00615 129.456 6.7447C129.456 6.39938 129.283 6.15766 128.938 6.01954C128.77 5.95048 128.58 5.89868 128.368 5.86415C127.929 5.78522 127.598 5.65449 127.376 5.47197C127.154 5.28452 127.043 5.00333 127.043 4.62842C127.043 4.25351 127.204 3.96 127.524 3.74788C127.845 3.53082 128.257 3.4223 128.76 3.4223Z" fill="white"/>
<path d="M132.534 4.86521C132.751 4.86521 132.859 5.0502 132.859 5.42018C132.859 5.45964 132.859 5.50157 132.859 5.54597L132.845 6.06394C132.84 6.22673 132.837 6.38705 132.837 6.54491L132.948 8.21721C132.948 8.34053 132.822 8.40219 132.571 8.40219C132.556 8.40219 132.519 8.40219 132.46 8.40219C132.406 8.40219 132.366 8.38 132.341 8.3356C132.322 8.2912 132.319 8.23694 132.334 8.17281C132.354 8.10868 132.349 8.03715 132.319 7.95822C132.092 8.19994 131.791 8.3208 131.416 8.3208C130.721 8.3208 130.373 7.7831 130.373 6.7077C130.373 6.1108 130.484 5.65943 130.706 5.35358C130.933 5.04773 131.256 4.89481 131.675 4.89481C131.873 4.89481 132.07 4.92934 132.267 4.9984C132.332 4.90961 132.42 4.86521 132.534 4.86521ZM131.764 5.53857C131.483 5.53857 131.273 5.61996 131.135 5.78275C130.997 5.94554 130.928 6.24399 130.928 6.6781C130.928 7.40819 131.125 7.77323 131.52 7.77323C131.624 7.77323 131.737 7.72637 131.86 7.63264C131.989 7.53891 132.077 7.43285 132.127 7.31446C132.221 7.04808 132.267 6.75703 132.267 6.44131C132.267 6.1256 132.228 5.89621 132.149 5.75316C132.075 5.6101 131.947 5.53857 131.764 5.53857Z" fill="white"/>
<path d="M133.552 4.86521L133.922 4.87261C134.006 4.87261 134.053 4.87014 134.063 4.86521V3.3483C134.067 3.26444 134.109 3.19291 134.188 3.13371C134.267 3.07452 134.341 3.04492 134.41 3.04492C134.479 3.04492 134.534 3.06712 134.573 3.11152C134.618 3.15591 134.637 3.22498 134.632 3.3187C134.627 3.41243 134.625 3.92547 134.625 4.85781L135.491 4.82821C135.639 4.82821 135.713 4.91454 135.713 5.0872C135.713 5.21545 135.673 5.31165 135.594 5.37578C135.52 5.43991 135.439 5.47444 135.35 5.47937C135.266 5.4843 135.182 5.48677 135.098 5.48677L134.647 5.47937C134.647 5.68163 134.667 6.0812 134.706 6.6781C134.751 7.275 134.785 7.66224 134.81 7.83983C134.835 8.01248 134.84 8.12594 134.825 8.18021C134.81 8.22954 134.783 8.26407 134.743 8.2838C134.679 8.3134 134.593 8.3282 134.484 8.3282C134.376 8.3282 134.312 8.269 134.292 8.15061C134.193 7.50438 134.127 6.61644 134.092 5.48677C134.048 5.4917 133.878 5.49417 133.582 5.49417C133.286 5.49417 133.138 5.40784 133.138 5.23519C133.138 4.98854 133.276 4.86521 133.552 4.86521Z" fill="white"/>
<path d="M135.896 5.15379C135.916 5.06993 135.957 5.00087 136.022 4.9466C136.086 4.88741 136.15 4.85781 136.214 4.85781C136.283 4.85781 136.335 4.87014 136.369 4.89481C136.409 4.91947 136.431 4.94167 136.436 4.9614C136.446 4.98114 136.456 5.01567 136.466 5.065C136.436 5.44977 136.421 5.79755 136.421 6.10833C136.421 6.41418 136.458 6.76689 136.532 7.16647C136.606 7.56111 136.688 7.75843 136.776 7.75843C136.91 7.75843 137.077 7.68444 137.28 7.53645C137.487 7.38846 137.635 7.23307 137.723 7.07028C137.664 6.35992 137.635 5.75069 137.635 5.24259C137.635 5.13899 137.667 5.0502 137.731 4.9762C137.8 4.90221 137.881 4.86521 137.975 4.86521C138.128 4.86521 138.204 4.9688 138.204 5.17599C138.204 5.52624 138.229 6.04667 138.278 6.7373C138.333 7.42792 138.387 7.86696 138.441 8.05442C138.451 8.09388 138.456 8.14074 138.456 8.19501C138.456 8.24434 138.422 8.2912 138.352 8.3356C138.288 8.38493 138.202 8.40959 138.093 8.40959C137.99 8.40959 137.921 8.3504 137.886 8.232C137.876 8.13334 137.852 7.98535 137.812 7.78803C137.467 8.14814 137.119 8.3282 136.769 8.3282C136.606 8.3282 136.461 8.26654 136.332 8.14321C136.204 8.01988 136.103 7.85216 136.029 7.64004C135.901 7.2306 135.837 6.84582 135.837 6.48571C135.837 6.1256 135.856 5.68163 135.896 5.15379Z" fill="white"/>
<path d="M139.828 7.24046L139.835 8.00262C139.835 8.09141 139.793 8.17281 139.709 8.2468C139.631 8.3208 139.552 8.3578 139.473 8.3578C139.359 8.3578 139.288 8.269 139.258 8.09141C139.253 8.05195 139.233 7.69184 139.199 7.01108C139.164 6.32539 139.098 5.78769 138.999 5.39798C138.955 5.21052 138.932 5.09953 138.932 5.065C138.932 4.90221 139.031 4.82081 139.228 4.82081C139.312 4.82081 139.379 4.85288 139.428 4.91701C139.478 4.98114 139.507 5.04773 139.517 5.11679C139.532 5.18092 139.544 5.26972 139.554 5.38318C139.564 5.49664 139.571 5.56817 139.576 5.59776C139.68 5.35111 139.835 5.16612 140.042 5.0428C140.25 4.91947 140.477 4.85781 140.723 4.85781C141.128 4.85781 141.33 4.9614 141.33 5.16859C141.33 5.27218 141.293 5.35605 141.219 5.42018C141.15 5.47937 141.069 5.50897 140.975 5.50897C140.555 5.50897 140.259 5.64216 140.087 5.90855C139.914 6.17493 139.828 6.6189 139.828 7.24046Z" fill="white"/>
<path d="M143.489 4.85781L143.481 3.4297C143.481 3.16331 143.565 3.03012 143.733 3.03012C143.906 3.03012 144.002 3.10412 144.022 3.25211C144.032 3.31624 144.044 3.70348 144.059 4.41384C144.073 5.12419 144.096 5.79015 144.125 6.41172C144.16 7.03328 144.177 7.61291 144.177 8.15061C144.177 8.2986 144.066 8.3726 143.844 8.3726C143.696 8.3726 143.622 8.269 143.622 8.06181C143.41 8.22954 143.158 8.3134 142.867 8.3134C142.497 8.3134 142.196 8.17527 141.965 7.89902C141.738 7.62278 141.624 7.2824 141.624 6.87789C141.624 6.47338 141.706 6.096 141.868 5.74576C142.036 5.39058 142.295 5.13653 142.645 4.9836C142.862 4.88987 143.072 4.84301 143.274 4.84301C143.348 4.84301 143.42 4.84794 143.489 4.85781ZM143.526 5.87155C143.491 5.76302 143.449 5.68163 143.4 5.62736C143.351 5.56817 143.296 5.53364 143.237 5.52377C143.183 5.50897 143.116 5.50157 143.038 5.50157C142.959 5.50157 142.862 5.53117 142.749 5.59037C142.635 5.64956 142.539 5.74576 142.46 5.87895C142.302 6.14533 142.224 6.42651 142.224 6.7225C142.224 7.01355 142.28 7.2528 142.394 7.44025C142.512 7.62278 142.677 7.71404 142.89 7.71404C143.107 7.71404 143.277 7.60798 143.4 7.39586C143.523 7.18373 143.585 6.91242 143.585 6.5819C143.585 6.21193 143.565 5.97514 143.526 5.87155Z" fill="white"/>
<path d="M146.668 4.86521C146.885 4.86521 146.994 5.0502 146.994 5.42018C146.994 5.45964 146.994 5.50157 146.994 5.54597L146.979 6.06394C146.974 6.22673 146.971 6.38705 146.971 6.54491L147.082 8.21721C147.082 8.34053 146.957 8.40219 146.705 8.40219C146.69 8.40219 146.653 8.40219 146.594 8.40219C146.54 8.40219 146.5 8.38 146.476 8.3356C146.456 8.2912 146.454 8.23694 146.468 8.17281C146.488 8.10868 146.483 8.03715 146.454 7.95822C146.227 8.19994 145.926 8.3208 145.551 8.3208C144.855 8.3208 144.507 7.7831 144.507 6.7077C144.507 6.1108 144.618 5.65943 144.84 5.35358C145.067 5.04773 145.39 4.89481 145.81 4.89481C146.007 4.89481 146.204 4.92934 146.402 4.9984C146.466 4.90961 146.555 4.86521 146.668 4.86521ZM145.899 5.53857C145.617 5.53857 145.408 5.61996 145.27 5.78275C145.131 5.94554 145.062 6.24399 145.062 6.6781C145.062 7.40819 145.26 7.77323 145.654 7.77323C145.758 7.77323 145.871 7.72637 145.995 7.63264C146.123 7.53891 146.212 7.43285 146.261 7.31446C146.355 7.04808 146.402 6.75703 146.402 6.44131C146.402 6.1256 146.362 5.89621 146.283 5.75316C146.209 5.6101 146.081 5.53857 145.899 5.53857Z" fill="white"/>
<path d="M149.862 4.90221C149.926 4.90221 149.988 4.92441 150.047 4.9688C150.111 5.0132 150.143 5.06253 150.143 5.11679C150.143 5.25985 149.933 6.03434 149.514 7.44025C149.095 8.84617 148.784 9.83277 148.582 10.4001C148.537 10.5333 148.468 10.5999 148.374 10.5999C148.281 10.5999 148.207 10.5653 148.152 10.4963C148.098 10.4321 148.071 10.3359 148.071 10.2077C148.071 10.0794 148.152 9.77111 148.315 9.28274C148.483 8.7993 148.584 8.49099 148.619 8.3578C148.495 8.15061 148.078 7.11467 147.368 5.24999C147.358 5.22532 147.353 5.19326 147.353 5.15379C147.353 5.11433 147.383 5.06253 147.442 4.9984C147.501 4.93427 147.583 4.90221 147.686 4.90221C147.79 4.90221 147.874 4.954 147.938 5.0576C148.007 5.23519 148.12 5.54597 148.278 5.98994C148.436 6.42898 148.557 6.74716 148.641 6.94448C148.73 7.1418 148.813 7.34653 148.892 7.55865C148.961 7.32679 149.08 6.87789 149.248 6.21193C149.415 5.54103 149.512 5.15872 149.536 5.065C149.556 4.95647 149.664 4.90221 149.862 4.90221Z" fill="white"/>
<path d="M150.756 5.80495C150.756 5.5139 150.86 5.28205 151.067 5.10939C151.274 4.93674 151.513 4.85041 151.785 4.85041C152.061 4.85041 152.325 4.89974 152.576 4.9984C152.828 5.09706 152.954 5.22779 152.954 5.39058C152.954 5.47444 152.922 5.54103 152.857 5.59037C152.793 5.6397 152.737 5.66436 152.687 5.66436C152.643 5.66436 152.606 5.66436 152.576 5.66436C152.552 5.65943 152.453 5.61256 152.28 5.52377C152.113 5.43497 151.957 5.39058 151.814 5.39058C151.671 5.39058 151.548 5.42758 151.444 5.50157C151.345 5.57063 151.296 5.67423 151.296 5.81235C151.296 5.95048 151.353 6.059 151.466 6.13793C151.585 6.21686 151.789 6.28592 152.081 6.34512C152.372 6.39938 152.594 6.47831 152.746 6.5819C152.904 6.6855 152.983 6.87789 152.983 7.15907C152.983 7.56851 152.875 7.85956 152.658 8.03222C152.446 8.19994 152.187 8.2838 151.881 8.2838C151.575 8.2838 151.313 8.24187 151.096 8.15801C150.884 8.07415 150.778 7.94836 150.778 7.78063C150.778 7.58824 150.874 7.49205 151.067 7.49205C151.116 7.49205 151.225 7.52658 151.392 7.59564C151.56 7.66471 151.725 7.69924 151.888 7.69924C152.056 7.69924 152.182 7.64744 152.266 7.54385C152.354 7.43532 152.399 7.31199 152.399 7.17387C152.399 7.03574 152.342 6.93708 152.229 6.87789C152.115 6.81376 151.942 6.76196 151.711 6.7225C151.479 6.68303 151.308 6.6411 151.2 6.5967C150.904 6.47831 150.756 6.21439 150.756 5.80495Z" fill="white"/>
<path d="M153.788 7.78063C153.818 7.62771 153.899 7.55125 154.032 7.55125C154.165 7.55125 154.254 7.62031 154.299 7.75843C154.299 8.08401 154.247 8.37753 154.143 8.63898C154.109 8.73271 154.057 8.81164 153.988 8.87577C153.924 8.93989 153.855 8.97196 153.781 8.97196C153.618 8.97196 153.536 8.88563 153.536 8.71298C153.536 8.65871 153.544 8.60692 153.559 8.55758C153.712 8.38493 153.788 8.12594 153.788 7.78063Z" fill="white"/>
<path d="M158.366 3.4223C158.686 3.4223 158.958 3.47656 159.18 3.58509C159.406 3.69361 159.52 3.83174 159.52 3.99946C159.52 4.07346 159.5 4.13759 159.461 4.19185C159.426 4.24611 159.372 4.27325 159.298 4.27325C159.229 4.27325 159.076 4.21898 158.839 4.11046C158.602 3.997 158.385 3.94027 158.188 3.94027C157.996 3.94027 157.796 4.00193 157.589 4.12525C157.381 4.24858 157.278 4.39904 157.278 4.57663C157.278 4.81835 157.404 4.99593 157.655 5.10939C157.843 5.19326 158.112 5.26972 158.462 5.33878C158.812 5.40291 159.098 5.53857 159.32 5.74576C159.542 5.94801 159.653 6.25633 159.653 6.6707C159.653 7.30213 159.463 7.7683 159.083 8.06921C158.871 8.23694 158.57 8.3208 158.181 8.3208C157.796 8.3208 157.411 8.21474 157.026 8.00262C156.775 7.86943 156.649 7.73623 156.649 7.60304C156.649 7.55371 156.669 7.49945 156.708 7.44025C156.752 7.38106 156.812 7.33173 156.886 7.29226C156.96 7.2528 157.026 7.24786 157.085 7.27746C157.15 7.30213 157.251 7.34899 157.389 7.41805C157.527 7.48712 157.628 7.53398 157.692 7.55865C157.899 7.63757 158.094 7.67704 158.277 7.67704C158.459 7.67704 158.634 7.58824 158.802 7.41065C158.975 7.22813 159.061 7.00615 159.061 6.7447C159.061 6.39938 158.888 6.15766 158.543 6.01954C158.375 5.95048 158.186 5.89868 157.973 5.86415C157.534 5.78522 157.204 5.65449 156.982 5.47197C156.76 5.28452 156.649 5.00333 156.649 4.62842C156.649 4.25351 156.809 3.96 157.13 3.74788C157.45 3.53082 157.862 3.4223 158.366 3.4223Z" fill="white"/>
<path d="M160.06 5.15379C160.08 5.06993 160.122 5.00087 160.186 4.9466C160.25 4.88741 160.314 4.85781 160.378 4.85781C160.447 4.85781 160.499 4.87014 160.534 4.89481C160.573 4.91947 160.595 4.94167 160.6 4.9614C160.61 4.98114 160.62 5.01567 160.63 5.065C160.6 5.44977 160.585 5.79755 160.585 6.10833C160.585 6.41418 160.622 6.76689 160.696 7.16647C160.77 7.56111 160.852 7.75843 160.94 7.75843C161.074 7.75843 161.241 7.68444 161.444 7.53645C161.651 7.38846 161.799 7.23307 161.888 7.07028C161.828 6.35992 161.799 5.75069 161.799 5.24259C161.799 5.13899 161.831 5.0502 161.895 4.9762C161.964 4.90221 162.045 4.86521 162.139 4.86521C162.292 4.86521 162.369 4.9688 162.369 5.17599C162.369 5.52624 162.393 6.04667 162.443 6.7373C162.497 7.42792 162.551 7.86696 162.605 8.05442C162.615 8.09388 162.62 8.14074 162.62 8.19501C162.62 8.24434 162.586 8.2912 162.517 8.3356C162.452 8.38493 162.366 8.40959 162.258 8.40959C162.154 8.40959 162.085 8.3504 162.05 8.232C162.041 8.13334 162.016 7.98535 161.976 7.78803C161.631 8.14814 161.283 8.3282 160.933 8.3282C160.77 8.3282 160.625 8.26654 160.497 8.14321C160.368 8.01988 160.267 7.85216 160.193 7.64004C160.065 7.2306 160.001 6.84582 160.001 6.48571C160.001 6.1256 160.02 5.68163 160.06 5.15379Z" fill="white"/>
<path d="M163.319 8.09141L163.237 5.0872C163.237 4.99347 163.269 4.91701 163.333 4.85781C163.398 4.79861 163.462 4.76902 163.526 4.76902C163.684 4.76902 163.775 4.83561 163.8 4.9688C163.819 5.10199 163.829 5.24012 163.829 5.38318C164.096 5.03293 164.429 4.85781 164.828 4.85781C165.44 4.85781 165.746 5.55583 165.746 6.95188C165.746 7.08014 165.746 7.275 165.746 7.53645C165.746 7.79296 165.731 7.98042 165.701 8.09881C165.667 8.2468 165.561 8.3208 165.383 8.3208C165.265 8.3208 165.206 8.24187 165.206 8.08401L165.213 7.66964C165.213 7.09741 165.193 6.7077 165.154 6.50051C165.119 6.28839 165.085 6.12067 165.05 5.99734C164.966 5.73096 164.831 5.59776 164.643 5.59776C164.397 5.59776 164.224 5.68656 164.125 5.86415C164.017 6.05654 163.953 6.28346 163.933 6.54491C163.898 7.00368 163.881 7.48958 163.881 8.00262C163.881 8.10128 163.844 8.18021 163.77 8.2394C163.696 8.2986 163.607 8.3282 163.504 8.3282C163.38 8.3282 163.319 8.24927 163.319 8.09141Z" fill="white"/>
<path d="M168.152 4.85781L168.144 3.4297C168.144 3.16331 168.228 3.03012 168.396 3.03012C168.568 3.03012 168.665 3.10412 168.684 3.25211C168.694 3.31624 168.707 3.70348 168.721 4.41384C168.736 5.12419 168.758 5.79015 168.788 6.41172C168.823 7.03328 168.84 7.61291 168.84 8.15061C168.84 8.2986 168.729 8.3726 168.507 8.3726C168.359 8.3726 168.285 8.269 168.285 8.06181C168.073 8.22954 167.821 8.3134 167.53 8.3134C167.16 8.3134 166.859 8.17527 166.627 7.89902C166.4 7.62278 166.287 7.2824 166.287 6.87789C166.287 6.47338 166.368 6.096 166.531 5.74576C166.699 5.39058 166.958 5.13653 167.308 4.9836C167.525 4.88987 167.735 4.84301 167.937 4.84301C168.011 4.84301 168.083 4.84794 168.152 4.85781ZM168.189 5.87155C168.154 5.76302 168.112 5.68163 168.063 5.62736C168.014 5.56817 167.959 5.53364 167.9 5.52377C167.846 5.50897 167.779 5.50157 167.7 5.50157C167.621 5.50157 167.525 5.53117 167.412 5.59037C167.298 5.64956 167.202 5.74576 167.123 5.87895C166.965 6.14533 166.886 6.42651 166.886 6.7225C166.886 7.01355 166.943 7.2528 167.057 7.44025C167.175 7.62278 167.34 7.71404 167.552 7.71404C167.769 7.71404 167.94 7.60798 168.063 7.39586C168.186 7.18373 168.248 6.91242 168.248 6.5819C168.248 6.21193 168.228 5.97514 168.189 5.87155Z" fill="white"/>
<path d="M171.331 4.86521C171.548 4.86521 171.656 5.0502 171.656 5.42018C171.656 5.45964 171.656 5.50157 171.656 5.54597L171.642 6.06394C171.637 6.22673 171.634 6.38705 171.634 6.54491L171.745 8.21721C171.745 8.34053 171.619 8.40219 171.368 8.40219C171.353 8.40219 171.316 8.40219 171.257 8.40219C171.203 8.40219 171.163 8.38 171.138 8.3356C171.119 8.2912 171.116 8.23694 171.131 8.17281C171.151 8.10868 171.146 8.03715 171.116 7.95822C170.889 8.19994 170.588 8.3208 170.214 8.3208C169.518 8.3208 169.17 7.7831 169.17 6.7077C169.17 6.1108 169.281 5.65943 169.503 5.35358C169.73 5.04773 170.053 4.89481 170.473 4.89481C170.67 4.89481 170.867 4.92934 171.064 4.9984C171.129 4.90961 171.217 4.86521 171.331 4.86521ZM170.561 5.53857C170.28 5.53857 170.07 5.61996 169.932 5.78275C169.794 5.94554 169.725 6.24399 169.725 6.6781C169.725 7.40819 169.922 7.77323 170.317 7.77323C170.421 7.77323 170.534 7.72637 170.657 7.63264C170.786 7.53891 170.875 7.43285 170.924 7.31446C171.018 7.04808 171.064 6.75703 171.064 6.44131C171.064 6.1256 171.025 5.89621 170.946 5.75316C170.872 5.6101 170.744 5.53857 170.561 5.53857Z" fill="white"/>
<path d="M174.525 4.90221C174.589 4.90221 174.65 4.92441 174.709 4.9688C174.774 5.0132 174.806 5.06253 174.806 5.11679C174.806 5.25985 174.596 6.03434 174.177 7.44025C173.757 8.84617 173.447 9.83277 173.244 10.4001C173.2 10.5333 173.131 10.5999 173.037 10.5999C172.943 10.5999 172.869 10.5653 172.815 10.4963C172.761 10.4321 172.734 10.3359 172.734 10.2077C172.734 10.0794 172.815 9.77111 172.978 9.28274C173.146 8.7993 173.247 8.49099 173.281 8.3578C173.158 8.15061 172.741 7.11467 172.031 5.24999C172.021 5.22532 172.016 5.19326 172.016 5.15379C172.016 5.11433 172.046 5.06253 172.105 4.9984C172.164 4.93427 172.245 4.90221 172.349 4.90221C172.453 4.90221 172.536 4.954 172.601 5.0576C172.67 5.23519 172.783 5.54597 172.941 5.98994C173.099 6.42898 173.22 6.74716 173.304 6.94448C173.392 7.1418 173.476 7.34653 173.555 7.55865C173.624 7.32679 173.743 6.87789 173.91 6.21193C174.078 5.54103 174.174 5.15872 174.199 5.065C174.219 4.95647 174.327 4.90221 174.525 4.90221Z" fill="white"/>
<path d="M179.588 4.46563C179.588 4.72215 179.519 4.93674 179.381 5.10939C179.248 5.27712 179.026 5.45717 178.715 5.64956C178.774 5.73836 178.87 5.87401 179.004 6.05654C179.137 6.23906 179.218 6.35252 179.248 6.39692L179.477 6.77429C179.625 6.53257 179.711 6.35005 179.736 6.22673C179.776 6.07874 179.877 6.00474 180.04 6.00474C180.123 6.00474 180.192 6.02941 180.247 6.07874C180.301 6.12313 180.328 6.1848 180.328 6.26372C180.328 6.45611 180.136 6.78416 179.751 7.24786C179.904 7.54385 180.017 7.80036 180.091 8.01742C180.081 8.09141 180.047 8.15554 179.988 8.20981C179.929 8.26407 179.862 8.2912 179.788 8.2912C179.714 8.2912 179.647 8.2616 179.588 8.20241C179.549 8.14321 179.517 8.07661 179.492 8.00262C179.467 7.92862 179.425 7.82256 179.366 7.68444C179.139 7.92616 178.949 8.09141 178.796 8.18021C178.643 8.26407 178.466 8.306 178.264 8.306C178.066 8.306 177.867 8.22707 177.664 8.06921C177.462 7.91136 177.309 7.7165 177.206 7.48465C177.102 7.27746 177.05 7.07028 177.05 6.86309C177.05 6.53751 177.134 6.27606 177.302 6.07874C177.469 5.87648 177.716 5.68163 178.042 5.49417C177.81 5.07486 177.694 4.71475 177.694 4.41384C177.694 4.11292 177.785 3.87367 177.968 3.69608C178.155 3.51849 178.38 3.4297 178.641 3.4297C178.902 3.4297 179.124 3.53822 179.307 3.75528C179.494 3.97233 179.588 4.20912 179.588 4.46563ZM178.656 3.99206C178.399 3.99206 178.266 4.19925 178.256 4.61362C178.281 4.82574 178.352 5.03787 178.471 5.24999C178.816 5.0428 178.989 4.83808 178.989 4.63582C178.989 4.42864 178.952 4.26831 178.878 4.15485C178.814 4.04633 178.74 3.99206 178.656 3.99206ZM178.256 7.67704C178.513 7.67704 178.796 7.51918 179.107 7.20347C179.087 7.17387 179.063 7.13687 179.033 7.09247C179.004 7.04314 178.959 6.97655 178.9 6.89269C178.846 6.80389 178.762 6.68303 178.648 6.53011C178.54 6.37225 178.441 6.20699 178.352 6.03434L178.293 5.93074C178.135 6.0442 178.024 6.13053 177.96 6.18973C177.738 6.38212 177.627 6.60657 177.627 6.86309C177.627 7.11467 177.714 7.33173 177.886 7.51425C177.985 7.62278 178.108 7.67704 178.256 7.67704Z" fill="white"/>
<path d="M186.142 3.3927C186.261 3.3927 186.337 3.47903 186.372 3.65168C186.396 4.45577 186.409 5.33385 186.409 6.28592C186.409 7.23307 186.404 7.78063 186.394 7.92862C186.384 8.07661 186.352 8.18021 186.298 8.2394C186.243 8.2986 186.145 8.3282 186.002 8.3282C185.873 8.3282 185.809 8.24927 185.809 8.09141V6.41912C185.809 6.1478 185.804 5.86908 185.794 5.58297C185.785 5.29685 185.78 5.11679 185.78 5.0428C185.612 5.32891 185.39 5.5657 185.114 5.75316C184.837 5.93568 184.529 6.02694 184.189 6.02694C183.848 6.02694 183.562 5.88635 183.33 5.60516C183.321 5.90608 183.316 6.26372 183.316 6.6781C183.316 7.08754 183.318 7.51918 183.323 7.97302C183.323 8.09635 183.281 8.18761 183.197 8.2468C183.118 8.30107 183.027 8.3282 182.923 8.3282C182.79 8.3282 182.724 8.2468 182.724 8.08401C182.729 7.64004 182.731 6.93708 182.731 5.97514V3.87367C182.731 3.78981 182.758 3.70841 182.812 3.62948C182.872 3.55056 182.938 3.51109 183.012 3.51109C183.091 3.51109 183.163 3.53329 183.227 3.57769C183.291 3.61715 183.326 3.67881 183.33 3.76268C183.35 4.31024 183.439 4.71722 183.597 4.9836C183.755 5.24999 183.942 5.38318 184.159 5.38318C184.376 5.38318 184.561 5.34865 184.714 5.27958C184.872 5.20559 185 5.12173 185.099 5.028C185.203 4.93427 185.301 4.80108 185.395 4.62842C185.528 4.38177 185.656 4.07839 185.78 3.71828C185.854 3.50123 185.975 3.3927 186.142 3.3927Z" fill="white"/>
<path d="M188.338 4.87261C188.693 4.87261 188.984 5.0428 189.211 5.38318C189.443 5.72356 189.559 6.133 189.559 6.6115C189.559 7.08507 189.44 7.48958 189.204 7.82503C188.972 8.16048 188.661 8.3282 188.271 8.3282C187.887 8.3282 187.576 8.15801 187.339 7.81763C187.102 7.47232 186.984 7.09001 186.984 6.6707C186.984 6.133 187.092 5.70382 187.309 5.38318C187.541 5.0428 187.884 4.87261 188.338 4.87261ZM188.249 5.47937C188.042 5.47937 187.872 5.5879 187.739 5.80495C187.605 6.02201 187.539 6.25139 187.539 6.49311C187.539 6.86802 187.613 7.15414 187.761 7.35146C187.909 7.54878 188.076 7.64744 188.264 7.64744C188.599 7.64744 188.814 7.50192 188.908 7.21087C188.947 7.07274 188.967 6.90009 188.967 6.6929C188.967 5.88388 188.728 5.47937 188.249 5.47937Z" fill="white"/>
<path d="M190.294 8.09141L190.212 5.0872C190.212 4.99347 190.244 4.91701 190.309 4.85781C190.373 4.79861 190.437 4.76902 190.501 4.76902C190.659 4.76902 190.75 4.83561 190.775 4.9688C190.794 5.10199 190.804 5.24012 190.804 5.38318C191.071 5.03293 191.404 4.85781 191.803 4.85781C192.415 4.85781 192.721 5.55583 192.721 6.95188C192.721 7.08014 192.721 7.275 192.721 7.53645C192.721 7.79296 192.706 7.98042 192.676 8.09881C192.642 8.2468 192.536 8.3208 192.358 8.3208C192.24 8.3208 192.181 8.24187 192.181 8.08401L192.188 7.66964C192.188 7.09741 192.168 6.7077 192.129 6.50051C192.094 6.28839 192.06 6.12067 192.025 5.99734C191.941 5.73096 191.806 5.59776 191.618 5.59776C191.372 5.59776 191.199 5.68656 191.1 5.86415C190.992 6.05654 190.928 6.28346 190.908 6.54491C190.873 7.00368 190.856 7.48958 190.856 8.00262C190.856 8.10128 190.819 8.18021 190.745 8.2394C190.671 8.2986 190.582 8.3282 190.479 8.3282C190.355 8.3282 190.294 8.24927 190.294 8.09141Z" fill="white"/>
<path d="M195.127 4.85781L195.119 3.4297C195.119 3.16331 195.203 3.03012 195.371 3.03012C195.544 3.03012 195.64 3.10412 195.66 3.25211C195.669 3.31624 195.682 3.70348 195.697 4.41384C195.711 5.12419 195.734 5.79015 195.763 6.41172C195.798 7.03328 195.815 7.61291 195.815 8.15061C195.815 8.2986 195.704 8.3726 195.482 8.3726C195.334 8.3726 195.26 8.269 195.26 8.06181C195.048 8.22954 194.796 8.3134 194.505 8.3134C194.135 8.3134 193.834 8.17527 193.602 7.89902C193.376 7.62278 193.262 7.2824 193.262 6.87789C193.262 6.47338 193.343 6.096 193.506 5.74576C193.674 5.39058 193.933 5.13653 194.283 4.9836C194.5 4.88987 194.71 4.84301 194.912 4.84301C194.986 4.84301 195.058 4.84794 195.127 4.85781ZM195.164 5.87155C195.129 5.76302 195.087 5.68163 195.038 5.62736C194.989 5.56817 194.934 5.53364 194.875 5.52377C194.821 5.50897 194.754 5.50157 194.675 5.50157C194.596 5.50157 194.5 5.53117 194.387 5.59037C194.273 5.64956 194.177 5.74576 194.098 5.87895C193.94 6.14533 193.861 6.42651 193.861 6.7225C193.861 7.01355 193.918 7.2528 194.032 7.44025C194.15 7.62278 194.315 7.71404 194.527 7.71404C194.744 7.71404 194.915 7.60798 195.038 7.39586C195.161 7.18373 195.223 6.91242 195.223 6.5819C195.223 6.21193 195.203 5.97514 195.164 5.87155Z" fill="white"/>
<path d="M198.306 4.86521C198.523 4.86521 198.632 5.0502 198.632 5.42018C198.632 5.45964 198.632 5.50157 198.632 5.54597L198.617 6.06394C198.612 6.22673 198.609 6.38705 198.609 6.54491L198.72 8.21721C198.72 8.34053 198.595 8.40219 198.343 8.40219C198.328 8.40219 198.291 8.40219 198.232 8.40219C198.178 8.40219 198.138 8.38 198.114 8.3356C198.094 8.2912 198.091 8.23694 198.106 8.17281C198.126 8.10868 198.121 8.03715 198.091 7.95822C197.864 8.19994 197.564 8.3208 197.189 8.3208C196.493 8.3208 196.145 7.7831 196.145 6.7077C196.145 6.1108 196.256 5.65943 196.478 5.35358C196.705 5.04773 197.028 4.89481 197.448 4.89481C197.645 4.89481 197.842 4.92934 198.04 4.9984C198.104 4.90961 198.193 4.86521 198.306 4.86521ZM197.536 5.53857C197.255 5.53857 197.046 5.61996 196.907 5.78275C196.769 5.94554 196.7 6.24399 196.7 6.6781C196.7 7.40819 196.898 7.77323 197.292 7.77323C197.396 7.77323 197.509 7.72637 197.633 7.63264C197.761 7.53891 197.85 7.43285 197.899 7.31446C197.993 7.04808 198.04 6.75703 198.04 6.44131C198.04 6.1256 198 5.89621 197.921 5.75316C197.847 5.6101 197.719 5.53857 197.536 5.53857Z" fill="white"/>
<path d="M201.5 4.90221C201.564 4.90221 201.625 4.92441 201.685 4.9688C201.749 5.0132 201.781 5.06253 201.781 5.11679C201.781 5.25985 201.571 6.03434 201.152 7.44025C200.733 8.84617 200.422 9.83277 200.22 10.4001C200.175 10.5333 200.106 10.5999 200.012 10.5999C199.919 10.5999 199.845 10.5653 199.79 10.4963C199.736 10.4321 199.709 10.3359 199.709 10.2077C199.709 10.0794 199.79 9.77111 199.953 9.28274C200.121 8.7993 200.222 8.49099 200.257 8.3578C200.133 8.15061 199.716 7.11467 199.006 5.24999C198.996 5.22532 198.991 5.19326 198.991 5.15379C198.991 5.11433 199.021 5.06253 199.08 4.9984C199.139 4.93427 199.221 4.90221 199.324 4.90221C199.428 4.90221 199.512 4.954 199.576 5.0576C199.645 5.23519 199.758 5.54597 199.916 5.98994C200.074 6.42898 200.195 6.74716 200.279 6.94448C200.367 7.1418 200.451 7.34653 200.53 7.55865C200.599 7.32679 200.718 6.87789 200.885 6.21193C201.053 5.54103 201.149 5.15872 201.174 5.065C201.194 4.95647 201.302 4.90221 201.5 4.90221Z" fill="white"/>
<path d="M202.394 5.80495C202.394 5.5139 202.497 5.28205 202.705 5.10939C202.912 4.93674 203.151 4.85041 203.422 4.85041C203.699 4.85041 203.963 4.89974 204.214 4.9984C204.466 5.09706 204.592 5.22779 204.592 5.39058C204.592 5.47444 204.559 5.54103 204.495 5.59037C204.431 5.6397 204.374 5.66436 204.325 5.66436C204.281 5.66436 204.244 5.66436 204.214 5.66436C204.189 5.65943 204.091 5.61256 203.918 5.52377C203.75 5.43497 203.595 5.39058 203.452 5.39058C203.309 5.39058 203.186 5.42758 203.082 5.50157C202.983 5.57063 202.934 5.67423 202.934 5.81235C202.934 5.95048 202.991 6.059 203.104 6.13793C203.223 6.21686 203.427 6.28592 203.718 6.34512C204.009 6.39938 204.231 6.47831 204.384 6.5819C204.542 6.6855 204.621 6.87789 204.621 7.15907C204.621 7.56851 204.513 7.85956 204.296 8.03222C204.083 8.19994 203.824 8.2838 203.519 8.2838C203.213 8.2838 202.951 8.24187 202.734 8.15801C202.522 8.07415 202.416 7.94836 202.416 7.78063C202.416 7.58824 202.512 7.49205 202.705 7.49205C202.754 7.49205 202.863 7.52658 203.03 7.59564C203.198 7.66471 203.363 7.69924 203.526 7.69924C203.694 7.69924 203.82 7.64744 203.903 7.54385C203.992 7.43532 204.037 7.31199 204.037 7.17387C204.037 7.03574 203.98 6.93708 203.866 6.87789C203.753 6.81376 203.58 6.76196 203.348 6.7225C203.117 6.68303 202.946 6.6411 202.838 6.5967C202.542 6.47831 202.394 6.21439 202.394 5.80495Z" fill="white"/>
<path d="M128.517 21.6664C129.152 21.4342 129.763 21.3181 130.352 21.3181C130.94 21.3181 131.505 21.411 132.047 21.5968C132.604 21.7825 133.108 22.069 133.556 22.456C134.021 22.8431 134.393 23.3772 134.671 24.0584C134.95 24.7242 135.089 25.4983 135.089 26.3807C135.089 27.867 134.656 29.1211 133.789 30.1429C132.922 31.1647 131.915 31.6756 130.77 31.6756C129.64 31.6756 128.641 31.4202 127.774 30.9093C126.922 30.3829 126.497 29.81 126.497 29.1907C126.497 28.8966 126.528 28.6798 126.59 28.5405C126.667 28.3857 126.799 28.2618 126.984 28.1689C127.17 28.076 127.333 28.0296 127.472 28.0296C127.627 28.0296 127.828 28.1225 128.076 28.3083C128.339 28.4786 128.703 28.7263 129.167 29.0514C129.632 29.3765 130.166 29.5391 130.77 29.5391C131.374 29.5391 131.908 29.2372 132.372 28.6334C132.837 28.0141 133.069 27.3406 133.069 26.613C133.069 24.5229 132.132 23.4778 130.259 23.4778C129.856 23.4778 129.384 23.5165 128.842 23.594C128.316 23.6714 127.967 23.7178 127.797 23.7333C127.642 23.7488 127.426 23.6946 127.147 23.5707C126.822 23.2611 126.659 22.278 126.659 20.6214C126.659 18.9493 126.698 17.8733 126.775 17.3934C126.853 16.8979 126.984 16.6115 127.17 16.5341C127.495 16.3948 128.463 16.3251 130.073 16.3251C131.699 16.3251 132.999 16.4799 133.975 16.7896C134.284 16.9753 134.439 17.2463 134.439 17.6024C134.439 17.943 134.338 18.2217 134.137 18.4384C133.951 18.6552 133.75 18.7403 133.533 18.6939C132.248 18.4152 130.955 18.2758 129.655 18.2758C129.252 18.2758 128.85 18.2913 128.447 18.3223C128.447 18.9261 128.471 20.0408 128.517 21.6664Z" fill="white"/>
<path d="M142.889 20.8304C143.57 20.8304 143.911 21.411 143.911 22.5721C143.911 22.696 143.911 22.8276 143.911 22.9669L143.864 24.5926C143.849 25.1035 143.841 25.6066 143.841 26.1021L144.189 31.3505C144.189 31.7376 143.794 31.9311 143.005 31.9311C142.958 31.9311 142.842 31.9311 142.657 31.9311C142.486 31.9311 142.362 31.8614 142.285 31.7221C142.223 31.5827 142.215 31.4124 142.262 31.2112C142.324 31.0099 142.308 30.7854 142.215 30.5377C141.503 31.2963 140.559 31.6756 139.382 31.6756C137.199 31.6756 136.108 29.9881 136.108 26.613C136.108 24.7396 136.456 23.323 137.153 22.3631C137.865 21.4032 138.879 20.9233 140.195 20.9233C140.814 20.9233 141.433 21.0317 142.053 21.2484C142.254 20.9697 142.533 20.8304 142.889 20.8304ZM140.474 22.9437C139.591 22.9437 138.933 23.1992 138.5 23.7101C138.066 24.221 137.849 25.1577 137.849 26.5201C137.849 28.8114 138.469 29.9571 139.707 29.9571C140.032 29.9571 140.388 29.81 140.775 29.5159C141.178 29.2217 141.457 28.8888 141.611 28.5173C141.906 27.6812 142.053 26.7678 142.053 25.7769C142.053 24.7861 141.929 24.0662 141.681 23.6172C141.449 23.1682 141.046 22.9437 140.474 22.9437Z" fill="white"/>
<path d="M146.827 31.6989C146.425 31.6989 146.185 31.4744 146.108 31.0254C146.108 27.898 145.922 25.1112 145.55 22.665C145.55 22.3554 145.659 22.0767 145.875 21.829C146.108 21.5813 146.363 21.4574 146.642 21.4574C146.936 21.4574 147.153 21.62 147.292 21.9451C147.865 21.1865 148.631 20.8072 149.591 20.8072C150.814 20.8072 151.759 21.3955 152.424 22.5721C153.198 21.4574 154.22 20.9001 155.49 20.9001C156.775 20.9001 157.735 21.411 158.369 22.4328C158.787 23.0676 159.082 23.9036 159.252 24.9409C159.422 25.9782 159.507 27.449 159.507 29.3533C159.507 30.0965 159.43 30.677 159.275 31.095C159.12 31.4976 158.795 31.6989 158.3 31.6989C157.897 31.6989 157.696 31.4434 157.696 30.9325L157.766 28.0296C157.766 24.5461 156.86 22.8044 155.048 22.8044C154.476 22.8044 154.073 23.0056 153.841 23.4082C153.578 23.8881 153.423 24.3913 153.376 24.9177C153.314 25.8466 153.284 26.6904 153.284 27.449V30.8164C153.284 31.0641 153.16 31.2731 152.912 31.4434C152.664 31.6137 152.409 31.6989 152.146 31.6989C151.805 31.6989 151.588 31.4744 151.495 31.0254L151.565 26.2182C151.565 24.5151 151.279 23.4546 150.706 23.0366C150.427 22.8353 150.001 22.7347 149.428 22.7347C148.871 22.7347 148.453 22.9437 148.174 23.3617C147.911 23.7797 147.78 24.4532 147.78 25.3821L147.919 29.7017C147.919 31.0331 147.555 31.6989 146.827 31.6989Z" fill="white"/>
<path d="M163.936 27.1007L162.008 27.1471C161.791 27.1471 161.606 27.0697 161.451 26.9149C161.311 26.7601 161.242 26.5433 161.242 26.2646C161.242 25.9705 161.335 25.7305 161.52 25.5447C161.706 25.3589 161.969 25.266 162.31 25.266H166.931C167.411 25.266 167.799 25.266 168.093 25.266C168.666 25.297 168.952 25.5911 168.952 26.1485C168.952 26.4117 168.859 26.6439 168.673 26.8452C168.503 27.031 168.247 27.1239 167.907 27.1239L163.936 27.1007Z" fill="white"/>
<path d="M174.858 18.1133C173.944 18.1133 173.093 18.5081 172.303 19.2977C172.086 19.4525 171.893 19.5299 171.722 19.5299C171.552 19.5299 171.405 19.5144 171.281 19.4834C170.925 19.3751 170.747 19.1274 170.747 18.7403C170.747 18.1055 171.15 17.5482 171.955 17.0682C172.76 16.5883 173.712 16.3483 174.811 16.3483C175.91 16.3483 176.824 16.6425 177.551 17.2308C178.295 17.8036 178.666 18.5545 178.666 19.4834C178.666 20.4124 178.558 21.1865 178.341 21.8058C178.14 22.4251 177.691 22.936 176.994 23.3385C178.635 23.9578 179.456 25.0725 179.456 26.6826C179.456 28.0451 179.045 29.2217 178.225 30.2126C177.404 31.1879 176.398 31.6756 175.206 31.6756C174.029 31.6756 172.992 31.397 172.094 30.8396C171.196 30.2668 170.747 29.6242 170.747 28.9121C170.747 28.7727 170.824 28.6102 170.979 28.4244C171.134 28.2386 171.359 28.1457 171.653 28.1457C171.947 28.1457 172.264 28.285 172.605 28.5637C172.945 28.8269 173.333 29.0979 173.766 29.3765C174.2 29.6397 174.687 29.7713 175.229 29.7713C176.777 29.7713 177.551 28.8037 177.551 26.8684C177.551 26.1253 177.28 25.5292 176.739 25.0802C176.212 24.6158 175.461 24.3758 174.486 24.3603C174.285 24.3448 174.13 24.3294 174.021 24.3139C173.929 24.2984 173.797 24.2287 173.627 24.1049C173.472 23.981 173.394 23.7875 173.394 23.5243C173.394 22.9669 173.704 22.665 174.323 22.6186C174.943 22.5721 175.492 22.2935 175.972 21.7825C176.468 21.2716 176.715 20.6291 176.715 19.855C176.715 19.4215 176.53 19.0267 176.158 18.6706C175.786 18.2991 175.353 18.1133 174.858 18.1133Z" fill="white"/>
<path d="M184.756 31.6524C184.23 31.6524 183.742 31.4744 183.293 31.1183C183.293 31.1183 183.193 31.0331 182.991 30.8628V37.8298C182.898 38.1394 182.736 38.3949 182.504 38.5961C182.271 38.8129 182.024 38.9213 181.76 38.9213C181.358 38.9213 181.157 38.6503 181.157 38.1085V21.9219C181.25 21.5193 181.358 21.2329 181.482 21.0626C181.621 20.8923 181.83 20.8072 182.109 20.8072C182.403 20.8072 182.589 20.8768 182.666 21.0162C182.759 21.14 182.867 21.4961 182.991 22.0844C183.053 21.7748 183.301 21.4884 183.734 21.2252C184.168 20.962 184.748 20.8304 185.476 20.8304C187.055 20.8304 188.178 21.4032 188.843 22.5489C189.509 23.6946 189.842 25.0493 189.842 26.613C189.842 28.1612 189.385 29.392 188.472 30.3055C187.574 31.2034 186.335 31.6524 184.756 31.6524ZM182.991 24.6854V29.005C183.084 29.0514 183.193 29.1288 183.316 29.2372C183.765 29.6397 184.253 29.841 184.779 29.841C186.916 29.841 187.984 28.7418 187.984 26.5433C187.984 24.67 187.504 23.4856 186.544 22.9902C186.142 22.7734 185.646 22.665 185.058 22.665C184.485 22.7424 183.998 22.9979 183.595 23.4314C183.193 23.8494 182.991 24.2674 182.991 24.6854Z" fill="white"/>
<path d="M192.344 31.6989C191.942 31.6989 191.702 31.4744 191.624 31.0254C191.624 27.898 191.438 25.1112 191.067 22.665C191.067 22.3554 191.175 22.0767 191.392 21.829C191.624 21.5813 191.88 21.4574 192.158 21.4574C192.452 21.4574 192.669 21.62 192.809 21.9451C193.381 21.1865 194.148 20.8072 195.108 20.8072C196.331 20.8072 197.275 21.3955 197.941 22.5721C198.715 21.4574 199.737 20.9001 201.006 20.9001C202.291 20.9001 203.251 21.411 203.886 22.4328C204.304 23.0676 204.598 23.9036 204.768 24.9409C204.939 25.9782 205.024 27.449 205.024 29.3533C205.024 30.0965 204.947 30.677 204.792 31.095C204.637 31.4976 204.312 31.6989 203.816 31.6989C203.414 31.6989 203.212 31.4434 203.212 30.9325L203.282 28.0296C203.282 24.5461 202.376 22.8044 200.565 22.8044C199.992 22.8044 199.59 23.0056 199.357 23.4082C199.094 23.8881 198.939 24.3913 198.893 24.9177C198.831 25.8466 198.8 26.6904 198.8 27.449V30.8164C198.8 31.0641 198.676 31.2731 198.429 31.4434C198.181 31.6137 197.925 31.6989 197.662 31.6989C197.322 31.6989 197.105 31.4744 197.012 31.0254L197.082 26.2182C197.082 24.5151 196.795 23.4546 196.222 23.0366C195.944 22.8353 195.518 22.7347 194.945 22.7347C194.388 22.7347 193.97 22.9437 193.691 23.3617C193.428 23.7797 193.296 24.4532 193.296 25.3821L193.436 29.7017C193.436 31.0331 193.072 31.6989 192.344 31.6989Z" fill="white"/>
</svg>
