<svg width="77" height="124" viewBox="0 0 77 124" fill="none" xmlns="http://www.w3.org/2000/svg">
<path fill-rule="evenodd" clip-rule="evenodd" d="M68.8804 0.0667444C68.4817 0.129606 67.4698 0.556626 66.6184 1.03346L65.0657 1.87457L64.4312 1.29865C62.3411 -0.624357 60.4894 2.34771 61.1583 6.56385C61.2895 7.36234 61.5967 8.31974 61.9574 8.98097L62.5266 10.0857L60.4034 14.7635C53.7537 29.451 49.0321 39.6644 48.8286 39.7713C48.7038 39.8368 47.8744 31.5186 47.8301 29.7148C47.7321 25.9781 48.155 22.6172 49.2211 18.3525L49.7123 16.4349L51.2755 16.1791C53.7284 15.7658 55.3589 14.6743 56.5385 12.6631C57.4167 11.1623 57.5228 9.8829 56.8734 8.75322C56.6256 8.33032 56.4284 8.18671 55.712 7.9807C55.2409 7.83438 54.7614 7.76786 54.6154 7.8488C54.2673 8.03172 53.9459 7.89893 54.033 7.6185C54.1901 7.1127 53.9605 5.33919 53.682 4.80248C53.4586 4.3542 53.2359 4.18624 52.7147 4.02435C52.1333 3.84379 51.9333 3.88601 51.1621 4.3164C50.435 4.71107 50.1036 5.05288 49.3866 6.08756C48.6986 7.08189 48.4712 7.31871 48.2994 7.19944C47.4838 6.53433 46.9681 6.31926 46.3845 6.42903C44.4722 6.81802 44.0931 9.64891 45.6004 12.2804C46.2394 13.3903 47.7063 15.0374 48.2125 15.1946C48.3077 15.2242 48.349 15.3743 48.3055 15.5145C48.2723 15.6744 48.0675 16.4399 47.8735 17.2417C46.6228 22.2069 46.2062 25.2293 46.2753 28.9351C46.3047 30.1852 46.2883 31.2289 46.264 31.2542C46.2195 31.2734 45.8709 30.2371 45.4655 28.9416C43.9989 24.2856 41.2646 17.2702 39.9556 14.832C39.0625 13.16 38.5599 12.7788 37.7536 13.1983C37.0757 13.5588 36.9497 13.9644 36.8505 16.0531C36.5131 23.4214 40.0301 30.8008 46.3051 35.8293C46.7626 36.1965 46.8087 36.4194 47.1612 39.3897C47.4945 42.3155 47.5073 42.6105 47.1871 43.2524C45.0666 47.7443 42.4318 52.7244 39.6878 57.402C37.8515 60.5545 36.5193 62.8973 35.2003 65.3044C34.6682 66.2923 34.6272 66.318 34.6041 65.844C34.5333 65.0808 34.8467 62.2845 35.2224 60.4025C35.6497 58.2126 36.6748 54.8411 38.4547 49.7822C40.8609 42.919 41.1756 41.5342 40.4324 41.0783C39.5783 40.555 38.8181 41.1096 37.0162 43.5316C32.8212 49.1473 31.178 55.1106 31.5211 63.2782C31.6315 65.8603 32.0689 69.9551 32.277 70.3821C32.4452 70.7253 32.4214 70.8552 31.839 72.0581C29.251 77.4536 27.6566 81.9331 24.2343 93.3242C22.3037 99.7529 21.2949 102.948 21.2389 102.81C21.0556 102.462 19.7736 97.1058 19.3979 95.0949C19.2099 94.0371 18.9521 92.4251 18.8398 91.4952L18.637 89.8125L19.8809 87.8596C21.9653 84.5809 22.444 83.8181 23.6184 81.7175C25.7837 77.8599 26.259 76.7008 27.7625 71.9129C29.1093 67.5761 29.142 67.471 28.8988 67.033C28.741 66.7094 28.5608 66.5821 28.2351 66.5688C27.876 66.5396 27.5122 66.844 26.252 68.1767C22.7606 71.8804 20.2861 76.3447 18.9155 81.3774C18.6184 82.4932 18.352 83.4042 18.3219 83.3949C18.2116 83.3606 18.3027 79.139 18.5552 70.4869C18.6034 68.8985 18.6346 67.2938 18.6182 66.9044C18.5915 66.1054 19.0187 65.1015 20.7642 62.047C22.9138 58.2396 23.2778 57.3862 24.9844 51.9971L26.576 46.9785L27.4603 46.9621C29.7048 46.9014 32.1341 46.069 33.3591 44.9559C35.1818 43.2982 35.3287 41.1089 33.7007 39.8567C32.8099 39.1682 32.6893 38.955 32.6639 37.8159C32.6251 36.5959 32.1512 35.5208 31.5548 35.3356C30.5925 35.0367 29.7912 35.4578 28.1389 37.1685C27.7069 37.6218 27.2994 37.9784 27.2693 37.9691C27.2242 37.9551 26.8827 37.6569 26.5251 37.3042C25.4373 36.2416 24.5164 36.1807 23.6593 37.1006C22.2907 38.5699 22.3262 41.9414 23.7626 44.5893C24.0269 45.0832 24.3974 45.6595 24.5879 45.8779C25.0666 46.389 24.9754 46.7889 23.5575 51.4606C22.3144 55.5167 21.7147 57.0051 20.0006 60.2065C18.5321 62.9352 18.5912 62.9042 18.4168 60.9885C17.899 55.4358 16.4816 50.7455 13.3826 44.3915C12.4477 42.4648 12.2418 41.9068 12.4159 41.7357C12.779 41.3982 14.1536 38.8655 14.4024 38.0642C14.9047 36.4467 14.8511 34.6729 14.221 33.4285C13.3365 31.6053 12.0047 31.3455 10.3799 32.7023C9.94384 33.0446 9.56623 33.3227 9.50609 33.304C9.44595 33.2853 9.03667 32.9221 8.61945 32.496C7.56205 31.4593 6.8233 31.0596 6.14916 31.1248C4.97636 31.2383 4.46603 31.9968 4.20687 34.0522C4.0194 35.4875 3.91052 35.6789 3.35453 35.5227C3.24426 35.4884 2.84503 35.6061 2.44685 35.7734C1.84507 36.0477 1.71511 36.1831 1.53003 36.779C1.15521 37.9859 2.11445 39.4095 4.22598 40.7681C6.20613 42.0364 8.16545 42.6285 10.3393 42.6008C10.6496 42.5928 10.9294 43.0366 12.0216 45.3415C15.2892 52.1437 16.602 56.9056 16.9201 63.1545C17.0311 65.292 17.0346 70.7838 16.9032 70.853C16.8835 70.8633 16.6383 70.1667 16.3363 69.2987C14.6006 64.076 12.6036 60.013 6.6349 49.4839C4.81145 46.26 4.1603 45.6845 3.24689 46.4494C2.74397 46.8478 2.697 47.7776 3.05292 49.9583C4.20703 56.8948 7.69422 63.6443 13.4103 69.9937C14.5051 71.2287 15.5747 72.4559 15.7465 72.7344C15.9349 73.0126 16.261 73.2896 16.4665 73.3534C16.6871 73.4219 16.848 73.5762 16.8651 73.6803C16.861 73.7998 16.8164 75.3235 16.7664 77.0595C16.6645 80.7672 16.7113 85.9431 16.8855 87.7709C16.9505 88.4994 16.9572 89.38 16.8951 89.7395C16.8432 90.1188 16.888 90.5939 17.004 90.8221C17.1115 91.0422 17.3502 92.22 17.5286 93.4504C17.9242 96.0167 18.4524 98.421 19.5408 102.614C20.4377 106.06 20.5183 105.465 18.5448 110.156C17.8188 111.875 17.1948 113.388 17.1606 113.499C17.0346 113.904 16.8996 113.401 16.7594 112.012C16.2477 106.67 15.0004 100.034 13.6823 95.6604C12.2593 90.8641 10.936 87.7462 7.5486 81.1704C6.03152 78.2338 4.33414 74.7635 3.78362 73.4395C2.53476 70.471 2.09188 70.0039 1.17669 70.6147C0.759316 70.8969 0.670156 71.0778 0.472459 71.9445C-0.072705 74.5315 -0.157559 79.6886 0.27788 83.4534C1.06126 90.2033 3.92019 97.3124 9.19536 105.611C10.9425 108.356 12.0821 110.313 13.7369 113.408L15.5383 116.773L14.7952 118.228C14.387 119.029 13.6973 120.259 13.2771 120.957L12.4973 122.247L12.7151 122.661C13.0359 123.238 13.5495 123.194 14.0801 122.53C14.611 121.882 16.1727 119.012 17.634 116.023L18.7119 113.827L19.7853 113.644C21.4196 113.372 24.6634 112.04 28.428 110.058C33.9008 107.211 39.7414 103.374 46.8927 97.9358C50.208 95.4183 53.112 93.3935 55.9887 91.58C59.0931 89.6175 59.4651 89.3047 59.3751 88.6563C59.2574 87.7083 57.9756 87.4475 54.4327 87.654C46.1119 88.1338 39.3293 91.057 32.0443 97.316C30.0532 99.0202 25.6146 103.545 22.7935 106.754C21.7865 107.89 20.9552 108.78 20.9194 108.736C20.8987 108.696 21.5047 106.957 22.2682 104.888C23.184 102.4 24.3167 98.8584 25.6017 94.42L27.5796 87.715L28.5078 86.7788C30.025 85.2733 32.5562 83.281 33.4878 82.9003C34.1046 82.6307 34.6441 82.5566 35.575 82.6206C40.6019 82.9792 47.1506 82.6849 53.7139 81.8131C58.7443 81.1516 59.9007 80.8079 59.8993 79.9454C59.8981 79.1708 59.4012 78.8243 57.3454 78.2243C53.2662 76.9904 48.7882 76.7582 44.1502 77.5362C43.0617 77.7143 41.718 77.9888 41.1504 78.153C40.5859 78.3072 40.1262 78.3895 40.1418 78.3395C40.1558 78.2944 41.3004 77.5462 42.6933 76.6884C45.8329 74.7368 47.7072 73.4081 50.1814 71.3871L52.0988 69.8136L53.3235 70.4356C54.7948 71.1835 57.1635 71.8203 58.535 71.8454C60.8394 71.8747 63.0482 70.9738 64.4308 69.4594C65.3136 68.4926 65.6919 67.6107 65.5892 66.6674C65.5447 66.0496 64.9761 65.0494 64.4477 64.6272C64.0915 64.3409 64.0761 64.3196 64.7161 63.0908C65.3223 61.9173 65.3693 60.9875 64.8788 60.2312C64.2315 59.201 62.5845 59.019 59.9492 59.6831C58.6412 60.0017 58.2814 59.9394 58.0019 59.3529C57.2196 57.6604 55.5091 57.6123 54.027 59.2166C52.3667 61.0236 51.0352 64.7448 51.0958 67.487L51.1088 68.5069L50.5919 68.9503C48.3331 70.9504 43.8292 74.2517 41.6838 75.4799C40.8426 75.9764 36.2997 78.8374 34.9018 79.7815C34.1652 80.2775 33.289 80.7632 32.9759 80.869C32.6511 80.9769 32.3585 81.1935 32.2994 81.3838C32.2419 81.569 32.0627 81.8099 31.8985 81.8962C31.7296 81.9975 30.9098 82.6379 30.0593 83.3237L28.5199 84.5643L29.313 82.4002C31.8729 75.2719 35.0464 68.6636 39.9207 60.2942C41.1543 58.1624 42.4719 55.9195 42.8156 55.2906C43.4758 54.1558 43.5967 54.067 45.0993 53.2104C48.3349 51.4094 49.1714 50.928 49.7982 50.5022C50.6036 49.9616 50.7645 49.9567 55.4794 50.0812C59.1898 50.1847 61.9957 49.7493 67.0649 48.2377C72.2235 46.7209 72.482 46.6145 72.667 46.0186C72.8816 45.3275 72.5033 44.9355 71.2002 44.5308C67.7418 43.4568 63.2547 43.5896 58.7393 44.9108C57.6768 45.2177 56.7084 45.5045 56.5799 45.547C56.466 45.5775 57.2378 44.7026 58.305 43.5844C60.0354 41.7993 62.1267 39.3298 64.0814 36.7522L64.6906 35.9585L66.1541 36.4131C68.5599 37.1602 70.4339 37.0009 72.4402 35.867C73.6344 35.1891 74.3596 34.4644 74.8555 33.416C75.4504 32.1731 75.0005 30.8968 73.7315 30.2227L73.2398 29.9657L73.7062 28.8531C74.4571 27.0547 74.2023 25.8225 72.9894 25.4458C72.2326 25.2108 71.3389 25.4164 69.475 26.2157C67.8598 26.9221 67.8551 26.9371 67.662 26.5148C67.1995 25.509 66.0653 24.9317 65.1678 25.2734C63.7764 25.8077 62.6395 28.0353 62.6164 30.2685C62.6154 31.4926 62.9803 33.3081 63.4319 34.1897L63.6868 34.7136L61.6868 37.2607C59.3439 40.2394 55.7348 44.1098 53.718 45.7731C51.959 47.2256 48.6807 49.4471 46.5299 50.657L44.8779 51.588L45.6919 50.0287C48.1537 45.2694 51.9567 37.3413 55.6392 29.2708C56.6911 26.9455 57.6463 24.9139 57.7292 24.753C57.9317 24.437 58.202 24.3453 61.8932 23.4489C66.3154 22.3569 68.1745 21.6439 73.458 18.947C76.1873 17.5378 76.4902 17.3409 76.6411 16.8552C76.9397 15.8936 76.2264 15.5184 74.1759 15.5734C69.9918 15.6687 65.0536 17.2538 61.1782 19.7347L59.4965 20.8321L59.8359 20.0755C60.0163 19.6538 60.9666 17.5494 61.929 15.3883C62.8914 13.2273 63.7463 11.3239 63.8459 11.1626C63.9688 10.9262 64.2736 10.9001 65.3796 11.002C66.1345 11.0662 67.2098 11.0542 67.7491 10.9637C69.8762 10.6085 71.9712 9.18904 72.8479 7.534C73.2568 6.76596 73.2993 6.576 73.1904 5.97113C73.0379 5.02876 72.6032 4.48195 71.6501 4.06518L70.8673 3.70128L70.9195 2.54243C71.0335 0.688904 70.3118 -0.17214 68.8536 0.0284958L68.8804 0.0667444ZM69.3418 2.84566C69.2774 4.76942 69.3431 4.89412 70.8082 5.5029C71.7059 5.88601 71.7209 5.89068 71.6108 6.42205C71.3836 7.54301 69.3172 9.13605 67.789 9.40266C67.0051 9.53807 65.5201 9.4887 64.5587 9.31093C63.9089 9.19148 63.8126 9.11216 63.3665 8.33667C63.0633 7.80875 62.7814 6.94697 62.6483 6.13698C62.4758 5.02915 62.4915 4.58928 62.7533 3.53396C62.9378 2.83354 63.1286 2.27231 63.2038 2.29566C63.284 2.32057 63.4745 2.53895 63.6421 2.7777C63.8186 3.04116 64.1857 3.29244 64.5365 3.4014C65.1029 3.57729 65.2925 3.51537 67.0797 2.53843C68.1548 1.96084 69.1073 1.54838 69.2082 1.61261C69.3045 1.69192 69.3776 2.25276 69.3418 2.84566ZM52.4816 7.09225C52.4871 7.83524 52.6033 8.62905 52.7347 8.87845C52.9996 9.40551 53.6719 9.64724 54.4706 9.49993C55.6942 9.27594 56.0088 9.87332 55.435 11.3313C54.7531 13.014 53.0833 14.2854 51.0819 14.6247C50.0876 14.7827 50.0328 14.7821 49.6248 14.3973C49.4027 14.1746 48.9095 13.7634 48.5285 13.4858C47.0646 12.3778 46.0321 10.1463 46.3163 8.73557C46.4661 8.04084 46.5258 7.95502 46.7764 8.03285C46.9421 8.1008 47.2133 8.28934 47.3949 8.48302C47.7836 8.89475 48.4644 9.14462 48.9404 9.04536C49.1801 8.99901 49.5956 8.546 50.1446 7.73367C51.2512 6.11713 51.8863 5.45227 52.2135 5.6198C52.3796 5.70433 52.4632 6.21351 52.4847 7.08225L52.4816 7.09225ZM72.0148 17.985C67.5076 20.1818 64.6554 21.2617 61.4018 21.97C60.214 22.238 60.4568 22.0224 62.7801 20.6464C65.7118 18.9213 68.2996 17.9678 71.5754 17.4533C72.5731 17.3019 73.4172 17.1852 73.4674 17.2008C73.5078 17.2298 72.8511 17.5749 72.0132 17.9901L72.0148 17.985ZM40.2253 19.2863C41.8004 23.0975 43.9424 29.1711 44.6889 31.9343L44.8434 32.4985L44.3335 31.9283C41.3121 28.5629 39.4111 24.6507 38.7144 20.3819C38.4679 18.9107 38.3297 16.029 38.4619 15.6032C38.5547 15.3575 38.9313 16.1443 40.2302 19.2877L40.2253 19.2863ZM72.1417 28.5614C71.5305 30.3703 71.6034 30.684 72.7411 31.5151C73.5011 32.0586 73.5564 32.1636 73.46 32.6333C73.3055 33.3431 72.2041 34.4122 71.1769 34.818C69.5359 35.4834 68.0015 35.4516 66.0266 34.7504C65.3242 34.4993 65.2091 34.3922 64.8538 33.59C63.786 31.2596 64.1193 27.9039 65.53 26.865C65.8238 26.6268 65.8476 26.6561 66.305 27.4132C67.122 28.7815 67.6418 28.8771 69.6289 27.9293C71.3875 27.0973 71.9907 26.8892 72.3466 26.9998C72.6122 27.0823 72.6131 27.2034 72.1369 28.5599L72.1417 28.5614ZM69.4628 45.8935C69.1438 46.036 64.26 47.4459 62.9919 47.7604C60.4601 48.3743 56.4687 48.7161 54.6859 48.4755L54.0352 48.3942L54.8425 48.0244C58.987 46.1104 63.9095 45.1243 67.6358 45.4414C68.8914 45.5568 69.7239 45.7604 69.4546 45.9019L69.4628 45.8935ZM31.1339 38.2948C31.2555 39.7437 31.3926 40.0279 32.3338 40.7485C33.223 41.442 33.4019 41.8215 33.1966 42.4826C32.8212 43.7442 31.0506 44.88 28.9892 45.2007C27.047 45.509 26.3209 45.4758 25.8867 45.0334C25.4074 44.5771 24.4627 42.576 24.3153 41.7231C24.1262 40.6156 24.2293 39.1157 24.505 38.5643C24.8294 37.9622 25.121 38.0143 25.8216 38.8194C26.4081 39.4793 27.0946 39.7639 27.7127 39.5605C27.9371 39.4929 28.4891 39.0603 28.9196 38.612C30.1108 37.3951 30.8603 36.8043 30.9571 36.988C31.014 37.088 31.0878 37.682 31.1372 38.3013L31.1339 38.2948ZM12.9181 34.2904C13.2501 35.1677 13.2299 36.3474 12.8629 37.5293C12.487 38.6865 11.239 40.918 10.8904 40.9964C9.7734 41.3194 6.91761 40.6412 5.38577 39.6987C4.29087 39.0127 3.13665 37.9515 3.0482 37.5287C2.99098 37.2529 3.10073 37.1826 3.69509 37.1091C5.20328 36.9241 5.48518 36.512 5.81747 34.0619C6.03394 32.427 6.13817 32.4099 7.6605 33.7722C9.1916 35.1592 9.71191 35.2714 10.7099 34.4996C11.0725 34.2169 11.5298 33.8592 11.7339 33.6975C12.2456 33.3238 12.6514 33.5212 12.9281 34.2935L12.9181 34.2904ZM37.7122 47.0201C35.8627 52.2496 33.5138 60.0962 33.3067 61.7187C33.2184 62.4985 33.1023 63.1378 33.0779 63.1631C32.9991 63.2045 33.0084 60.6266 33.0904 58.9116C33.2928 54.7739 34.661 50.1912 36.7008 46.8438C37.5158 45.4936 38.6281 43.9117 38.7183 43.9397C38.7483 43.9491 38.2996 45.341 37.7122 47.0201ZM63.5686 61.815C63.5002 62.0353 63.2446 62.5929 63.0031 63.034C62.4068 64.1227 62.4769 64.9408 63.2087 65.6457C63.9644 66.38 64.1066 66.7536 63.9076 67.3946C63.3757 69.1072 60.8806 70.364 58.2504 70.2335C56.4993 70.1564 53.0789 68.8361 52.7481 68.0964C52.5139 67.6119 52.797 65.4265 53.2853 63.8541C53.9929 61.5756 55.3565 59.627 56.1719 59.7264C56.3431 59.7412 56.6807 60.0876 56.9135 60.5058C57.5618 61.5857 58.1375 61.7315 60.1136 61.2965C63.0382 60.6563 63.8905 60.7784 63.5686 61.815ZM8.13416 55.4656C10.5884 59.8792 12.3209 63.3604 13.5041 66.3634C14.3763 68.5452 14.4884 68.9095 14.2217 68.6179C10.2473 64.2154 7.11538 58.8171 5.6164 53.8051C5.15972 52.2851 4.511 49.437 4.57474 49.2317C4.59341 49.1716 4.89363 49.6382 5.25365 50.2662C5.59363 50.8879 6.89592 53.2416 8.13416 55.4656ZM24.6941 76.0047C23.9328 77.7835 21.7799 81.8315 20.4421 83.9803C19.6857 85.1949 19.637 85.2457 19.6776 84.7257C19.7045 84.4266 20.123 82.8489 20.6254 81.2314C21.9271 77.0399 23.4785 73.991 25.6916 71.2355L26.6266 70.0652L26.0138 72.1975C25.6831 73.3686 25.0864 75.0778 24.6941 76.0047ZM55.5095 79.996C54.0664 80.2013 53.6128 80.2636 51.464 80.5296C47.0233 81.0614 37.6907 81.4191 37.4988 81.0465C37.4331 80.9217 40.1248 80.0226 41.7613 79.6194C46.5237 78.4408 52.3911 78.4291 56.2467 79.5496L57.0333 79.7774L55.5041 79.9943L55.5095 79.996ZM56.2183 89.5342C53.0824 91.4211 51.5168 92.5163 43.8157 98.1851C42.1661 99.3915 40.53 100.607 40.1617 100.855C39.8085 101.108 39.0181 101.653 38.4226 102.067C33.7733 105.323 25.9578 109.732 22.3188 111.134C21.3622 111.506 20.5528 111.777 20.5374 111.755C20.496 111.677 25.0327 106.606 27.4475 104.051C36.9085 93.9538 44.941 89.6778 55.1711 89.2592C56.6506 89.2025 56.7458 89.2321 56.2226 89.5364L56.2183 89.5342ZM2.84471 75.3304C3.25608 76.2708 4.65457 79.0936 5.96918 81.6379C9.6598 88.8296 11.3173 92.9244 12.7357 98.4609C13.6012 101.832 14.6959 108.075 15.0601 111.839L15.1246 112.463L14.8617 112.036C14.7091 111.802 14.1968 110.956 13.7466 110.141C13.2898 109.329 11.9071 107.022 10.6818 105.022C6.49814 98.2315 4.45608 93.9951 3.11418 89.2737C1.79261 84.6462 1.35477 79.898 1.75123 74.9585C1.81065 74.1478 1.87873 73.4331 1.89896 73.368C1.93939 73.2378 1.90828 73.1787 2.83961 75.3294L2.84471 75.3304Z" fill="#173B71"/>
</svg>
