<svg width="302" height="126" viewBox="0 0 302 126" fill="none" xmlns="http://www.w3.org/2000/svg">
<path d="M291.972 41.2676L288.718 38.6324L285.375 42.9804C284.906 43.5707 284.653 43.8681 284.613 43.8726L290.365 48.2762C290.947 48.845 291.047 49.3698 290.665 49.8508C289.936 50.769 289.146 50.8898 288.293 50.2132L281.814 45.1782C281.267 44.7445 281.093 44.2679 281.291 43.7484C281.49 43.229 281.867 42.6194 282.422 41.9198L286.742 36.4761C286.579 36.0975 286.628 35.7443 286.888 35.4164C287.113 35.1321 287.442 34.9652 287.873 34.9156C289.161 33.1583 290.36 31.58 291.47 30.1808C292.112 29.3719 292.934 29.3469 293.935 30.1057L294.853 30.8344L300.514 35.4868L300.546 35.5128C301.159 36.1773 301.249 36.7828 300.815 37.3294C300.486 37.7448 300.12 37.9358 299.719 37.9025C298.908 37.7575 297.42 36.8263 295.255 35.1087C294.468 34.4842 293.686 33.8095 292.907 33.0846C291.276 35.1397 290.411 36.2524 290.311 36.4228C290.862 36.8957 292.526 38.2338 295.303 40.4371C295.911 41.0624 296.007 41.6374 295.591 42.1621C295.382 42.4244 295.074 42.5891 294.664 42.6561C294.255 42.7231 293.901 42.6744 293.604 42.5099C293.495 42.4231 293.312 42.2953 293.054 42.1263C292.813 41.9355 292.452 41.6492 291.972 41.2676Z" fill="#8B5937"/>
<path d="M280.658 33.2248C280.302 33.3432 279.942 33.2989 279.578 33.092L275.066 30.5256C273.796 32.7576 272.688 34.7919 271.739 36.6285C271.091 37.7688 270.391 38.125 269.638 37.6973C268.886 37.2696 268.712 36.5603 269.115 35.5694C269.232 35.2507 269.773 34.2422 270.739 32.544L274.009 26.7943C275.32 24.4895 276.08 23.124 276.291 22.6978C275.701 22.2663 275.648 21.626 276.131 20.7769C276.241 20.5828 276.489 20.4023 276.873 20.2353C277.371 20.037 277.765 20.0206 278.056 20.1862C278.396 20.3793 278.921 20.7262 279.632 21.2267C280.391 21.7548 282.178 22.8191 284.992 24.4196C286.399 25.2199 286.882 26.0082 286.44 26.7845C286.095 27.391 285.701 27.6324 285.258 27.5087C284.835 27.4611 284.503 27.3683 284.26 27.2303C283.963 27.1894 283.195 26.8171 281.958 26.1134C281.109 25.6305 280.025 24.9663 278.708 24.1209L276.473 28.051L281.204 30.7416C281.446 30.8796 281.596 31.125 281.652 31.478C281.732 31.8448 281.676 32.198 281.483 32.5377C281.29 32.8773 281.015 33.1063 280.658 33.2248Z" fill="#8B5937"/>
<path d="M257.142 24.3255C255.363 26.824 254.187 28.6518 253.614 29.809C253.269 30.4256 252.677 30.58 251.839 30.2723C251.026 29.9743 250.745 29.4846 250.995 28.8034C251.572 27.2313 253.486 24.366 256.736 20.2075C258.124 18.3684 259.548 16.8393 261.006 15.6204C262.347 14.4774 263.423 14.0549 264.236 14.353C264.655 14.5068 264.93 14.8903 265.062 15.5035C265.17 16.0189 265.315 17.3654 265.497 19.5429C265.67 21.7467 265.677 23.8749 265.518 25.9274C265.372 27.8656 265.09 30.4972 264.672 33.8223C264.557 34.1368 264.343 34.3555 264.03 34.4786C263.717 34.6016 263.391 34.6007 263.05 34.4757C262.185 34.1584 261.796 33.5993 261.882 32.7984L262.482 26.9093C260.202 26.0728 258.423 25.2115 257.142 24.3255ZM262.78 24.0309C262.961 21.8377 262.964 19.8026 262.791 17.9255C261.397 19.0492 260.089 20.4272 258.866 22.0593C259.903 22.7968 261.208 23.454 262.78 24.0309Z" fill="#8B5937"/>
<path d="M248.962 12.8271C248.522 13.0928 248.095 13.1911 247.682 13.1219L244.407 12.1487C239.948 11.4016 237.344 13.2576 236.597 17.7168C236.219 19.9739 236.594 21.8761 237.721 23.4233C238.266 24.2221 238.897 24.6815 239.613 24.8014C240.301 24.9167 241.606 24.81 243.529 24.4813C245.452 24.1526 246.468 23.9974 246.578 24.0159C247.321 24.1404 247.635 24.5467 247.52 25.2349C247.423 25.8129 247.024 26.2553 246.321 26.5622C242.609 27.4399 239.995 27.752 238.482 27.4983C237.546 27.3415 236.674 26.8842 235.867 26.1265C235.06 25.3687 234.476 24.4643 234.115 23.4133C233.359 21.3341 233.164 19.2073 233.528 17.0328C234.022 14.0875 235.29 11.9229 237.333 10.539C239.408 9.13218 241.808 8.65705 244.533 9.11363C246.157 9.38573 247.696 9.91243 249.15 10.6937L249.143 10.735C249.602 11.0382 249.794 11.41 249.72 11.8504C249.66 12.2083 249.408 12.5338 248.962 12.8271Z" fill="#8B5937"/>
<path d="M211.265 8.80947C210.677 9.87511 209.56 11.0832 207.912 12.4336L209.84 14.4954L211.468 16.2176L213.042 18.1585C213.708 16.6315 214.053 15.5425 214.077 14.8914C214.185 14.0317 214.696 13.5398 215.608 13.4158C216.079 13.3519 216.485 13.4376 216.826 13.6728C217.164 13.8804 217.363 14.2054 217.424 14.6479C217.566 15.6988 216.738 17.6844 214.938 20.6048C215.978 22.0408 216.809 23.3924 217.432 24.6597C217.437 25.1097 217.292 25.4956 216.998 25.8172C216.704 26.1389 216.349 26.3279 215.934 26.3843C215.492 26.4444 215.098 26.343 214.752 26.0801C214.588 25.9053 214.415 25.6752 214.236 25.3898C214.084 25.1006 213.971 24.8907 213.897 24.7599C213.854 24.653 213.593 24.1815 213.113 23.3454C212.001 24.9048 211.062 25.9759 210.297 26.5588C209.475 27.1492 208.512 27.5196 207.406 27.6699C206.299 27.8202 205.119 27.5299 203.865 26.799C202.611 26.0681 201.605 25.0922 200.848 23.8714C200.109 22.7888 199.661 21.6667 199.503 20.5052C199.266 18.7629 199.502 17.2804 200.209 16.0577C200.939 14.8035 202.21 13.4761 204.019 12.0755C202.396 9.87372 201.472 7.9432 201.246 6.28388C201.021 4.62456 201.352 3.22758 202.24 2.09295C203.124 0.930656 204.313 0.248049 205.806 0.0451213C207.245 -0.150291 208.572 0.289017 209.788 1.36305C211.004 2.43708 211.71 3.69314 211.905 5.13121C212.093 6.51398 211.88 7.74007 211.265 8.80947ZM207.686 3.93007C207.244 3.37051 206.788 3.12267 206.318 3.18655C204.88 3.38197 204.291 4.64496 204.551 6.97552C204.816 8.09436 205.379 9.22904 206.239 10.3796C208.017 8.95501 208.829 7.67578 208.675 6.54191C208.513 5.35273 208.184 4.48212 207.686 3.93007ZM204.687 23.5187C205.295 24.0557 206.028 24.266 206.885 24.1495C208.323 23.9541 209.793 22.853 211.295 20.8463C210.927 20.4175 210.461 19.8894 209.896 19.2619L208.998 18.2433C208.896 18.1163 208.531 17.7151 207.905 17.0399C207.274 16.3369 206.697 15.6126 206.173 14.867L205.762 14.3313C205.035 14.9934 204.479 15.5619 204.093 16.0369C202.995 17.2845 202.543 18.6274 202.739 20.0655C202.927 21.4483 203.576 22.5993 204.687 23.5187Z" fill="#8B5937"/>
<path d="M248.083 72.5713C248.191 72.5713 248.245 72.7336 248.245 73.0566C248.245 73.3795 248.191 73.541 248.083 73.541C246.467 73.5411 244.985 74.1873 243.638 75.4795C242.345 76.7718 241.321 78.5491 240.566 80.8105L229.17 110.291L228.924 110.952C227.674 114.237 226.139 117.166 224.32 119.74C222.381 122.486 220.36 124.399 218.259 125.476C217.935 125.691 217.369 125.475 216.561 124.829C215.806 124.237 215.187 123.483 214.702 122.567C214.163 121.329 213.894 120.199 213.894 119.176C213.894 118.261 214.109 117.748 214.54 117.641C217.558 117.21 220.144 116.43 222.3 115.299C224.418 114.214 226.089 112.51 227.315 110.188L212.438 79.2754C211.361 77.014 210.419 75.5058 209.61 74.752C208.802 73.9443 207.697 73.541 206.296 73.541C206.134 73.5409 206.054 73.3793 206.054 73.0566C206.054 72.7337 206.134 72.5714 206.296 72.5713L209.853 72.6523C211.9 72.76 213.867 72.8135 215.753 72.8135C217.1 72.8135 218.797 72.76 220.845 72.6523L224.401 72.5713C224.563 72.5714 224.644 72.7337 224.644 73.0566C224.643 73.3794 224.563 73.5409 224.401 73.541C221.599 73.541 220.198 74.3485 220.198 75.9639C220.198 76.6639 220.441 77.4985 220.926 78.4678L231.274 99.4482L238.384 80.3252C238.815 79.1406 239.03 78.1174 239.03 77.2559C239.03 74.7792 237.36 73.541 234.02 73.541C233.858 73.541 233.777 73.3795 233.777 73.0566C233.777 72.7336 233.858 72.5713 234.02 72.5713L236.849 72.6523C238.573 72.76 240.27 72.8135 241.94 72.8135C242.856 72.8135 243.907 72.76 245.093 72.6523L248.083 72.5713ZM149.711 71.5859C153.665 71.5859 156.684 72.6381 158.768 74.7422C160.851 76.8464 161.894 79.598 161.894 82.9971C161.894 83.6984 161.814 84.1844 161.653 84.4541C161.546 84.7236 161.306 84.8584 160.932 84.8584H157.005L138.189 84.9238C138.071 86.021 138.01 87.186 138.01 88.4189C138.01 94.4078 139.319 99.1832 141.938 102.744C144.556 106.305 148.242 108.085 152.997 108.085C154.333 108.085 155.696 107.896 157.085 107.519C158.474 107.141 159.703 106.575 160.771 105.819H160.852C161.012 105.819 161.146 105.927 161.253 106.143C161.413 106.304 161.44 106.467 161.333 106.629C157.593 109.65 153.478 111.16 148.99 111.16C144.823 111.16 141.269 110.271 138.33 108.49C135.445 106.656 133.255 104.281 131.759 101.368C130.263 98.4547 129.515 95.2984 129.515 91.8994C129.515 88.1767 130.423 84.7775 132.239 81.7021C134.056 78.573 136.514 76.1183 139.612 74.3379C142.711 72.5035 146.078 71.586 149.711 71.5859ZM20.4824 59.1602C25.3933 59.1602 29.198 60.0536 31.8965 61.8408C34.595 63.6283 35.9443 66.2292 35.9443 69.6416C35.9442 72.783 34.7032 75.5724 32.2207 78.0098C30.6493 79.5518 28.6246 80.7841 26.1494 81.7139C28.3329 81.9822 30.3296 82.5074 32.1396 83.291C34.9461 84.4827 37.105 86.1346 38.6162 88.2471C40.1274 90.3595 40.8828 92.7702 40.8828 95.4785C40.8827 98.295 40.0731 100.84 38.4541 103.115C36.835 105.39 34.5958 107.205 31.7354 108.56C28.875 109.859 25.6905 110.509 22.1826 110.509C20.6714 110.509 18.9439 110.428 17.001 110.266C16.2454 110.211 15.3004 110.157 14.167 110.103C13.0877 110.048 11.8735 110.021 10.5244 110.021L4.61426 110.103C3.53491 110.157 2.07789 110.185 0.243164 110.185C0.0812511 110.185 0 110.021 0 109.696C6.38574e-05 109.372 0.081315 109.209 0.243164 109.209C1.80806 109.209 2.99517 109.073 3.80469 108.803C4.61425 108.478 5.18106 107.936 5.50488 107.178C5.88265 106.365 6.07227 105.173 6.07227 103.603V65.9854C6.07227 63.7106 5.69394 62.2208 4.93848 61.5166C4.18292 60.7583 2.64479 60.3789 0.324219 60.3789C0.21631 60.3789 0.162142 60.2164 0.162109 59.8916C0.162109 59.5666 0.216277 59.4043 0.324219 59.4043L4.61426 59.4854C7.09692 59.5937 9.0672 59.6475 10.5244 59.6475C12.0355 59.6475 13.6007 59.5668 15.2197 59.4043C15.7594 59.3501 16.5691 59.2954 17.6484 59.2412C18.7279 59.187 19.6729 59.1602 20.4824 59.1602ZM67.498 71.5859C70.3431 71.586 72.5976 72.3369 74.2617 73.8379C75.9257 75.2854 76.7578 77.4832 76.7578 80.4316V97.5596C76.7578 99.9719 76.9729 101.768 77.4023 102.947C77.8318 104.127 78.3685 104.878 79.0127 105.199C79.7106 105.521 80.5963 105.682 81.6699 105.682C82.2067 105.682 82.9313 105.547 83.8438 105.279L84.0049 105.199C84.1659 105.199 84.2735 105.334 84.3271 105.602C84.4343 105.869 84.3807 106.03 84.166 106.084L75.3086 110.346C75.0939 110.453 74.8523 110.507 74.584 110.507C73.1346 110.507 71.7923 109.702 70.5576 108.094C69.9787 107.34 69.5379 106.367 69.2305 105.177L64.4375 107.934C62.8273 108.898 61.378 109.568 60.0898 109.943C58.8552 110.319 57.5666 110.507 56.2246 110.507C54.131 110.507 52.4133 109.943 51.0713 108.817C49.7293 107.692 49.0577 106.245 49.0576 104.476C49.0576 102.814 49.5944 101.366 50.668 100.133C51.7953 98.8462 53.3526 97.8542 55.3389 97.1572L68.7061 92.4414V82.8438C68.706 79.5736 68.357 77.1876 67.6592 75.6865C67.015 74.1856 65.9405 73.4355 64.4375 73.4355C62.7199 73.4357 61.3783 74.213 60.4121 75.7676C59.4459 77.3222 58.694 79.3055 58.1572 81.7178C57.5667 84.7199 56.0094 86.2217 53.4863 86.2217C52.1445 86.2216 51.0708 85.8991 50.2656 85.2559C49.5143 84.559 49.1387 83.5942 49.1387 82.3613C49.1387 80.753 50.1319 79.1179 52.1182 77.4561C54.1581 75.7406 56.6276 74.3466 59.5264 73.2744C62.4251 72.1487 65.0824 71.5859 67.498 71.5859ZM185.424 72.2471C189.636 72.2471 192.849 72.9184 195.063 74.2607C197.278 75.6032 198.385 77.5368 198.385 80.0605C198.385 82.2622 197.602 84.3032 196.036 86.1826C194.727 87.8094 192.972 89.1532 190.773 90.2168C193.639 95.0142 196.093 98.7718 198.142 101.487C200.302 104.28 202.246 106.267 203.975 107.448C205.757 108.63 207.566 109.221 209.402 109.221C209.564 109.221 209.645 109.381 209.646 109.703C209.646 110.025 209.564 110.187 209.402 110.187H196.117C195.307 110.187 193.821 108.522 191.661 105.192C189.575 101.926 187.138 97.5578 184.348 92.0889C183.257 92.2319 182.13 92.3047 180.968 92.3047C180.49 92.3047 180.031 92.2947 179.591 92.2783V103.662C179.591 105.327 179.699 106.535 179.915 107.287C180.185 108.039 180.644 108.549 181.292 108.817C181.994 109.086 183.101 109.221 184.613 109.221C184.721 109.221 184.775 109.381 184.775 109.703C184.775 110.025 184.721 110.186 184.613 110.187C182.993 110.187 181.724 110.16 180.806 110.106L175.297 110.025L170.031 110.106C169.059 110.16 167.709 110.187 165.98 110.187C165.873 110.186 165.819 110.025 165.819 109.703C165.819 109.382 165.873 109.221 165.98 109.221C167.493 109.221 168.601 109.086 169.303 108.817C170.005 108.549 170.491 108.039 170.761 107.287C171.031 106.482 171.166 105.273 171.166 103.662V79.0137C171.166 77.4029 171.031 76.2215 170.761 75.4697C170.545 74.7179 170.085 74.208 169.383 73.9395C168.681 73.6173 167.601 73.4561 166.143 73.4561C165.981 73.4559 165.899 73.2945 165.899 72.9727C165.899 72.6507 165.981 72.4895 166.143 72.4893L170.112 72.5693C172.272 72.6767 174.001 72.7305 175.297 72.7305C176.323 72.7305 177.269 72.7041 178.133 72.6504C178.997 72.5967 179.752 72.5429 180.4 72.4893C182.183 72.3282 183.858 72.2471 185.424 72.2471ZM127.437 72.5713C127.597 72.5713 127.678 72.7323 127.678 73.0537C127.678 73.3752 127.597 73.5361 127.437 73.5361C125.35 73.5362 122.701 74.3126 119.491 75.8662C116.281 77.4199 113.552 79.322 111.305 81.5723L107.559 85.3232L114.354 94.2705C117.725 98.7709 120.267 102.039 121.979 104.075C123.745 106.111 125.163 107.476 126.233 108.173C127.303 108.869 128.427 109.218 129.604 109.218C129.764 109.218 129.845 109.379 129.845 109.7C129.845 110.022 129.764 110.183 129.604 110.183H117.164C116.308 110.236 114.944 108.95 113.071 106.325C111.252 103.646 109.406 101.047 107.533 98.5293L101.881 91.0088L99.748 93.1445V103.673C99.748 105.28 99.8819 106.459 100.149 107.209C100.417 107.959 100.898 108.495 101.594 108.816C102.343 109.084 103.467 109.218 104.965 109.218C105.072 109.218 105.125 109.379 105.125 109.7C105.125 110.022 105.072 110.183 104.965 110.183C103.306 110.183 102.022 110.156 101.112 110.103L95.7354 110.021L90.5186 110.103C89.5555 110.156 88.2179 110.183 86.5059 110.183C86.3988 110.183 86.3447 110.022 86.3447 109.7C86.3447 109.379 86.3989 109.218 86.5059 109.218C88.057 109.218 89.1804 109.084 89.876 108.816C90.625 108.549 91.1338 108.039 91.4014 107.289C91.6688 106.485 91.8027 105.28 91.8027 103.673V79.0811C91.8027 77.4738 91.6689 76.295 91.4014 75.5449C91.1338 74.795 90.625 74.2864 89.876 74.0186C89.1804 73.6972 88.1105 73.5361 86.666 73.5361C86.5056 73.5361 86.4258 73.3751 86.4258 73.0537C86.4258 72.7324 86.5056 72.5713 86.666 72.5713L90.5186 72.6523C92.6587 72.7595 94.3977 72.8125 95.7354 72.8125C97.1799 72.8125 98.9723 72.7595 101.112 72.6523L104.965 72.5713C105.072 72.5713 105.125 72.7324 105.125 73.0537C105.125 73.3751 105.072 73.5361 104.965 73.5361C102.825 73.5361 101.407 73.9111 100.711 74.6611C100.069 75.4112 99.748 76.9385 99.748 79.2422V89.959L109.459 80.2871C111.706 78.0369 112.83 76.2948 112.83 75.0625C112.83 74.0449 112 73.5361 110.342 73.5361C110.235 73.5359 110.182 73.3749 110.182 73.0537C110.182 72.7326 110.235 72.5715 110.342 72.5713L113.713 72.6523C115.746 72.7595 117.645 72.8125 119.411 72.8125C121.712 72.8125 123.772 72.7595 125.591 72.6523C126.126 72.5988 126.741 72.5713 127.437 72.5713ZM19.3486 83.8594C17.8295 83.8594 16.4263 83.9142 15.1387 84.0215V103.603C15.1387 105.39 15.4898 106.664 16.1914 107.422C16.893 108.126 18.4312 108.478 20.8057 108.478C27.8759 108.478 31.4111 104.794 31.4111 97.4277C31.4111 93.2572 30.4129 89.953 28.416 87.5156C26.4191 85.0782 23.3965 83.8594 19.3486 83.8594ZM61.7803 96.6748C59.2038 97.6397 57.9152 99.3555 57.915 101.821C57.915 103.269 58.2642 104.422 58.9619 105.279C59.6597 106.083 60.5994 106.485 61.7803 106.485C62.6391 106.485 63.8204 106.111 65.3232 105.36L68.9121 103.547C68.7757 102.572 68.7061 101.488 68.7061 100.294V94.1094L61.7803 96.6748ZM267.562 52.6182C267.661 52.6182 267.744 52.6432 267.811 52.6934C267.894 52.7269 267.977 52.7776 268.061 52.8447C268.427 53.2143 268.66 53.492 268.76 53.6768C268.876 53.8447 268.935 54.0462 268.935 54.2812C268.935 54.4155 268.927 54.5666 268.91 54.7344V55.3398C268.91 55.8772 268.976 56.4062 269.109 56.9268C269.243 57.4475 269.31 57.8931 269.31 58.2627C269.31 58.5817 269.242 58.8922 269.109 59.1943C268.993 59.4799 268.935 59.7824 268.935 60.1016C268.935 60.3367 268.985 60.5553 269.085 60.7568C269.201 60.9415 269.326 61.1268 269.459 61.3115C269.609 61.4962 269.742 61.6892 269.858 61.8906C269.963 62.0569 270.018 62.2509 270.028 62.4717C270.168 62.5137 270.274 62.5851 270.348 62.6846C270.546 62.7494 270.816 62.814 271.157 62.873C271.199 62.8791 271.242 62.8837 271.284 62.8896L271.292 62.8779C271.375 62.7774 271.509 62.7276 271.691 62.7275C271.758 62.7275 271.858 62.7438 271.991 62.7773H272.166C272.277 62.8686 272.379 62.9542 272.475 63.0332C272.679 63.055 272.888 63.0803 273.104 63.1006C273.295 63.114 273.488 63.1245 273.68 63.1367C273.76 63.1241 273.83 63.1055 273.889 63.0801C274.005 63.0129 274.105 62.9451 274.188 62.8779C274.272 62.794 274.355 62.7185 274.438 62.6514C274.538 62.5843 274.663 62.5509 274.812 62.5508C275.029 62.5508 275.196 62.5842 275.312 62.6514C275.429 62.7185 275.529 62.794 275.612 62.8779C275.696 62.9451 275.77 63.0129 275.837 63.0801C275.903 63.1472 275.995 63.1806 276.111 63.1807C276.195 63.1807 276.262 63.1721 276.312 63.1553C276.378 63.1385 276.453 63.1299 276.536 63.1299C276.648 63.1299 276.72 63.1778 276.755 63.2705C276.876 63.2722 276.992 63.2764 277.101 63.2764C277.533 63.2764 277.867 63.3098 278.1 63.377C278.333 63.4441 278.524 63.5205 278.674 63.6045C278.84 63.6716 278.99 63.7471 279.123 63.8311C279.256 63.915 279.431 63.9656 279.647 63.9824C279.914 64.016 280.138 64.0915 280.321 64.209C280.521 64.3098 280.621 64.5197 280.621 64.8389C280.621 65.2418 280.513 65.5608 280.297 65.7959C280.097 66.0311 279.839 66.2076 279.522 66.3252C279.223 66.4427 278.898 66.5182 278.549 66.5518C278.199 66.5685 277.875 66.5771 277.575 66.5771C277.444 66.5771 277.313 66.5718 277.182 66.5693C277.15 66.5976 277.119 66.63 277.085 66.6582C276.919 66.7925 276.744 66.9186 276.561 67.0361C276.378 67.1536 276.228 67.2626 276.111 67.3633C275.828 67.5984 275.487 67.7158 275.088 67.7158C274.822 67.7158 274.563 67.6824 274.313 67.6152C274.08 67.5481 273.831 67.5147 273.564 67.5146C273.448 67.5146 273.357 67.5397 273.29 67.5898C273.074 67.7242 272.865 67.8006 272.665 67.8174C272.466 67.8341 272.249 67.8418 272.017 67.8418C271.883 67.8418 271.7 67.7836 271.467 67.666C271.25 67.5316 271.134 67.3971 271.117 67.2627L271.136 67.2422C271.031 67.3045 270.929 67.3708 270.831 67.4414C270.805 67.4885 270.785 67.5383 270.768 67.5898C270.751 67.6906 270.734 67.8004 270.718 67.918C270.701 68.0355 270.659 68.153 270.593 68.2705C270.51 68.4385 270.376 68.5396 270.193 68.5732C270.059 68.6004 269.918 68.6542 269.772 68.7363C269.751 68.7801 269.729 68.8249 269.709 68.8701C269.459 69.4412 269.334 70.1636 269.334 71.0371C269.334 71.3814 269.229 72.1435 269.117 72.9316C269.112 73.5028 269.064 74.0744 268.97 74.6455C268.87 75.2334 268.819 75.8385 268.819 76.46C268.819 76.8293 268.761 77.1818 268.645 77.5176C268.545 77.8535 268.495 78.2066 268.495 78.5762C268.495 79.0969 268.712 79.4576 269.145 79.6592C269.028 79.7095 268.937 79.8443 268.87 80.0625C268.804 80.2641 268.745 80.4998 268.695 80.7686C268.662 81.0204 268.637 81.2725 268.62 81.5244V82.3057C268.62 82.4231 268.628 82.5494 268.645 82.6836L268.695 83.0361C268.708 83.1113 268.729 83.1726 268.76 83.2197L268.882 83.3701C268.957 83.4835 268.994 83.6155 268.994 83.7666C268.994 83.9681 268.961 84.1696 268.895 84.3711C268.828 84.5559 268.795 84.7496 268.795 84.9512C268.795 85.7741 268.844 86.597 268.944 87.4199C269.061 88.2262 269.119 89.0412 269.119 89.8643C269.119 90.4017 269.061 90.9391 268.944 91.4766C268.874 91.8545 268.83 92.2334 268.81 92.6113C268.797 92.7441 268.84 93.1145 268.84 93.2559C268.84 93.5833 268.456 93.8354 268.487 94.1475V94.6016C268.519 94.9134 268.535 95.2334 268.535 95.5605C268.535 96.0653 268.463 96.5292 268.321 96.9521C268.179 97.3751 267.909 97.7644 267.512 98.1191C267.427 98.1873 267.335 98.2768 267.235 98.3857C267.136 98.4948 267.029 98.597 266.915 98.6924C266.802 98.8014 266.688 98.8908 266.574 98.959C266.446 99.0272 266.318 99.0615 266.19 99.0615C266.105 99.0615 266.034 99.0408 265.978 99C265.907 98.9727 265.835 98.9315 265.764 98.877C265.452 98.5772 265.253 98.3512 265.168 98.2012C265.069 98.0648 265.02 97.8998 265.02 97.709C265.02 97.6002 265.025 97.4777 265.039 97.3418V96.8506C265.039 96.4139 264.983 95.9835 264.869 95.5605C264.756 95.1376 264.699 94.7757 264.699 94.4756C264.699 94.2165 264.756 93.9642 264.869 93.7188C264.969 93.4868 265.004 93.5151 265.004 93.2559C265.004 93.1262 264.807 92.7573 264.823 92.6113C264.84 92.4656 264.85 92.314 264.85 92.1572C264.85 91.8885 264.833 91.6279 264.8 91.376L264.699 90.5703C264.599 89.6968 264.541 88.8141 264.524 87.9238C264.508 87.0337 264.5 86.1431 264.5 85.2529C264.5 84.6652 264.575 84.1028 264.725 83.5654C264.874 83.0111 264.949 82.4395 264.949 81.8516C264.949 81.5158 264.891 81.1968 264.774 80.8945C264.658 80.5922 264.6 80.2811 264.6 79.9619C264.6 79.8109 264.616 79.6598 264.649 79.5088C264.699 79.3576 264.725 79.1973 264.725 79.0293C264.725 78.66 264.683 78.3074 264.6 77.9717C264.533 77.6189 264.5 77.2658 264.5 76.9131C264.5 76.3252 264.558 75.7373 264.675 75.1494C264.808 74.5616 264.874 73.9736 264.874 73.3857C264.874 73.033 264.832 72.6799 264.749 72.3271C264.666 71.9745 264.574 71.6298 264.475 71.2939C264.391 70.9581 264.308 70.6134 264.225 70.2607C264.141 69.9082 264.101 69.5556 264.101 69.2031C264.101 68.9848 264.125 68.7576 264.175 68.5225C264.155 68.4764 264.133 68.4328 264.11 68.3906C263.646 68.2904 263.181 68.2229 262.717 68.1895C262.251 68.1391 261.801 68.0809 261.368 68.0137C261.182 67.9847 261.008 67.9328 260.847 67.8633C260.537 67.8926 260.223 67.9213 259.905 67.9434C259.439 67.9769 258.973 67.9932 258.507 67.9932C258.241 67.9932 257.907 67.9769 257.508 67.9434C257.125 67.9098 256.75 67.8334 256.384 67.7158C256.034 67.5982 255.735 67.4302 255.485 67.2119C255.236 66.9936 255.11 66.6918 255.11 66.3057C255.11 66.0705 255.16 65.8262 255.26 65.5742C255.376 65.3055 255.51 65.0449 255.66 64.793C255.827 64.5412 256.002 64.3061 256.185 64.0879C256.384 63.8528 256.559 63.6513 256.709 63.4834C256.826 63.3658 257 63.2646 257.233 63.1807C257.466 63.0968 257.724 63.0375 258.007 63.0039C258.306 62.9703 258.623 62.9455 258.956 62.9287C259.289 62.9119 259.622 62.9033 259.955 62.9033C260.371 62.9033 260.754 62.9119 261.104 62.9287H261.21C261.446 62.7747 261.723 62.6973 262.042 62.6973C262.192 62.6973 262.334 62.7049 262.467 62.7217H262.916C263.332 62.7217 263.674 62.6549 263.94 62.5205C264.223 62.3694 264.44 62.1765 264.59 61.9414C264.756 61.6894 264.864 61.4031 264.914 61.084C264.981 60.7651 265.014 60.421 265.014 60.0518C265.014 59.6489 264.995 59.2551 264.958 58.8711L264.87 58.1074C264.833 57.7234 264.814 57.3297 264.814 56.9268C264.814 56.3054 264.898 55.7345 265.064 55.2139C265.231 54.6932 265.547 54.214 266.013 53.7773C266.113 53.6934 266.221 53.5836 266.338 53.4492C266.454 53.315 266.579 53.1888 266.712 53.0713C266.845 52.937 266.978 52.8281 267.111 52.7441C267.261 52.6602 267.412 52.6182 267.562 52.6182ZM183.561 73.8584C182.427 73.8584 181.589 73.9923 181.049 74.2607C180.509 74.5292 180.131 75.0402 179.915 75.792C179.699 76.4901 179.591 77.6176 179.591 79.1748V90.709C180.199 90.7512 180.848 90.7744 181.535 90.7744C184.613 90.7744 186.746 90.0759 187.935 88.6797C189.123 87.2298 189.717 85.0815 189.717 82.2354C189.717 76.651 187.665 73.8586 183.561 73.8584ZM146.986 73.5283C144.208 73.5283 142.017 74.8767 140.414 77.5742C139.466 79.1691 138.801 81.0853 138.414 83.3213L153.289 83.0615C153.285 80.2603 152.842 78.0534 151.955 76.4414C150.94 74.4993 149.284 73.5283 146.986 73.5283ZM19.2676 60.9473C17.7025 60.9473 16.623 61.3267 16.0293 62.085C15.4356 62.7891 15.1387 64.1434 15.1387 66.1475V81.6133C16.3095 81.6466 17.3889 81.666 18.377 81.666C21.1834 81.666 23.3423 80.6095 24.8535 78.4971C26.3647 76.3846 27.1201 73.6762 27.1201 70.3721C27.1201 67.2848 26.4459 64.9555 25.0967 63.3848C23.7474 61.7599 21.8042 60.9473 19.2676 60.9473ZM77.5811 41.6064C79.6464 41.6064 81.224 42.1508 82.3125 43.2393C83.4008 44.3277 83.9443 45.7516 83.9443 47.5098C83.9443 47.8721 83.9029 48.1231 83.8193 48.2627C83.7635 48.4022 83.6377 48.4727 83.4424 48.4727H81.3906L71.5635 48.5059C71.5015 49.0736 71.4688 49.6764 71.4688 50.3145C71.4688 53.4123 72.153 55.8826 73.5205 57.7246C74.8881 59.5665 76.814 60.4873 79.2979 60.4873C79.9955 60.4873 80.7071 60.3897 81.4326 60.1943C82.1581 59.999 82.8003 59.7061 83.3584 59.3154H83.4004C83.484 59.3154 83.5536 59.371 83.6094 59.4824C83.6931 59.5661 83.7071 59.6497 83.6514 59.7334C81.6977 61.2963 79.5485 62.0781 77.2041 62.0781C75.0274 62.0781 73.1716 61.6172 71.6367 60.6963C70.1297 59.7474 68.9855 58.5197 68.2041 57.0127C67.4226 55.5056 67.0312 53.8726 67.0312 52.1143C67.0313 50.1886 67.5062 48.4306 68.4551 46.8398C69.404 45.2211 70.6879 43.9513 72.3066 43.0303C73.9253 42.0814 75.6833 41.6065 77.5811 41.6064ZM158.487 41.6064C160.553 41.6064 162.13 42.1508 163.219 43.2393C164.307 44.3277 164.851 45.7516 164.851 47.5098C164.851 47.8721 164.809 48.1231 164.726 48.2627C164.67 48.4022 164.544 48.4726 164.349 48.4727H162.297L152.47 48.5059C152.408 49.0736 152.375 49.6764 152.375 50.3145C152.375 53.4123 153.059 55.8826 154.427 57.7246C155.794 59.5665 157.72 60.4873 160.204 60.4873C160.902 60.4873 161.613 60.3897 162.339 60.1943C163.064 59.999 163.707 59.7061 164.265 59.3154H164.307C164.39 59.3154 164.46 59.371 164.516 59.4824C164.599 59.5661 164.613 59.6497 164.558 59.7334C162.604 61.2963 160.455 62.0781 158.11 62.0781C155.934 62.0781 154.078 61.6172 152.543 60.6963C151.036 59.7474 149.892 58.5197 149.11 57.0127C148.329 55.5056 147.938 53.8726 147.938 52.1143C147.938 50.1886 148.412 48.4306 149.361 46.8398C150.31 45.2211 151.594 43.9513 153.213 43.0303C154.832 42.0814 156.59 41.6065 158.487 41.6064ZM203.916 41.6064C205.981 41.6064 207.559 42.1508 208.647 43.2393C209.736 44.3277 210.279 45.7516 210.279 47.5098C210.279 47.8722 210.238 48.1231 210.154 48.2627C210.098 48.4022 209.973 48.4727 209.777 48.4727H207.726L197.898 48.5059C197.836 49.0736 197.804 49.6764 197.804 50.3145C197.804 53.4123 198.488 55.8826 199.855 57.7246C201.223 59.5665 203.149 60.4873 205.633 60.4873C206.33 60.4873 207.042 60.3897 207.768 60.1943C208.493 59.999 209.135 59.7061 209.693 59.3154H209.735C209.819 59.3154 209.889 59.371 209.944 59.4824C210.028 59.5661 210.042 59.6497 209.986 59.7334C208.033 61.2962 205.884 62.078 203.54 62.0781C201.363 62.0781 199.507 61.6173 197.972 60.6963C196.465 59.7474 195.321 58.5197 194.539 57.0127C193.758 55.5056 193.366 53.8726 193.366 52.1143C193.366 50.1886 193.841 48.4306 194.79 46.8398C195.739 45.2211 197.023 43.9513 198.642 43.0303C200.26 42.0814 202.018 41.6065 203.916 41.6064ZM91.7412 39.2109C91.8527 39.2109 91.9505 39.2393 92.0342 39.2949C92.1179 39.3228 92.1602 39.3651 92.1602 39.4209V42.4971C94.0301 42.4497 96.2769 42.3182 98.9004 42.0996C98.9841 42.0997 99.0536 42.1983 99.1094 42.3936C99.1651 42.5888 99.1933 42.8257 99.1934 43.1045C99.1934 43.3836 99.138 43.6633 99.0264 43.9424C98.9427 44.1935 98.8581 44.3052 98.7744 44.2773C97.1514 43.8955 94.9467 43.6774 92.1602 43.6221V55.3291C92.1602 58.6501 93.388 60.3103 95.8438 60.3105C97.3508 60.3105 98.6629 59.9342 99.7793 59.1807L99.8633 59.1387C99.9749 59.1387 100.044 59.195 100.072 59.3066C100.128 59.4182 100.114 59.5018 100.03 59.5576C98.8861 60.4785 97.8535 61.1347 96.9326 61.5254C96.0397 61.8881 95.0351 62.0693 93.9189 62.0693C92.2444 62.0693 90.8347 61.6225 89.6904 60.7295C88.5461 59.8364 87.9736 58.3573 87.9736 56.292V45.3232C87.9736 44.57 87.8064 44.0676 87.4717 43.8164C87.1647 43.5652 86.5781 43.4395 85.7129 43.4395C85.6293 43.4393 85.5879 43.3135 85.5879 43.0625C85.5879 42.8118 85.6293 42.6867 85.7129 42.6865C87.1363 42.6865 88.3789 42.3787 89.4395 41.7646C90.4997 41.1507 91.1833 40.3415 91.4902 39.3369C91.546 39.2533 91.6297 39.211 91.7412 39.2109ZM53.0664 35.2812C55.606 35.2813 57.5733 35.7421 58.9688 36.6631C60.3642 37.5841 61.0625 38.9234 61.0625 40.6816C61.0625 42.3004 60.4206 43.7382 59.1367 44.9941C58.324 45.7888 57.2763 46.4232 55.9961 46.9023C57.1255 47.0406 58.1585 47.311 59.0947 47.7148C60.5459 48.3288 61.6619 49.1802 62.4434 50.2686C63.2248 51.3569 63.6161 52.5988 63.6162 53.9941C63.6162 55.4454 63.1975 56.7575 62.3604 57.9297C61.5232 59.1018 60.3647 60.0367 58.8857 60.7344C57.4065 61.4042 55.7594 61.7393 53.9453 61.7393C53.1639 61.7393 52.2704 61.698 51.2656 61.6143C50.875 61.5864 50.3867 61.5582 49.8008 61.5303C49.2426 61.5024 48.6147 61.4883 47.917 61.4883L44.8604 61.5303C44.3023 61.5582 43.549 61.5723 42.6006 61.5723C42.5169 61.5723 42.4746 61.4878 42.4746 61.3203C42.4747 61.1532 42.5169 61.0693 42.6006 61.0693C43.4097 61.0693 44.0238 60.9999 44.4424 60.8604C44.8608 60.6929 45.1538 60.4139 45.3213 60.0234C45.5167 59.6048 45.6143 58.99 45.6143 58.1807V38.7979C45.6143 37.6257 45.4191 36.8579 45.0283 36.4951C44.6376 36.1044 43.8417 35.9092 42.6416 35.9092C42.5861 35.9088 42.5586 35.8251 42.5586 35.6582C42.5586 35.4911 42.586 35.4076 42.6416 35.4072L44.8604 35.4482C46.1442 35.5041 47.1634 35.5322 47.917 35.5322C48.6983 35.5322 49.5076 35.4909 50.3447 35.4072C50.6238 35.3793 51.0426 35.3511 51.6006 35.3232C52.1588 35.2953 52.6478 35.2812 53.0664 35.2812ZM125.815 41.9902C125.899 41.9902 125.941 42.0739 125.941 42.2412C125.941 42.4087 125.899 42.4932 125.815 42.4932C125.034 42.4932 124.448 42.5767 124.058 42.7441C123.695 42.8837 123.443 43.1484 123.304 43.5391C123.164 43.9297 123.095 44.5438 123.095 45.3809V58.1914C123.095 59.0284 123.164 59.6566 123.304 60.0752C123.443 60.4659 123.695 60.7315 124.058 60.8711C124.42 61.0106 125.006 61.0801 125.815 61.0801C125.899 61.0801 125.941 61.1646 125.941 61.332C125.941 61.4992 125.899 61.583 125.815 61.583C124.951 61.583 124.281 61.5689 123.807 61.541L121.043 61.499L118.238 61.541C117.764 61.5689 117.094 61.583 116.229 61.583C116.145 61.5827 116.104 61.4989 116.104 61.332C116.104 61.1648 116.145 61.0803 116.229 61.0801C117.01 61.0801 117.582 61.0106 117.945 60.8711C118.308 60.7315 118.56 60.4659 118.699 60.0752C118.839 59.6566 118.908 59.0283 118.908 58.1914V52.2471H108.819V58.1914C108.819 59.0287 108.889 59.6434 109.028 60.0342C109.168 60.4247 109.42 60.7037 109.782 60.8711C110.173 61.0105 110.759 61.0801 111.54 61.0801C111.596 61.0801 111.624 61.1646 111.624 61.332C111.624 61.4992 111.596 61.583 111.54 61.583C110.675 61.583 110.005 61.5689 109.53 61.541L106.726 61.499L104.005 61.541C103.503 61.5689 102.804 61.583 101.911 61.583C101.856 61.5828 101.827 61.499 101.827 61.332C101.827 61.1648 101.855 61.0803 101.911 61.0801C102.721 61.0801 103.307 61.0106 103.67 60.8711C104.061 60.7315 104.325 60.4658 104.465 60.0752C104.604 59.6566 104.675 59.0285 104.675 58.1914V45.3809C104.675 44.5438 104.604 43.9297 104.465 43.5391C104.325 43.1486 104.06 42.8837 103.67 42.7441C103.307 42.5767 102.749 42.4932 101.995 42.4932C101.911 42.4932 101.869 42.4087 101.869 42.2412C101.869 42.0739 101.911 41.9902 101.995 41.9902L104.005 42.0322C105.121 42.088 106.028 42.1162 106.726 42.1162C107.479 42.1162 108.414 42.088 109.53 42.0322L111.54 41.9902C111.596 41.9902 111.624 42.0739 111.624 42.2412C111.624 42.4087 111.596 42.4932 111.54 42.4932C110.424 42.4932 109.684 42.6884 109.321 43.0791C108.987 43.4699 108.819 44.265 108.819 45.4648V51.1582H118.908V45.4648C118.908 44.6278 118.839 44.0138 118.699 43.623C118.56 43.2044 118.308 42.9116 117.945 42.7441C117.582 42.5767 117.01 42.4932 116.229 42.4932C116.145 42.4929 116.104 42.4084 116.104 42.2412C116.104 42.0742 116.145 41.9905 116.229 41.9902L118.238 42.0322C119.354 42.088 120.289 42.1162 121.043 42.1162C121.713 42.1162 122.634 42.088 123.807 42.0322L125.815 41.9902ZM137.905 41.9902C137.989 41.9902 138.031 42.0739 138.031 42.2412C138.031 42.4087 137.989 42.4932 137.905 42.4932C137.068 42.4932 136.44 42.5767 136.021 42.7441C135.631 42.8837 135.366 43.1626 135.227 43.5811C135.087 43.9717 135.018 44.5857 135.018 45.4229V58.0244C135.018 58.7779 135.087 59.3364 135.227 59.6992C135.366 60.0618 135.631 60.3267 136.021 60.4941C136.44 60.6337 137.055 60.7041 137.864 60.7041H138.324C139.915 60.7041 141.367 60.1869 142.679 59.1543C143.99 58.1217 144.953 56.7259 145.567 54.9678C145.596 54.9124 145.679 54.8989 145.818 54.9268C145.985 54.9268 146.069 54.9542 146.069 55.0098C145.874 56.489 145.776 58.4711 145.776 60.9551C145.776 61.1782 145.72 61.3454 145.608 61.457C145.525 61.5407 145.357 61.583 145.106 61.583H128.36C128.305 61.5827 128.277 61.4988 128.277 61.332C128.277 61.1649 128.305 61.0804 128.36 61.0801C129.086 61.0801 129.616 61.0106 129.951 60.8711C130.286 60.7315 130.509 60.4659 130.621 60.0752C130.761 59.6566 130.831 59.0285 130.831 58.1914V45.3809C130.831 44.5438 130.761 43.9297 130.621 43.5391C130.509 43.1485 130.286 42.8837 129.951 42.7441C129.616 42.5767 129.086 42.4932 128.36 42.4932C128.305 42.4928 128.277 42.4083 128.277 42.2412C128.277 42.0743 128.305 41.9906 128.36 41.9902L130.412 42.0322C131.584 42.088 132.491 42.1162 133.133 42.1162C133.858 42.1162 134.808 42.088 135.98 42.0322L137.905 41.9902ZM190.812 41.9902C190.896 41.9902 190.938 42.0739 190.938 42.2412C190.938 42.4087 190.896 42.4932 190.812 42.4932C190.031 42.4932 189.445 42.5767 189.055 42.7441C188.692 42.8837 188.44 43.1484 188.301 43.5391C188.161 43.9297 188.092 44.5438 188.092 45.3809V58.1914C188.092 59.0284 188.161 59.6566 188.301 60.0752C188.44 60.4659 188.692 60.7315 189.055 60.8711C189.417 61.0106 190.003 61.0801 190.812 61.0801C190.896 61.0801 190.938 61.1646 190.938 61.332C190.938 61.4992 190.896 61.583 190.812 61.583C189.948 61.583 189.278 61.5689 188.804 61.541L186.04 61.499L183.235 61.541C182.761 61.5689 182.091 61.583 181.226 61.583C181.142 61.5828 181.101 61.499 181.101 61.332C181.101 61.1647 181.142 61.0802 181.226 61.0801C182.007 61.0801 182.58 61.0106 182.942 60.8711C183.305 60.7315 183.557 60.4659 183.696 60.0752C183.836 59.6566 183.905 59.0283 183.905 58.1914V52.2471H173.815V58.1914C173.815 59.0287 173.886 59.6434 174.025 60.0342C174.165 60.4246 174.416 60.7037 174.778 60.8711C175.169 61.0106 175.756 61.0801 176.537 61.0801C176.593 61.0801 176.621 61.1646 176.621 61.332C176.621 61.4991 176.593 61.5829 176.537 61.583C175.672 61.583 175.002 61.5689 174.527 61.541L171.723 61.499L169.002 61.541C168.5 61.5689 167.801 61.583 166.908 61.583C166.852 61.5829 166.824 61.4991 166.824 61.332C166.824 61.1646 166.852 61.0802 166.908 61.0801C167.718 61.0801 168.304 61.0106 168.667 60.8711C169.058 60.7315 169.322 60.4658 169.462 60.0752C169.601 59.6566 169.671 59.0284 169.671 58.1914V45.3809C169.671 44.5438 169.601 43.9297 169.462 43.5391C169.322 43.1486 169.057 42.8837 168.667 42.7441C168.304 42.5767 167.746 42.4932 166.992 42.4932C166.908 42.4932 166.866 42.4087 166.866 42.2412C166.866 42.0739 166.909 41.9902 166.992 41.9902L169.002 42.0322C170.118 42.088 171.025 42.1162 171.723 42.1162C172.476 42.1162 173.411 42.088 174.527 42.0322L176.537 41.9902C176.593 41.9903 176.621 42.074 176.621 42.2412C176.621 42.4086 176.593 42.4931 176.537 42.4932C175.421 42.4932 174.681 42.6884 174.318 43.0791C173.984 43.4699 173.815 44.265 173.815 45.4648V51.1582H183.905V45.4648C183.905 44.6278 183.836 44.0138 183.696 43.623C183.557 43.2045 183.305 42.9116 182.942 42.7441C182.58 42.5767 182.007 42.4932 181.226 42.4932C181.142 42.493 181.101 42.4085 181.101 42.2412C181.101 42.0741 181.142 41.9904 181.226 41.9902L183.235 42.0322C184.352 42.088 185.287 42.1162 186.04 42.1162C186.71 42.1162 187.632 42.088 188.804 42.0322L190.812 41.9902ZM239.381 41.4346C241.39 41.4346 242.926 42.0204 243.986 43.1924C245.075 44.3367 245.619 45.9284 245.619 47.9658V58.1807C245.619 59.0177 245.675 59.6459 245.786 60.0645C245.926 60.4551 246.177 60.7198 246.54 60.8594C246.931 60.9989 247.517 61.0693 248.299 61.0693C248.354 61.0698 248.382 61.1533 248.382 61.3203C248.382 61.4871 248.354 61.5708 248.299 61.5713C247.49 61.5713 246.847 61.5572 246.373 61.5293L243.484 61.4873L240.721 61.5293C240.246 61.5572 239.604 61.5713 238.795 61.5713C238.711 61.5711 238.67 61.4874 238.67 61.3203C238.67 61.153 238.711 61.0695 238.795 61.0693C239.576 61.0693 240.149 60.9989 240.512 60.8594C240.874 60.7198 241.126 60.455 241.266 60.0645C241.405 59.6459 241.475 59.0177 241.475 58.1807V49.2217C241.475 47.1285 241.182 45.5508 240.596 44.4902C240.01 43.4298 239.088 42.8994 237.832 42.8994C236.576 42.8995 235.404 43.3462 234.315 44.2393C233.594 44.8125 232.943 45.5404 232.356 46.4199C232.433 46.9029 232.474 47.4183 232.474 47.9658V58.1807C232.474 59.0177 232.53 59.6459 232.642 60.0645C232.781 60.4549 233.032 60.7199 233.395 60.8594C233.785 60.9989 234.372 61.0693 235.153 61.0693C235.237 61.0696 235.278 61.1531 235.278 61.3203C235.278 61.4874 235.237 61.5711 235.153 61.5713C234.344 61.5713 233.702 61.5572 233.228 61.5293L230.381 61.4873L227.617 61.5293C227.143 61.5572 226.501 61.5713 225.691 61.5713C225.608 61.5711 225.566 61.4874 225.566 61.3203C225.566 61.153 225.608 61.0695 225.691 61.0693C226.473 61.0693 227.045 60.9989 227.408 60.8594C227.771 60.6919 228.023 60.4131 228.162 60.0225C228.302 59.6318 228.371 59.0177 228.371 58.1807V49.2217C228.371 47.1564 228.064 45.5787 227.45 44.4902C226.836 43.4019 225.914 42.8584 224.687 42.8584C222.644 42.8586 220.832 44.0448 219.244 46.4141V58.1807C219.244 59.0177 219.315 59.6459 219.454 60.0645C219.594 60.4548 219.845 60.7198 220.207 60.8594C220.57 60.9989 221.156 61.0693 221.966 61.0693C222.022 61.0694 222.05 61.1529 222.05 61.3203C222.05 61.4875 222.022 61.5712 221.966 61.5713C221.156 61.5713 220.514 61.5572 220.04 61.5293L217.151 61.4873L214.389 61.5293C213.914 61.5572 213.272 61.5713 212.463 61.5713C212.379 61.5713 212.337 61.4876 212.337 61.3203C212.337 61.1529 212.379 61.0693 212.463 61.0693C213.244 61.0693 213.816 60.9988 214.179 60.8594C214.541 60.7199 214.779 60.455 214.891 60.0645C215.03 59.6459 215.1 59.0177 215.1 58.1807V45.3701C215.1 44.5328 215.03 43.9181 214.891 43.5273C214.779 43.1368 214.527 42.8719 214.137 42.7324C213.746 42.5651 213.146 42.4814 212.337 42.4814C212.281 42.4814 212.253 42.3969 212.253 42.2295C212.253 42.0624 212.281 41.9786 212.337 41.9785L216.565 42.0205L218.491 41.9785C218.826 41.9785 219.035 42.0349 219.119 42.1465C219.203 42.2303 219.244 42.4398 219.244 42.7744V45.0264C219.897 44.2413 220.609 43.5741 221.38 43.0254C222.859 41.965 224.491 41.4347 226.277 41.4346C228.287 41.4346 229.822 42.0204 230.883 43.1924C231.434 43.7872 231.841 44.5037 232.105 45.3398C232.893 44.3241 233.742 43.5107 234.65 42.8994C236.129 41.9227 237.706 41.4347 239.381 41.4346ZM52.4805 48.0078C51.6948 48.0078 50.9687 48.0365 50.3027 48.0918V58.1807C50.3027 59.1017 50.4848 59.7577 50.8477 60.1484C51.2105 60.5112 52.0056 60.6924 53.2334 60.6924C56.8895 60.6924 58.7178 58.7947 58.7178 54.999C58.7177 52.8501 58.2016 51.1475 57.1689 49.8916C56.1364 48.6358 54.5734 48.0079 52.4805 48.0078ZM76.1582 42.6113C74.7071 42.6113 73.5628 43.309 72.7256 44.7041C72.2306 45.529 71.8821 46.5202 71.6797 47.6768L79.4502 47.543C79.4483 46.0938 79.2172 44.9521 78.7539 44.1182C78.2237 43.1135 77.3582 42.6114 76.1582 42.6113ZM157.064 42.6113C155.613 42.6113 154.469 43.309 153.632 44.7041C153.137 45.529 152.788 46.5202 152.586 47.6768L160.356 47.543C160.355 46.0938 160.123 44.9521 159.66 44.1182C159.13 43.1135 158.264 42.6114 157.064 42.6113ZM202.493 42.6113C201.042 42.6113 199.898 43.309 199.061 44.7041C198.566 45.529 198.217 46.5202 198.015 47.6768L205.785 47.543C205.783 46.0938 205.552 44.9521 205.089 44.1182C204.559 43.1135 203.693 42.6114 202.493 42.6113ZM52.4385 36.2021C51.6292 36.2021 51.0707 36.3975 50.7637 36.7881C50.4567 37.1509 50.3027 37.8492 50.3027 38.8818V46.8506C50.9083 46.8678 51.4665 46.8779 51.9775 46.8779C53.4288 46.8779 54.5457 46.3336 55.3271 45.2451C56.1086 44.1567 56.499 42.761 56.499 41.0586C56.499 39.4678 56.1499 38.2674 55.4521 37.458C54.7545 36.6209 53.75 36.2022 52.4385 36.2021Z" fill="white"/>
</svg>
