<svg width="75" height="66" viewBox="0 0 75 66" fill="none" xmlns="http://www.w3.org/2000/svg">
<path fill-rule="evenodd" clip-rule="evenodd" d="M41.4017 30.6709C43.7007 30.5974 46.0266 30.5834 48.3919 30.8574C50.9161 31.17 52.9578 32.6263 54.8665 33.3613C55.118 33.4575 55.3819 33.5433 55.6527 33.6123C57.3114 33.9925 59.0913 35.0197 60.1946 35.8877C60.6461 36.2196 60.8173 36.4872 61.2777 36.6943C61.4179 36.7568 61.577 36.822 61.763 36.8936C61.749 36.9413 61.7352 36.9894 61.721 37.0371C62.5102 37.411 63.0379 37.6373 63.8109 38.2002C64.4406 38.6518 65.9229 39.8767 66.5013 40.3809C66.5325 40.4078 66.5613 40.4337 66.5872 40.457C66.8781 40.7251 66.7087 40.694 66.971 40.9443C67.429 41.3644 68.3426 42.3091 68.7913 42.9668C69.0177 43.2865 69.2882 43.7378 69.5433 44.124C69.7812 44.4804 69.9961 44.8157 70.1478 45.0195C70.8463 45.9604 71.5471 46.9024 72.3441 47.7178C73.1052 48.4929 73.5207 49.5669 73.7083 50.4746C73.8435 51.0935 73.8438 51.866 73.8763 52.0469C73.9392 52.4009 74.0683 52.4913 74.1185 52.7256C74.1242 52.7526 74.1304 52.7806 74.1361 52.8086C74.3966 54.0375 74.4089 55.9794 74.2659 57.2295C74.1906 58.7091 73.4308 60.4904 72.8323 61.5518C72.2627 62.7161 71.2924 62.9792 70.596 63.2471C69.8628 63.4928 69.1703 63.6446 68.5599 63.8359C67.2308 64.1807 66.1928 64.2039 65.0755 64.2998C62.6194 64.474 58.591 64.6668 56.3587 64.7344C55.8803 64.7477 55.9938 64.6134 55.5941 64.6416C55.1459 64.674 54.9116 64.7781 54.7054 64.8018C54.5432 64.8205 54.3491 64.8431 54.1488 64.8672C52.6709 65.1289 50.2259 65.188 48.9134 65.1543C48.8068 65.1509 48.7046 65.1467 48.6097 65.1416C48.3464 65.1272 48.1537 65.0309 47.9974 65.0322C47.9206 65.033 47.7354 65.1009 47.4896 65.1094C45.2858 65.1837 43.6775 65.148 41.5189 65.127C38.551 65.0971 35.2459 65.1484 32.0091 65.1309C30.7343 65.1234 29.4711 65.1027 28.2454 65.0645C27.3003 65.0349 26.6545 64.8287 26.5208 64.8281C26.2292 64.8273 26.0399 64.9556 25.4495 64.9785C23.4838 65.0521 20.8438 64.878 18.9788 64.9395C18.0696 64.9681 16.8301 65.1326 15.9261 65.1787L15.9603 65.1777C15.9473 65.1788 15.934 65.1797 15.9212 65.1807C15.1908 65.2411 13.4669 65.2248 13.1429 65.3027C12.9455 65.3513 12.8605 65.4942 12.6224 65.5166C12.4061 65.5364 12.0969 65.4572 11.8392 65.4561C10.7635 65.4494 10.3614 65.3919 9.38703 65.3545C8.70454 65.3235 7.44745 65.3357 6.20441 65.2119C6.13229 65.294 6.01051 65.3779 6.07355 65.4775C4.681 65.3645 4.08986 65.177 2.9593 64.6475C2.66308 64.553 2.35994 64.4427 2.04426 64.2676C1.10778 63.778 0.292081 62.7597 0.0979688 61.6709C-0.119064 60.5886 0.0585047 59.5719 0.300117 58.6455C0.42327 58.4698 0.550566 58.3005 0.68 58.1348C1.01558 57.3773 0.971843 56.9997 1.08137 56.5811C1.1583 56.2863 1.26281 55.9362 1.28938 55.709C1.55768 53.7191 2.80228 51.5316 3.4759 49.4365C4.41745 47.0784 5.93907 45.7488 7.19953 44.3096C8.03173 43.421 8.85262 42.7023 9.53156 42.0723C9.86021 41.7687 10.5054 41.1388 11.1409 40.4941C11.9311 39.6843 12.8428 38.9701 13.1859 38.7998C13.3514 38.7157 13.4566 38.778 13.6155 38.6709C14.948 37.6181 16.5533 36.8289 17.9105 36.0732C18.0601 36.0033 18.2019 35.9313 18.3284 35.8564C19.7855 34.9532 21.4028 34.2253 22.9603 33.6055C24.4753 32.9904 25.9831 32.4843 27.3909 31.8818C27.5975 31.7936 27.8019 31.7022 28.0032 31.6084C30.4411 30.5627 32.8623 30.8614 35.096 30.8467C37.0816 30.8565 39.0783 30.7514 41.095 30.6826C41.1762 30.6458 41.2726 30.636 41.389 30.668C41.393 30.669 41.3976 30.6697 41.4017 30.6709ZM44.1204 32.5195C43.6514 32.5066 42.9653 32.5202 42.2943 32.5371C42.2584 32.6007 42.207 32.6617 42.2073 32.6963C42.2087 32.744 42.2896 32.7815 42.2884 32.8311C42.2865 32.8868 42.1868 32.9607 42.1878 33.0615C42.1899 33.2275 42.4045 33.285 42.4202 33.3867C42.4358 33.4927 42.2962 33.6356 42.3548 33.7754C42.3764 33.7946 42.3987 33.8137 42.4202 33.833C42.476 33.8288 42.5324 33.8246 42.5882 33.8203C42.6017 33.877 42.5274 33.8973 42.4945 33.9355C42.5171 33.9862 42.5822 34.0232 42.5794 34.0625C42.5758 34.1036 42.487 34.1527 42.4876 34.2051C42.4888 34.2818 42.612 34.2764 42.6321 34.3193C42.6402 34.3363 42.6779 34.6451 42.6771 34.667C42.6683 34.7983 42.4995 34.7927 42.473 34.8936C42.4007 35.1742 42.4967 35.4814 42.512 35.7451C42.5189 35.8629 42.4922 35.9811 42.4495 36.0898C42.0477 35.8528 41.66 36.1971 42.3489 36.1455C42.2363 36.2569 42.4031 36.3716 42.3568 36.4844C42.3258 36.5593 42.2255 36.5966 42.2122 36.707C42.1903 36.8988 42.4253 37.1471 41.9417 37.1357C41.995 37.3734 41.798 37.5453 42.2083 37.6807C42.2251 37.7443 41.9573 37.8563 41.9144 37.9199C41.8747 37.9743 41.7057 38.439 41.6907 38.5146C41.6756 38.5916 41.6532 38.728 41.6829 38.7969C41.7199 38.8844 42.1517 38.9891 41.6243 39.0801C41.6478 39.2576 41.6275 39.3127 41.5521 39.4678C41.5383 39.4955 41.4631 39.4921 41.4603 39.5088C41.4569 39.5431 41.507 39.6065 41.5081 39.6689C41.5094 39.7715 41.345 39.8167 41.5902 39.8281C41.6247 39.8986 41.66 39.9682 41.6946 40.0391C41.6453 40.0583 41.5956 40.0772 41.5462 40.0967C41.5942 40.1373 41.6425 40.1798 41.6907 40.2188C41.3411 40.1453 41.5273 40.414 41.7376 40.3506C41.6986 40.4073 41.6595 40.4651 41.6204 40.5234C41.5753 40.5873 41.5302 40.6526 41.4857 40.7178C41.0844 40.6696 41.4187 40.9958 41.64 40.9844C41.6387 40.9988 41.6373 41.0139 41.6361 41.0283C41.5212 41.1492 41.6016 41.2728 41.5218 41.4268C41.4414 41.5812 41.4023 41.5655 41.2142 41.6045C41.2229 41.6424 41.2318 41.6809 41.2405 41.7188C41.7395 41.9423 40.8617 41.8627 41.2337 42.2236C40.9088 42.3156 41.0614 42.5945 41.1458 42.7822C41.1561 42.8037 41.2173 42.8089 41.2347 42.8379C41.2761 42.9095 41.1834 43.0805 41.3831 43.0908C41.3204 43.1471 41.257 43.205 41.1937 43.2607C41.2252 43.3139 41.2566 43.3691 41.2874 43.4238C41.3495 43.4301 41.4119 43.4362 41.4739 43.4424C41.2517 43.5232 41.3129 43.6952 41.2513 43.7705C41.2388 43.7852 41.1529 43.7775 41.1224 43.8232C41.0867 43.8761 41.0945 43.9905 41.056 44.0547C41.1454 44.0973 41.2349 44.1421 41.3236 44.1875C41.35 44.3274 41.0931 44.3238 41.057 44.3926C41.0523 44.4041 41.0092 44.6526 41.0081 44.6719C41.0155 44.7938 41.2413 44.8226 41.0736 45.1475C41.0423 45.2048 40.9547 45.2253 40.928 45.2773C40.8888 45.3653 40.8801 45.7359 40.9896 45.8477C40.7544 45.8714 40.5747 46.2248 40.4407 46.2695C40.4026 46.2819 40.3104 46.2011 40.2161 46.251C40.1695 46.2755 40.1146 46.3637 40.0491 46.4395C40.0194 46.4797 39.9874 46.517 39.9554 46.5312C39.8693 46.5689 39.7824 46.5004 39.7435 46.5166C39.7066 46.5325 39.7195 46.6236 39.6693 46.6533C39.5087 46.7451 39.291 46.707 39.1009 46.7588C39.0001 46.7846 38.894 46.8409 38.7239 46.876C38.5596 46.9128 38.293 46.8981 38.0648 46.7666C38 46.7717 37.9357 46.7759 37.8812 46.7705C37.8649 46.7335 37.8738 46.6691 37.846 46.6426C37.4996 46.312 37.1549 45.8765 36.9007 45.4521C36.7729 45.2538 36.7582 44.6003 36.3607 45.0264C36.2253 45.0086 36.1298 44.3648 36.0941 44.2607C36.049 44.157 35.9205 44.1127 35.8841 44.0283C35.8358 43.9147 35.8103 43.8085 35.7816 43.7012C35.7465 43.5691 35.7055 43.436 35.6116 43.2773C35.5671 43.2039 35.4295 43.1473 35.4193 43.0996C35.408 43.042 35.5052 42.9547 35.4964 42.8818C35.4727 42.7061 35.3733 42.4045 35.3636 42.248C35.3634 42.2195 35.46 42.1899 35.4837 42.1445C35.5758 41.9658 35.5323 41.7985 35.2191 41.8916C35.3617 41.6642 35.1609 41.5262 35.1126 41.3662C35.0245 41.052 34.9223 40.5331 34.7122 40.332C34.689 40.3051 34.6648 40.28 34.6409 40.2588C34.4691 40.1061 34.3405 40.1773 34.3089 39.8291C34.3019 39.7517 34.3044 39.6693 34.2952 39.5742C34.2738 39.3495 34.4362 39.0617 34.0726 39.0449C34.0512 38.7914 33.9199 38.6306 34.1126 38.3613C34.0431 38.366 33.9733 38.3709 33.9036 38.375C33.8913 38.3478 33.8787 38.3196 33.8665 38.292C33.9226 38.2606 33.9792 38.2292 34.0355 38.1982C33.9766 37.9961 33.6415 37.8188 33.5892 37.6387C33.5138 37.3947 33.4357 36.8117 33.4456 36.4463C33.4482 36.3719 33.4526 36.3077 33.4593 36.2588C33.4781 36.1135 33.344 36.1326 33.6038 36.002C33.5789 35.9749 33.5535 35.9474 33.5286 35.9209C33.4649 35.9135 33.4009 35.9065 33.3372 35.8994C33.3013 35.7251 33.3532 35.4997 33.3187 35.334C33.2556 35.0314 32.9951 34.6103 33.0384 34.2803C33.0499 34.1976 33.1529 34.075 33.1361 34C33.1104 33.8903 32.8997 33.9056 32.8665 33.7656C32.8095 33.5234 32.9563 33.0183 32.8958 32.7881C32.8861 32.7521 32.8586 32.7299 32.8323 32.71C31.3176 32.7068 29.7235 32.7992 28.7806 33.3135C28.3661 33.516 27.992 33.6879 27.681 33.8369C26.8972 34.2057 26.6794 34.3762 26.0599 34.6055C25.984 34.6892 25.9084 34.7727 25.8314 34.8545C25.9017 34.9174 25.8012 35.073 25.8216 35.1172C25.8387 35.1534 25.9253 35.1529 25.9407 35.1914C25.9581 35.2347 25.891 35.3273 25.9261 35.4043C25.9838 35.5305 26.202 35.4972 26.2513 35.5693C26.3016 35.645 26.2206 35.8047 26.3226 35.8906C26.3493 35.8976 26.3769 35.904 26.4036 35.9111C26.4539 35.8879 26.5047 35.865 26.555 35.8418C26.5852 35.8786 26.5297 35.9188 26.5091 35.958C26.5481 35.9847 26.6147 35.9896 26.6243 36.0195C26.6342 36.0529 26.5678 36.124 26.5863 36.1641C26.6132 36.2222 26.7252 36.1725 26.7581 36.1982C26.7712 36.2085 26.9126 36.4371 26.9173 36.4512C26.9529 36.5557 26.7938 36.6129 26.803 36.7002C26.8305 36.9426 27.0244 37.1442 27.1282 37.3408C27.1745 37.4284 27.1896 37.5279 27.1868 37.626C26.7323 37.5886 26.4878 37.9901 27.1116 37.7041C27.0445 37.8295 27.2397 37.8583 27.2347 37.9609C27.2312 38.0291 27.1498 38.0936 27.1751 38.1826C27.22 38.3364 27.522 38.4408 27.0687 38.6055C27.1986 38.7673 27.0726 38.9687 27.5003 38.9238C27.5383 38.9658 27.325 39.1491 27.307 39.2129C27.2885 39.2704 27.2878 39.6841 27.2991 39.7461C27.3108 39.8103 27.3352 39.9224 27.3861 39.9639C27.45 40.017 27.8854 39.9404 27.4261 40.2012C27.5066 40.3276 27.5062 40.3771 27.4876 40.5225C27.4843 40.5489 27.4113 40.5751 27.4154 40.5889C27.4246 40.616 27.4914 40.6457 27.513 40.6924C27.548 40.7701 27.4101 40.8647 27.6409 40.7842C27.6965 40.8254 27.7521 40.8658 27.8079 40.9072C27.7688 40.9396 27.7298 40.9722 27.6907 41.0049C27.7489 41.0183 27.8078 41.0329 27.8655 41.0449C27.5155 41.1169 27.7779 41.2546 27.9525 41.1289C27.9349 41.1866 27.9168 41.2457 27.8997 41.3047C27.8788 41.3695 27.8582 41.4351 27.8382 41.501C27.4494 41.6121 27.8682 41.7366 28.0696 41.6455C28.0732 41.6569 28.0759 41.6692 28.0794 41.6807C28.0117 41.8156 28.1275 41.8805 28.1029 42.0283C28.0784 42.1756 28.0368 42.1777 27.8753 42.2773C27.8957 42.3031 27.9165 42.3297 27.9368 42.3555C28.4715 42.3408 27.6312 42.607 28.0941 42.7451C27.8225 42.9367 28.0545 43.092 28.1946 43.2051C28.2108 43.2181 28.2693 43.2001 28.2952 43.2158C28.3572 43.2556 28.3279 43.423 28.5169 43.3574C28.4775 43.4237 28.4379 43.4917 28.3978 43.5576C28.4448 43.5871 28.4923 43.6184 28.5394 43.6494C28.5991 43.6316 28.6593 43.6126 28.7191 43.5947C28.54 43.7382 28.6545 43.849 28.6234 43.9297C28.6168 43.9456 28.5345 43.9711 28.5218 44.0176C28.5069 44.0713 28.5529 44.1564 28.5394 44.2197C28.6373 44.221 28.736 44.2245 28.8343 44.2285C28.9082 44.3288 28.668 44.4164 28.6595 44.4824C28.6594 44.4943 28.7086 44.7051 28.7142 44.7178C28.7662 44.8105 28.9846 44.7562 28.9515 45.0713C28.9443 45.1278 28.8698 45.1739 28.8655 45.2246C28.8628 45.3077 29.0001 45.6117 29.1448 45.6699C28.9387 45.7645 28.9202 46.116 28.8196 46.1973C28.791 46.2201 28.6738 46.1789 28.6107 46.25C28.5796 46.2849 28.5681 46.3766 28.5423 46.4619C28.5339 46.5043 28.5217 46.5461 28.5003 46.5674C28.4421 46.6236 28.3381 46.5901 28.3118 46.6152C28.2881 46.6397 28.337 46.7137 28.307 46.7539C28.2077 46.8808 28.0057 46.9119 27.8646 47.0205C27.7888 47.0767 27.7205 47.1636 27.5853 47.2578C27.4558 47.3516 27.2117 47.4402 26.9583 47.4082C26.9072 47.4398 26.8569 47.4692 26.8109 47.4873C26.7869 47.4614 26.7758 47.4005 26.7454 47.3887C26.3686 47.2406 25.961 47.0041 25.6282 46.7461C25.4648 46.6285 25.2705 46.0784 25.0462 46.6113C24.9246 46.6519 24.6592 46.1476 24.598 46.0771C24.529 46.0096 24.4038 46.0263 24.347 45.9717C24.2712 45.8975 24.2176 45.8207 24.1605 45.7441C24.0905 45.6499 24.0151 45.5579 23.8841 45.4678C23.8227 45.4264 23.6824 45.4365 23.6585 45.4023C23.6309 45.3606 23.6938 45.2502 23.6644 45.1953C23.5914 45.064 23.4121 44.8654 23.3577 44.7461C23.3489 44.7237 23.4288 44.6607 23.4368 44.6152C23.4685 44.437 23.3804 44.3244 23.1234 44.5254C23.1877 44.2888 22.9665 44.2633 22.8792 44.1592C22.7126 43.9519 22.4889 43.5941 22.2659 43.5283C22.2386 43.5161 22.2113 43.5052 22.1849 43.498C21.9952 43.4462 21.9029 43.5612 21.7816 43.2871C21.7545 43.2261 21.7343 43.1569 21.7005 43.082C21.6201 42.905 21.6838 42.5975 21.3597 42.7383C21.2708 42.5377 21.1103 42.4596 21.2054 42.1572C21.1449 42.1905 21.0836 42.2241 21.0228 42.2568C21.0043 42.2397 20.9857 42.2225 20.9671 42.2051C21.0081 42.1557 21.0499 42.1057 21.0911 42.0566C20.9827 41.916 20.6332 41.9119 20.5335 41.7871C20.3958 41.62 20.1538 41.1809 20.053 40.8857C20.0339 40.8266 20.0201 40.7744 20.012 40.7334C19.9872 40.6114 19.8696 40.6811 20.0677 40.4727C20.0374 40.4616 20.007 40.4511 19.9769 40.4404C19.9169 40.4606 19.8561 40.4805 19.7962 40.501C19.7133 40.379 19.6955 40.1806 19.6165 40.0645C19.4722 39.8525 19.1157 39.6277 19.0599 39.3496C19.0466 39.2797 19.1046 39.1411 19.0677 39.0889C19.0132 39.0124 18.827 39.1111 18.7562 39.0146C18.6344 38.8469 18.6207 38.3878 18.4984 38.2305C18.462 38.184 18.3813 38.2017 18.3519 38.1719C18.2396 38.0567 18.1711 37.9442 18.015 37.8652C17.9584 37.9509 17.9014 38.0373 17.846 38.1221C17.706 38.1909 17.5691 38.2577 17.4329 38.3252C17.3618 38.289 17.2922 38.2513 17.222 38.2148C16.2271 38.6672 15.2174 39.5566 14.512 40.0723C14.0146 40.4236 13.2075 41.0365 12.4202 41.7842C11.2231 42.9185 9.89329 44.0429 9.26984 44.6055C8.72962 45.0882 8.773 45.2251 8.35871 45.3496C8.33411 45.3575 8.3076 45.3659 8.27961 45.374C8.17714 45.5178 8.07563 45.6607 7.97492 45.8047C7.94901 45.9269 7.92351 46.0499 7.89875 46.1719C7.24816 46.9229 6.42928 47.7733 5.92121 48.5273C5.63711 48.9479 5.31706 49.4993 5.2093 49.9346C4.78805 51.4983 4.09503 52.9621 3.60871 54.0254C3.42515 54.4111 3.12683 54.8651 3.01203 55.2568C2.91216 55.5977 2.94045 55.8036 2.94758 56.0605C2.92914 56.3363 2.88082 56.5815 2.76691 56.8994C2.23604 58.2098 1.24731 60.469 1.62629 61.4697C1.70811 61.7579 1.83979 61.8448 1.93586 62.0029C2.1668 62.3639 2.47321 62.6203 2.86262 62.8164C3.13363 62.9479 3.53582 63.0489 3.9759 63.1016C4.19583 63.1971 4.36153 63.2842 4.49055 63.3623C4.54423 63.3287 4.6071 63.3057 4.68195 63.2998C4.97568 63.2801 5.42818 63.3031 5.90949 63.3604C5.91627 63.3609 5.9354 63.3625 5.94172 63.3633C6.60241 63.4719 7.37677 63.5641 7.61359 63.5664C7.88198 63.5674 8.21534 63.5004 8.55988 63.4922C9.66876 63.4639 10.2538 63.5163 11.2542 63.3057C11.6579 63.4085 12.0565 63.51 12.4613 63.6094C12.984 63.5511 13.7807 63.6723 14.1009 63.6553C14.3601 63.6414 14.5137 63.5527 14.7845 63.54C15.0502 63.5273 15.4363 63.5808 15.8978 63.5723C15.9016 63.5722 15.9119 63.5722 15.9154 63.5723C15.9879 63.5733 16.0625 63.5726 16.138 63.5703C17.0532 63.5434 17.2162 63.3235 17.7659 63.2949C18.3358 63.2656 19.2229 63.3873 19.9505 63.3145C20.0418 63.2908 20.1332 63.2677 20.2239 63.2441C20.1594 63.189 20.0945 63.1332 20.0296 63.0781C20.3945 63.055 20.5541 63.169 20.89 63.1738C21.2857 63.1796 21.4896 63.0749 21.7552 63.0781C21.9741 63.081 22.2682 63.1698 22.5521 63.168C22.9635 63.1657 22.8768 63.0416 23.0989 63.0215C23.1924 63.0131 24.8264 62.9689 24.9183 62.9697C25.6198 62.9761 25.6788 63.146 26.2376 63.1699C27.7884 63.2357 29.3813 63.125 30.8128 63.0898C31.2118 63.0801 31.62 63.0829 32.0267 63.0938C32.2662 63.1003 32.5162 63.1102 32.7542 63.1221C31.7495 63.5464 33.9683 63.8974 33.1409 63.2168C33.8501 63.3173 34.3554 63.1382 35.0286 63.1719C35.4633 63.1938 35.7677 63.2886 36.387 63.2881C37.4912 63.2865 38.6986 63.0217 39.0159 63.5029C40.3119 63.4195 41.4351 63.593 41.9017 63.168C42.2351 63.142 43.0944 63.3933 43.4671 63.4268C43.8249 63.4593 46.5429 63.5637 46.9876 63.5664C47.433 63.5703 48.2118 63.5719 48.5843 63.5312C48.6959 63.5194 48.7979 63.486 48.8978 63.4482C49.2373 63.3247 49.5723 63.1567 50.2161 63.5391C51.1823 63.4774 51.5265 63.4844 52.4193 63.5C52.5798 63.5021 52.605 63.5769 52.6956 63.5713C52.8904 63.5587 53.2095 63.4804 53.5384 63.4336C53.7053 63.4102 53.8678 63.4002 54.0179 63.3994C54.3025 63.4017 54.4535 63.4132 54.3939 63.248C54.7739 63.1749 55.1563 63.1047 55.5384 63.0361C55.6756 63.0738 55.8145 63.1114 55.9534 63.1494C56.1528 63.0841 56.3571 63.0187 56.5579 62.9541C56.3398 63.3233 57.7666 63.0256 57.2874 62.8506C58.0351 62.8793 58.7819 62.9119 59.5267 62.9453C59.4462 63.3535 61.151 62.9053 60.9974 62.6934C61.0818 62.6891 61.1663 62.6849 61.2503 62.6807C61.9964 62.7474 62.6726 62.6219 63.5755 62.6377C64.4771 62.6521 64.3982 62.6957 64.681 62.8623C64.896 62.8361 65.0991 62.8093 65.3138 62.7812C66.3426 62.1641 66.3267 63.1319 68.0198 62.4121C68.0549 62.4225 68.0911 62.4307 68.1253 62.4365C68.8519 62.457 70.2155 62.0293 70.8831 61.5547C70.9628 61.4976 70.9357 61.4431 71.0247 61.3623C71.1546 61.2506 71.358 61.0734 71.3919 60.9238C71.4848 60.6767 71.5375 60.5101 71.4554 60.4814C71.6711 60.1936 71.8739 59.9473 72.0589 59.6895C72.1346 59.4437 72.1959 59.1993 72.2425 58.9541C72.1831 58.9348 72.1231 58.9149 72.0638 58.8955C72.4359 58.5076 72.5136 57.7004 72.6019 57.3115C72.6208 57.2335 72.7099 57.2299 72.7552 56.9805C72.8099 56.6906 72.8035 56.1401 72.8236 55.7871C72.7262 55.6456 72.6265 55.5191 72.5257 55.3838C72.4466 54.7639 72.6732 54.5185 72.6566 54.1445C72.6545 54.0857 72.5719 53.4403 72.5042 53.0518C72.4796 52.9045 72.4609 52.8003 72.4564 52.7803C72.3224 52.2486 72.1696 52.3937 71.9027 50.8955C71.8496 50.6363 71.8645 50.4127 71.7943 50.1943C71.7063 49.8381 71.1734 49.146 70.8655 49.0508C70.8031 49.0153 70.7553 48.9959 70.7269 48.998C70.4559 48.4285 69.4725 47.2214 69.2757 46.8252C69.2135 46.7055 69.2971 46.6084 69.0872 46.2598C68.9336 46.0037 68.4625 45.4694 68.1995 45.125C68.1688 45.0843 68.1407 45.0446 68.1165 45.0088C67.8595 44.6244 67.8567 44.4338 67.7474 44.2656C67.6448 44.1073 67.4766 44.0136 67.3314 43.8086C66.8817 43.1684 66.5624 42.5465 66.1497 42.1172C65.9463 41.9046 65.7205 41.7336 65.4886 41.5957C65.0069 41.3 64.5245 41.0693 64.0931 40.8086C63.9582 40.6767 63.8487 40.5183 63.6966 40.3945C62.7074 39.5907 61.6664 38.7721 60.5384 38.1992C60.5007 38.1789 60.4641 38.1562 60.4271 38.1357C60.3549 38.2111 60.2963 38.294 60.221 38.3799C60.1892 38.4154 60.1063 38.4033 60.0667 38.458C59.9328 38.6446 59.9009 39.1551 59.7669 39.3545C59.6891 39.4697 59.4979 39.3808 59.4378 39.4717C59.397 39.5343 59.452 39.683 59.4349 39.7617C59.3647 40.0774 58.9797 40.3674 58.8196 40.6191C58.7318 40.7574 58.7041 40.9821 58.6126 41.126C58.5507 41.1097 58.4878 41.0947 58.4261 41.0781C58.394 41.0931 58.3617 41.1086 58.3294 41.124C58.5267 41.3362 58.4079 41.2704 58.3763 41.4082C58.3623 41.4686 58.3398 41.5459 58.3079 41.6367C58.1895 41.967 57.9509 42.422 57.8138 42.6074C57.7086 42.7532 57.3415 42.8001 57.2249 42.9668C57.2681 43.0142 57.3127 43.0608 57.3558 43.1084C57.3359 43.1297 57.3154 43.1516 57.2952 43.1729C57.2311 43.1457 57.1675 43.1176 57.1038 43.0898C57.2027 43.4018 57.0319 43.5052 56.9359 43.7324C56.5904 43.6275 56.6565 43.9471 56.5687 44.1484C56.5317 44.2334 56.5079 44.3102 56.4779 44.3799C56.3431 44.6928 56.2452 44.5847 56.0374 44.6699C55.9959 44.6869 55.9523 44.7101 55.9085 44.7383C55.657 44.8741 55.4043 45.295 55.223 45.5391C55.1238 45.6683 54.8891 45.7219 54.9456 45.9795C54.6854 45.7824 54.5875 45.9177 54.6136 46.1123C54.6203 46.1622 54.7026 46.2246 54.6917 46.25C54.6303 46.3878 54.4393 46.6232 54.3616 46.7725C54.3303 46.835 54.3939 46.9478 54.3646 46.9951C54.3399 47.0344 54.194 47.037 54.1302 47.0879C53.9653 47.2209 53.8856 47.3474 53.7991 47.4785C53.7558 47.5439 53.7106 47.6096 53.6527 47.6748C53.5938 47.7401 53.4609 47.7381 53.389 47.8193C53.3251 47.9029 53.0538 48.4699 52.9222 48.4434C52.6689 47.9208 52.4709 48.5277 52.2952 48.6738C51.9374 48.9932 51.4905 49.2972 51.0706 49.501C51.0368 49.5175 51.0265 49.5805 51.0003 49.6104C50.967 49.6028 50.9312 49.5913 50.8948 49.5771C50.5704 49.6687 50.1829 49.528 50.0482 49.3838C49.895 49.2414 49.8447 49.1252 49.7679 49.0469C49.6454 48.9153 49.4437 48.8498 49.3548 48.7012C49.3276 48.6538 49.3842 48.5823 49.3607 48.5527C49.341 48.5286 49.2718 48.5351 49.2161 48.5068C49.1979 48.4941 49.1802 48.478 49.1654 48.4561C49.0983 48.3589 49.1201 48.1172 49.0814 48.0469C49.0301 47.9569 48.9075 47.9771 48.8831 47.9473C48.7974 47.8405 48.8387 47.4748 48.6478 47.3486C48.8003 47.3115 48.9782 47.0173 48.9847 46.9258C48.9862 46.8723 48.9174 46.8174 48.9163 46.7568C48.9167 46.4205 49.1297 46.4951 49.1907 46.3965C49.1978 46.3836 49.2644 46.1583 49.2659 46.1426C49.2635 46.0685 49.0295 45.965 49.1107 45.8574C49.2097 45.8557 49.3088 45.8551 49.4075 45.8555C49.3989 45.7844 49.4525 45.6904 49.4417 45.6299C49.4327 45.5779 49.3522 45.5491 49.346 45.5312C49.3196 45.4417 49.4437 45.3175 49.2718 45.1582C49.331 45.1777 49.3903 45.1973 49.4495 45.2168C49.4993 45.1816 49.5502 45.1462 49.5999 45.1123C49.5635 45.0383 49.5273 44.9629 49.4915 44.8887C49.6785 44.9588 49.659 44.7715 49.7239 44.7246C49.7508 44.7057 49.8096 44.7257 49.8275 44.7109C49.9768 44.5787 50.2233 44.3915 49.9593 44.1836C50.4376 44.0074 49.5983 43.7385 50.1409 43.7324C50.1633 43.7018 50.186 43.6711 50.2083 43.6406C50.0496 43.5339 50.0079 43.5332 49.9915 43.3652C49.9751 43.1974 50.0954 43.118 50.0345 42.9658C50.0388 42.9524 50.0439 42.9382 50.0482 42.9248C50.2482 43.0201 50.6796 42.8581 50.2904 42.7471C50.2848 42.7217 50.2795 42.6962 50.2738 42.6709C50.2496 42.5517 50.2244 42.4342 50.1986 42.3193C50.3679 42.4581 50.6432 42.2885 50.2923 42.2178C50.3522 42.2003 50.4123 42.1831 50.472 42.166C50.434 42.1299 50.3958 42.0934 50.3577 42.0576C50.416 42.0108 50.4766 41.9582 50.5355 41.9092C50.7653 41.9943 50.6314 41.8917 50.6712 41.8027C50.6958 41.7483 50.7666 41.7077 50.7767 41.6758C50.7806 41.6601 50.7104 41.6341 50.7083 41.6045C50.6967 41.4426 50.7023 41.3763 50.7904 41.2334C50.3415 40.9442 50.777 41.0204 50.845 40.959C50.8993 40.9086 50.9314 40.7783 50.9466 40.7061C50.9639 40.6281 50.9844 40.1592 50.971 40.0879C50.9557 40.0178 50.7548 39.8052 50.7952 39.7588C51.2242 39.8027 51.1114 39.5691 51.2523 39.3818C50.8045 39.1975 51.1148 39.0735 51.1702 38.8926C51.2005 38.7922 51.126 38.716 51.1263 38.6396C51.1277 38.5203 51.3251 38.4855 51.2659 38.3418C51.8777 38.6601 51.6576 38.2012 51.1956 38.2529C51.1994 38.139 51.2204 38.0242 51.2728 37.9229C51.3905 37.6948 51.5995 37.4619 51.6419 37.1855C51.6563 37.0863 51.4997 37.0261 51.5413 36.9072C51.5468 36.8915 51.6996 36.6351 51.7161 36.6182C51.751 36.5875 51.8625 36.6413 51.8929 36.5742C51.914 36.5282 51.8518 36.4499 51.8636 36.4131C51.876 36.376 51.9521 36.3678 51.9915 36.3291C51.9783 36.2813 51.9125 36.2333 51.9476 36.1875C51.997 36.2133 52.0466 36.239 52.096 36.2646C52.1235 36.2562 52.1515 36.2488 52.179 36.2402C52.2878 36.1404 52.2156 35.9586 52.2708 35.8711C52.3245 35.7869 52.5442 35.8209 52.6107 35.6748C52.6509 35.586 52.5886 35.4814 52.6087 35.4316C52.6266 35.3872 52.7152 35.3854 52.7347 35.3438C52.7574 35.2921 52.6654 35.1169 52.7405 35.0439C52.6605 34.9441 52.5801 34.8438 52.5013 34.7422C52.6805 34.6646 52.721 34.5827 52.7698 34.4775C51.9784 34.0463 51.1741 33.5747 50.9407 33.4746C50.4608 33.253 50.0452 33.1974 49.6712 33.0732C49.1199 32.8917 48.6497 32.7656 48.1409 32.6875C47.5759 32.603 46.9547 32.5486 46.1614 32.5537C45.7601 32.5564 45.3277 32.6637 45.0892 32.6572C44.8037 32.6488 44.4942 32.5287 44.1204 32.5195ZM37.7698 63.3174C37.6556 63.2898 37.0848 63.3398 37.0501 63.3984C36.9207 63.6247 38.2772 63.44 37.7698 63.3174ZM51.3939 48.8896C51.3964 48.9324 51.3987 48.9757 51.4007 49.0186C51.4425 49.0266 51.4854 49.0347 51.5277 49.042C51.4984 48.9844 51.4681 48.9267 51.4388 48.8691C51.4239 48.8762 51.4088 48.8828 51.3939 48.8896ZM50.8284 47.9854C50.8286 48.0502 50.8152 48.1054 50.8089 48.0977C50.7978 48.0882 50.8727 48.0303 50.8284 47.9854ZM54.556 35.0234C54.5498 35.0483 54.5438 35.0719 54.5413 35.0918C54.5221 35.2502 54.5577 35.33 54.5228 35.501C54.5142 35.542 54.5797 35.6166 54.554 35.6455C54.5247 35.6758 54.3862 35.6468 54.3343 35.6641C54.2485 35.6925 54.2269 35.9846 54.1644 36.0928C54.0855 36.2274 53.8656 36.3867 53.7913 36.5283C53.7417 36.6228 53.7101 36.7383 53.6829 36.8604C53.6793 36.8703 53.6714 36.8979 53.6673 36.9072C53.5988 37.145 53.5539 37.4114 53.4212 37.5986C53.3612 37.682 53.2267 37.6736 53.2083 37.7188C53.2 37.7399 53.3546 37.8998 53.3245 38.0557C53.187 38.7704 52.8537 39.5394 52.6946 40.2412C52.6131 40.6059 52.5717 40.8867 52.4027 41.2344C52.3838 41.2731 52.3115 41.2838 52.306 41.2969C52.2977 41.3227 52.3812 41.3849 52.3841 41.4326C52.3976 41.6863 52.1483 42.1952 52.0257 42.4189C52.0082 42.4512 51.9133 42.4691 51.89 42.541C51.8689 42.6069 51.9944 42.6248 51.9866 42.71C51.9725 42.8515 51.9371 43.0165 51.887 43.2012C51.7929 43.5484 51.6539 43.9216 51.5687 44.1826C51.3619 44.8183 51.0694 45.4509 50.9114 46.0439C50.8617 46.2278 50.9211 46.5378 50.8157 46.6895C50.7947 46.7192 50.6785 46.7133 50.6624 46.7627C50.6549 46.7888 50.7534 46.913 50.7562 46.9883C50.7622 47.2633 50.6168 47.4912 50.6165 47.6699C50.6162 47.6997 50.6643 47.7314 50.7064 47.75C50.7165 47.7596 50.7263 47.7692 50.7357 47.7783C50.7817 47.784 50.8289 47.7891 50.8782 47.7852C50.8557 47.7419 50.8334 47.6975 50.8109 47.6543C51.0033 47.7001 50.9525 47.5205 51.0306 47.4453C51.2188 47.2652 51.5322 47.1422 51.7239 46.9688C51.9491 46.7671 52.1578 46.551 52.347 46.3203C52.9937 45.5454 53.5454 44.3796 54.5765 43.4092C54.5922 43.3948 54.6087 43.3805 54.6243 43.3662C55.0647 42.9658 55.5862 42.6565 55.8138 42.126C56.0381 41.9699 56.2578 41.806 56.471 41.6309C56.4837 41.6034 56.3986 41.5297 56.39 41.4893C56.3605 41.3354 56.7243 40.9745 56.7962 40.833C56.8107 40.8059 56.8255 40.7768 56.8402 40.7471C57.1975 40.0255 57.6769 38.7643 58.3646 38.4102C58.4395 38.3713 58.629 38.4217 58.6302 38.2627L58.6312 38.2617C58.5863 38.1958 58.5405 38.1301 58.4954 38.0645C58.6766 37.7874 58.8513 37.5091 59.0228 37.2295C58.4666 36.8295 57.9686 36.4476 57.4349 36.1514C56.929 35.841 55.9653 35.3149 55.2454 35.1396C54.956 35.0613 54.7169 35.0016 54.5657 34.9912C54.5622 35.0034 54.5587 35.0169 54.556 35.0234ZM26.3284 46.999C26.3659 46.9864 26.4038 46.9732 26.4407 46.96C26.4415 46.9179 26.4424 46.8759 26.4437 46.834C26.4302 46.8292 26.4162 46.8242 26.4027 46.8193C26.3779 46.8791 26.3531 46.9393 26.3284 46.999ZM37.5394 46.0547C37.5825 46.0612 37.6264 46.0666 37.6693 46.0723C37.6838 46.0316 37.6982 45.9905 37.7132 45.9502C37.701 45.939 37.6883 45.9274 37.6761 45.916C37.6307 45.9621 37.5847 46.0085 37.5394 46.0547ZM23.6771 35.3213C23.6658 35.3248 23.6541 35.3286 23.6429 35.332C22.5755 35.6611 21.5624 35.8076 20.9925 36.4688C20.4814 36.6888 20.0442 36.9354 19.6331 37.166C19.7589 37.3556 19.8874 37.545 20.0198 37.7334C19.9742 37.7966 19.9275 37.8603 19.8821 37.9238C19.8771 38.0666 20.0603 38.004 20.1312 38.0312C20.7614 38.2781 21.1759 39.3335 21.4896 39.96C21.5087 39.9987 21.5281 40.0344 21.5472 40.0684C21.6103 40.1868 21.9392 40.4655 21.9056 40.6074C21.8955 40.6449 21.8145 40.7202 21.8255 40.7432C22.0209 40.8754 22.2208 40.9958 22.4251 41.1084C22.6247 41.5635 23.1015 41.7825 23.5062 42.1025C23.5098 42.1054 23.5142 42.1084 23.5179 42.1113C24.4949 42.9153 24.9969 43.9362 25.5511 44.5225C25.7233 44.7107 25.9155 44.8845 26.1263 45.0459C26.2953 45.1768 26.5711 45.2445 26.7376 45.3896C26.8068 45.4501 26.765 45.6316 26.9329 45.5605C26.9138 45.6054 26.8944 45.6505 26.8753 45.6953C26.956 45.6898 27.0298 45.657 27.1029 45.6436C27.1206 45.6317 27.1397 45.6214 27.1546 45.6084C27.1683 45.6021 27.1775 45.5934 27.178 45.584C27.1873 45.447 27.0614 45.3037 27.0989 45.1123C27.1103 45.0602 27.2202 44.9731 27.2161 44.9521C27.2055 44.9142 27.0904 44.9148 27.0716 44.8916C26.9838 44.7764 27.0717 44.5305 27.0374 44.3779C26.9309 43.8897 26.6801 43.3525 26.5091 42.8057C26.4292 42.551 26.2869 42.1686 26.2132 41.834C26.1878 41.7179 26.1715 41.6135 26.1673 41.5234C26.1635 41.4478 26.2893 41.4291 26.2718 41.3711C26.2521 41.3074 26.1615 41.2975 26.1448 41.2705C26.0342 41.0748 25.8143 40.6376 25.8402 40.4141C25.8457 40.3721 25.9304 40.3182 25.9251 40.2959C25.922 40.285 25.8494 40.2767 25.8323 40.2422C25.683 39.9415 25.656 39.6979 25.5941 39.3799C25.4739 38.7718 25.1838 38.1025 25.0892 37.4873C25.0692 37.3547 25.2283 37.2151 25.2239 37.1953C25.2084 37.1564 25.0761 37.1655 25.0218 37.0947C24.8956 36.9283 24.8691 36.687 24.8099 36.4766C24.805 36.4655 24.7964 36.43 24.7923 36.4189C24.7733 36.3263 24.7494 36.2392 24.7103 36.167C24.6446 36.0459 24.4367 35.913 24.3665 35.7988C24.3109 35.7067 24.3059 35.4559 24.223 35.4336C24.1728 35.4204 24.0357 35.4485 24.0081 35.4238C23.9846 35.3998 24.053 35.3347 24.0472 35.2998C24.0418 35.268 24.0398 35.2398 24.0394 35.2139C23.9229 35.2476 23.8025 35.2822 23.6771 35.3213ZM40.2405 32.4482C39.3552 32.3499 38.3614 32.389 38.5452 32.709C37.4021 32.5554 36.3485 32.7483 35.2698 32.748C35.2032 32.748 35.1346 32.7477 35.0657 32.7471C34.8724 32.7448 34.6672 32.7391 34.4534 32.7344C34.4717 32.8198 34.4892 32.9056 34.5081 32.9912C34.443 33.0378 34.3778 33.0849 34.3128 33.1318L34.303 33.1836C34.3045 33.2916 34.4606 33.3154 34.5111 33.3721C35.0233 33.9531 35.0512 35.3009 35.1273 36.1367C35.1319 36.1891 35.1374 36.239 35.1439 36.2861C35.1621 36.4485 35.3832 36.9227 35.305 37.0605C35.2836 37.0965 35.1797 37.1372 35.1829 37.168C35.3276 37.4117 35.4833 37.6465 35.6478 37.874C35.6972 38.4647 36.1032 38.9421 36.4007 39.4834C36.4033 39.4882 36.4059 39.4941 36.4085 39.499C37.0993 40.8037 37.1773 42.1531 37.5325 43.1016C37.6415 43.4037 37.7826 43.6968 37.9505 43.9824C38.0842 44.2128 38.3533 44.4352 38.4857 44.6719C38.5406 44.7704 38.4389 44.9282 38.64 44.9473C38.6055 44.9816 38.5709 45.0164 38.5364 45.0508C38.665 45.1054 38.7963 45.0925 38.9066 45.1738C38.9642 45.158 39.0345 45.1439 39.0911 45.1211C39.1117 45.1168 39.1276 45.109 39.1351 45.0977C39.2421 44.9374 39.2151 44.7008 39.345 44.4795C39.3816 44.4193 39.5235 44.3591 39.5286 44.333C39.5357 44.2837 39.43 44.2376 39.4241 44.2021C39.3966 44.0272 39.5826 43.7772 39.6136 43.5879C39.7168 42.9814 39.6943 42.2666 39.7503 41.5811C39.776 41.2615 39.7938 40.7743 39.8587 40.3721C39.8814 40.2315 39.9078 40.1071 39.9398 40.0049C39.9667 39.9195 40.0894 39.9535 40.096 39.8809C40.1029 39.8011 40.0238 39.7503 40.0198 39.7129C39.9961 39.4457 39.9687 38.8626 40.0823 38.625C40.1042 38.5801 40.2057 38.5568 40.2083 38.5293C40.2077 38.5152 40.1466 38.4748 40.1448 38.4297C40.1286 38.0295 40.2018 37.746 40.2738 37.3643C40.4095 36.6337 40.4179 35.7639 40.5814 35.0303C40.6169 34.8707 40.8228 34.7821 40.8236 34.7588C40.8243 34.7084 40.6993 34.6611 40.678 34.5576C40.6293 34.3145 40.7015 34.03 40.7298 33.7666C40.7297 33.7543 40.735 33.7187 40.7357 33.707C40.756 33.5948 40.7695 33.4868 40.763 33.3887C40.752 33.2244 40.6153 32.9845 40.597 32.8252C40.5902 32.7619 40.6103 32.6603 40.6243 32.5664C40.5076 32.5456 40.4363 32.4701 40.2405 32.4482ZM51.2454 39.0312C51.1876 39.0212 51.1122 39.1 51.1321 39.127C51.2256 39.2441 51.4698 39.0704 51.2454 39.0312ZM61.2611 38.4004C61.4198 38.4613 61.5793 38.527 61.7376 38.5957C61.6775 38.5115 61.6162 38.4277 61.554 38.3447C61.479 38.3007 61.4033 38.2572 61.3275 38.2148C61.3056 38.2767 61.2833 38.3387 61.2611 38.4004ZM27.0941 38.3027C26.87 38.3413 27.1013 38.4849 27.2005 38.3828C27.2218 38.3602 27.1518 38.2931 27.0941 38.3027ZM42.0882 36.8066C41.8674 36.7536 42.021 37.0151 42.1536 36.9434C42.1827 36.9274 42.1454 36.8204 42.0882 36.8066ZM51.9798 36.3809C51.9852 36.3737 51.9902 36.3656 51.9925 36.3564C51.9939 36.3508 51.9941 36.3445 51.9935 36.3389L51.9798 36.3809ZM26.4827 35.9229C26.4835 35.9256 26.4854 35.9291 26.4866 35.9316L26.4818 35.9111C26.4817 35.915 26.4817 35.919 26.4827 35.9229ZM42.4866 33.8945C42.4862 33.8991 42.4872 33.9039 42.4876 33.9082L42.4905 33.8799C42.4889 33.8843 42.4872 33.8896 42.4866 33.8945Z" fill="#8B5937"/>
<path fill-rule="evenodd" clip-rule="evenodd" d="M23.5452 7.84277C23.784 7.78706 24.018 7.90084 24.2767 7.95801C24.471 8.00524 24.9362 8.06916 25.1077 8.10059C25.2275 8.12618 25.3597 8.22464 25.4925 8.25C25.5138 8.50665 25.3812 8.50608 25.1614 8.55371C25.0878 8.76091 25.0343 8.95047 24.9945 9.15332C24.9191 9.15518 24.8433 9.15692 24.7679 9.16016L24.7425 9.18555C24.7101 9.24361 24.8493 9.30368 24.8792 9.34863C25.1957 9.81111 24.8493 10.6199 24.8363 11.1436C24.8343 11.1954 24.8574 11.2909 24.8743 11.3945C24.8921 11.4887 24.9063 11.5767 24.8489 11.6191C24.8214 11.6388 24.7128 11.6641 24.7093 11.6816C24.8045 11.8178 24.913 11.9328 25.0296 12.0293C24.9887 12.3685 25.3161 12.5637 25.5706 12.7705C26.0628 13.2325 26.7049 13.3311 27.4779 14.3799C27.7157 14.7697 27.8871 15.3222 27.807 15.8711C27.7673 16.2116 27.682 16.6429 27.4837 16.8623C27.4008 16.9551 27.228 16.8926 27.2532 17.0869C27.213 17.0595 27.1723 17.0324 27.1321 17.0049C27.1078 17.137 27.1445 17.2689 27.0648 17.3789C26.9979 17.4734 26.8025 17.6848 26.723 17.7334C26.6822 17.7595 26.6323 17.6825 26.6009 17.7119C26.5482 17.7642 26.5155 17.9635 26.4407 18.0293C26.3725 18.0893 26.1934 18.1056 26.1527 18.1592C26.0229 18.3331 25.9369 18.5737 25.7991 18.6953C25.7801 18.7122 25.7598 18.7276 25.7386 18.7412C25.6828 18.7765 25.5419 18.7494 25.5267 18.7646C25.5016 18.7973 25.5697 18.8895 25.5609 18.9189C25.5117 19.066 25.2671 19.1117 25.1702 19.1992C24.8538 19.485 24.6083 19.829 24.3851 20.1162C24.2491 20.2855 24.0996 20.5864 23.9515 20.7686C23.9389 20.7845 23.9261 20.8006 23.9134 20.8145C23.8753 20.8554 23.7653 20.7936 23.7474 20.834C23.7283 20.8794 23.7964 20.9361 23.7952 20.96C23.7771 21.1259 23.75 21.4559 23.6351 21.5557C23.6125 21.5748 23.5144 21.5676 23.5091 21.582C23.5071 21.5895 23.5671 21.6232 23.5687 21.6475C23.5792 21.8607 23.5203 21.9859 23.4925 22.1533C23.4699 22.3008 23.5065 22.4293 23.5618 22.5391C23.6615 22.6085 23.7573 22.6808 23.8421 22.7617C23.9306 22.8461 23.8763 23.0504 23.89 23.0596C23.9218 23.0779 24.0204 22.9894 24.0989 23.0107C24.3613 23.083 24.5228 23.4061 24.7357 23.5098C24.8417 23.5612 25.0682 23.5432 25.1722 23.5889C25.2567 23.6271 25.3547 23.8049 25.4271 23.7715C25.4721 23.7524 25.5728 23.6535 25.6019 23.6553C25.6273 23.6573 25.5936 23.7382 25.6058 23.7559C25.6211 23.7762 25.6296 23.7946 25.6331 23.8105L25.5423 23.7432C25.5511 23.7805 25.5594 23.8296 25.6175 23.8926C25.7243 23.9772 26.475 24.4625 26.0013 24.8584C25.9971 24.8622 25.992 24.8663 25.9876 24.8701C25.9029 24.9435 25.7785 24.9903 25.6829 25.0742C25.5878 25.1583 25.0019 25.7259 24.9446 25.7402C24.8739 25.7531 24.9032 25.5109 24.8607 25.4951C24.8369 25.4875 24.772 25.5335 24.7366 25.5273C24.6271 25.5059 24.5901 25.4364 24.3831 25.4873C24.3704 25.4764 24.3282 25.4494 24.3167 25.4375C24.3013 25.4401 24.2844 25.4443 24.2669 25.4482C24.2864 25.3261 24.3152 25.2089 24.347 25.0947C24.2629 25.0866 24.2853 24.9166 24.2523 24.8965C24.2246 24.88 24.1543 24.9301 24.1273 24.9111C24.0976 24.8902 24.1178 24.7847 24.0609 24.751C23.9675 24.6956 23.8059 24.8454 23.7405 24.8242C23.6737 24.8024 23.6789 24.6464 23.5667 24.6504C23.5433 24.6617 23.5198 24.6732 23.4964 24.6846C23.4657 24.7303 23.4345 24.7767 23.4036 24.8223C23.3567 24.8148 23.4174 24.7192 23.3909 24.6934C23.3591 24.6636 23.2738 24.7292 23.2523 24.71C23.2354 24.6933 23.2662 24.6089 23.2396 24.5928C23.201 24.5699 23.1292 24.6693 23.096 24.6729C23.0825 24.6727 22.9061 24.6163 22.8978 24.6113C22.8389 24.5694 22.9372 24.4341 22.9007 24.3857C22.7954 24.2523 22.5797 24.2621 22.431 24.2217C22.3716 24.2055 22.3248 24.1666 22.2874 24.1172C22.2051 24.047 21.9883 23.8611 21.9427 23.7637C21.9375 23.7508 21.9316 23.7376 21.9271 23.7246C21.9721 23.7196 22.0141 23.7098 22.0511 23.6963C22.0921 23.7831 22.2845 23.9484 22.3577 24.0107C22.4107 23.9475 22.4507 23.8839 22.4769 23.8301C22.4187 23.7805 22.2658 23.6497 22.2337 23.5811C22.3836 23.4355 22.3312 23.2914 21.9681 23.6123C21.9855 23.4494 21.7814 23.4425 21.7581 23.3047C21.7451 23.2168 21.8123 23.1309 21.7767 23.0215C21.7127 22.8346 21.4174 22.6378 21.889 22.5273C21.7791 22.3167 21.9577 22.1449 21.5364 22.0527C21.5133 21.9911 21.774 21.8686 21.8148 21.8184C21.8486 21.7598 22.0292 21.3918 22.053 21.3389C22.0732 21.2798 22.1059 21.1791 22.0843 21.1201C22.0557 21.0487 21.6512 20.8689 22.1761 20.917C22.1768 20.7816 22.2066 20.7413 22.303 20.6523C22.3214 20.6371 22.3925 20.6607 22.3968 20.6494C22.4048 20.6257 22.3683 20.5654 22.3782 20.5215C22.3957 20.4494 22.5585 20.4714 22.3284 20.3867C22.3086 20.3262 22.2898 20.2649 22.2708 20.2041C22.321 20.2068 22.3712 20.2106 22.4212 20.2139C22.3837 20.1703 22.3462 20.1258 22.3089 20.082C22.4166 20.1398 22.4733 20.1487 22.4925 20.1348C22.5299 20.1048 22.4344 19.9858 22.2952 19.9688C22.4044 19.905 22.5152 19.8445 22.6263 19.7891C22.9782 19.9855 22.7677 19.6224 22.5696 19.5283C22.5757 19.5183 22.5822 19.5081 22.5882 19.498C22.7318 19.462 22.705 19.3357 22.8333 19.2695C22.9608 19.2057 22.9881 19.2379 23.1614 19.3125C23.1682 19.284 23.1757 19.2551 23.1829 19.2266C22.8569 18.8081 23.5483 19.3512 23.388 18.9229C23.6862 19.062 23.6731 18.8164 23.6859 18.6572C23.6865 18.6387 23.641 18.5966 23.64 18.5693C23.639 18.5029 23.7779 18.4673 23.6292 18.334C23.7007 18.3425 23.7726 18.352 23.8431 18.3623C23.8404 18.3126 23.8376 18.2626 23.8353 18.2129C23.7904 18.1693 23.7453 18.1256 23.7005 18.082C23.9019 18.181 23.9191 18.0477 23.9925 18.0469C24.0074 18.0471 24.0701 18.1075 24.1097 18.1016C24.1556 18.0948 24.1883 18.028 24.2386 18.0166C24.1847 17.9358 24.1309 17.8537 24.0775 17.7725C24.1012 17.6803 24.2946 17.8432 24.3421 17.8252C24.3521 17.8196 24.448 17.7059 24.4515 17.6953C24.4711 17.6182 24.3124 17.4727 24.4866 17.375C24.5128 17.3613 24.5665 17.3831 24.598 17.3799C24.6043 17.379 24.6102 17.3773 24.6146 17.374C24.6621 17.3361 24.6834 17.0941 24.5921 16.9678C24.7735 17.0687 24.8588 16.892 24.9339 16.9023C24.9575 16.9067 25.0405 16.9974 25.0931 16.9873C25.1361 16.9782 25.1457 16.8402 25.1917 16.8223C25.2414 16.8036 25.3234 16.8704 25.345 16.8613C25.3638 16.8513 25.3243 16.777 25.345 16.7588C25.4124 16.7036 25.562 16.751 25.6136 16.7061C25.6879 16.6405 25.5741 16.4029 25.5433 16.2754C25.5674 16.2742 25.6181 16.2984 25.6312 16.2852C25.7958 16.1223 25.9626 15.9703 26.0696 15.8496C26.1237 15.8094 26.4846 15.6857 25.9183 15.6504C25.8245 15.6348 26.0519 15.5526 26.0452 15.5078C26.042 15.4817 25.9411 15.4861 25.9329 15.4697C25.9133 15.4207 25.9463 15.35 25.8597 15.2979C25.8539 15.2999 25.8457 15.302 25.8363 15.3047C25.8118 15.3106 25.7107 15.3723 25.7064 15.3672C25.7052 15.358 25.7835 15.2737 25.7738 15.252C25.7534 15.2032 25.6245 15.1354 25.5726 15.0664C25.5643 15.0529 25.6252 14.9714 25.6282 14.9326C25.6387 14.7796 25.544 14.7192 25.3577 14.9863C25.3763 14.7658 25.1745 14.8223 25.0687 14.7529C24.8445 14.6086 24.476 14.2081 24.18 14.0977C23.993 14.0295 23.883 14.131 23.7923 13.832C23.7732 13.7657 23.7629 13.6926 23.7425 13.6113C23.6922 13.4156 23.834 13.1422 23.4847 13.1895C23.453 12.9708 23.3256 12.839 23.5247 12.5947C23.4566 12.6042 23.3882 12.6132 23.3196 12.6211C23.3088 12.5983 23.2978 12.575 23.2874 12.5518C23.3441 12.5222 23.4013 12.4926 23.4583 12.4639C23.4152 12.3009 23.1057 12.1512 23.0775 11.9912C23.0579 11.8855 23.048 11.7055 23.0628 11.5186C23.0865 11.3113 23.1324 11.0939 23.179 10.9805C23.221 10.8801 23.0856 10.8783 23.3636 10.8145C23.3439 10.7927 23.3236 10.7707 23.304 10.749C23.2428 10.7361 23.1816 10.7232 23.1204 10.71C23.1167 10.5805 23.2128 10.4256 23.2152 10.3037C23.2175 10.0822 23.0721 9.71866 23.2113 9.49512C23.2462 9.43999 23.3813 9.38192 23.388 9.32617C23.3974 9.24274 23.1939 9.19087 23.2093 9.08008C23.2348 8.88871 23.5559 8.59641 23.5921 8.42676C23.6024 8.37441 23.5366 8.32672 23.5404 8.28906C23.5558 8.13002 23.6069 8.01343 23.5452 7.84277ZM21.8509 22.877C22.0735 22.8448 21.8437 22.6619 21.7415 22.7686C21.7182 22.7945 21.7921 22.8862 21.8509 22.877ZM26.0111 16.2773C26.0475 16.2939 26.0846 16.3103 26.1214 16.3262C26.1258 16.3187 26.1308 16.3103 26.1351 16.3027C26.0825 16.265 26.0293 16.2273 25.9769 16.1895C25.9888 16.2182 26.0002 16.2477 26.0111 16.2773Z" fill="#8B5937"/>
<path fill-rule="evenodd" clip-rule="evenodd" d="M36.9613 0C37.1866 0.0452746 37.1797 0.190588 37.1917 0.441406C37.4356 0.626968 37.6811 0.811673 37.9271 0.994141C37.9036 1.0684 37.8806 1.14407 37.8577 1.21875C37.8982 1.35685 38.0542 1.24056 38.1302 1.24512C38.6698 1.28725 39.2001 1.79367 39.6956 2.29395C39.9968 2.57715 40.1545 2.91902 40.2396 3.1709C40.3348 3.37702 40.5208 4.00195 40.3929 4.125C40.3631 4.15809 40.2518 4.16951 40.2464 4.20117C40.3176 4.48919 40.3576 4.77834 40.3812 5.06348C40.1204 5.59466 40.1091 6.15567 39.9603 6.67969C39.9104 6.85425 39.858 7.02732 39.803 7.19824C39.5724 7.78222 39.1935 7.99026 38.9339 8.16895C38.6606 8.34003 38.4162 8.45834 38.2161 8.57031C37.8695 8.78923 37.7788 8.98868 37.7386 9.46973C37.7276 9.65048 37.8397 9.88982 37.8304 10.1006C37.826 10.1884 37.6594 10.27 37.8206 10.3506C37.7742 10.3646 37.7274 10.3785 37.681 10.3926C37.7664 10.4799 37.8919 10.5116 37.9398 10.6191C37.9788 10.7107 38.0812 10.9562 38.1009 11.0459C38.1101 11.0921 38.0205 11.1123 38.0384 11.1523C38.0702 11.2215 38.2516 11.3139 38.2982 11.4053C38.3386 11.4871 38.3214 11.6759 38.3714 11.7324C38.5451 11.93 38.8329 12.0868 38.9251 12.2578C38.938 12.2839 38.9263 12.3361 38.9095 12.3672C38.923 12.4133 38.9327 12.4497 38.9437 12.459C38.996 12.5023 39.0946 12.4403 39.138 12.4658C39.3648 12.5977 39.486 13.0029 39.5882 13.2119C39.9504 13.9096 40.1061 14.6385 40.1624 15.2305C40.1727 15.3421 40.1864 15.4731 40.2005 15.6084C40.2944 16.3881 39.7907 16.9775 39.5589 17.1367C39.4801 17.1941 39.4069 17.0896 39.3548 17.1416C39.2976 17.1991 39.3249 17.2897 39.303 17.3203C39.2517 17.3913 39.1777 17.4847 39.1038 17.5723C38.9072 17.7917 38.6554 17.9798 38.4925 18.0137C38.4453 18.0237 38.3671 17.9574 38.3441 17.9697C38.3328 17.9765 38.3407 18.0498 38.3089 18.0771C38.0216 18.3145 37.7758 18.3925 37.4808 18.5176C36.9784 18.7253 36.4996 19.101 36.3118 19.3076L36.3519 19.2393C36.2822 19.2965 36.1358 19.3256 36.1341 19.3398C36.1309 19.3755 36.2543 19.4231 36.2747 19.4971C36.3402 19.7391 36.1841 20.0686 36.2552 20.3164C36.2893 20.4376 36.4637 20.5938 36.5101 20.7051C36.5191 20.7274 36.5223 20.7582 36.5247 20.792C36.5279 20.7912 36.5326 20.7913 36.5364 20.79L36.6546 20.7373C36.6473 20.7631 36.6259 20.8359 36.6741 20.9463C36.749 21.1061 37.2968 21.6074 36.8177 21.959C36.8132 21.9624 36.8087 21.9664 36.804 21.9697C36.7131 22.0351 36.5812 22.0648 36.4759 22.1357C36.3706 22.207 35.7235 22.7084 35.6429 22.6836C35.5339 22.6405 35.539 22.3164 35.4935 22.2764C35.4629 22.2499 35.3748 22.2613 35.3304 22.2295C35.1862 22.1224 35.1702 22.0273 34.8763 21.958C34.9122 21.821 34.9538 21.6816 35.0091 21.5527C34.9397 21.4925 34.951 21.3603 34.9622 21.2754C34.9581 21.2558 34.9413 21.1988 34.9407 21.1787C34.9525 21.1515 34.9613 21.128 34.9573 21.1133C34.946 21.0732 34.8599 21.0576 34.8509 21.0146C34.841 20.9658 34.924 20.8812 34.9036 20.7939C34.8707 20.6508 34.6509 20.6359 34.6185 20.5459C34.5853 20.4517 34.7005 20.3035 34.6243 20.1826C34.6003 20.1673 34.576 20.1514 34.5521 20.1357C34.4975 20.1462 34.4426 20.1571 34.388 20.168C34.3631 20.1043 34.4753 20.078 34.4788 20.0205C34.4827 19.9533 34.3787 19.9137 34.3812 19.8672C34.3836 19.8285 34.4714 19.7823 34.47 19.7324C34.4679 19.6601 34.3444 19.6648 34.3245 19.623C34.3147 19.6045 34.2819 19.3015 34.2855 19.2803C34.3005 19.1463 34.469 19.1617 34.5032 19.0605C34.5746 18.8527 34.5659 18.6154 34.6195 18.3379C34.6503 18.2808 34.7342 18.117 34.7796 18.0703C34.8267 17.9786 34.8774 17.8924 34.932 17.8174C35.0223 17.6929 35.1442 17.6007 35.2659 17.5391C35.3832 17.996 35.9163 18.005 35.3851 17.5625C35.5543 17.5544 35.5288 17.3527 35.6527 17.3086C35.7317 17.282 35.8276 17.3325 35.9193 17.2754C36.0799 17.1742 36.1315 16.8465 36.4007 17.248C36.5432 17.0771 36.7727 17.156 36.6419 16.7461C36.6753 16.7009 36.9014 16.8689 36.9652 16.875C37.029 16.8801 37.4154 16.8027 37.4691 16.7773C37.5246 16.7531 37.6172 16.7056 37.638 16.6484C37.6671 16.5739 37.4524 16.1927 37.8255 16.5596C37.898 16.457 37.9357 16.4457 38.053 16.4248C38.0714 16.4228 38.1119 16.4628 38.1282 16.4697C38.131 16.4704 38.1337 16.47 38.1351 16.4688C38.1565 16.4486 38.1563 16.3744 38.1878 16.3369C38.2398 16.2756 38.3803 16.363 38.2073 16.1895C38.2151 16.1261 38.2192 16.0643 38.2191 16.0059C38.263 16.0287 38.3074 16.0514 38.3519 16.0732C38.3299 16.0215 38.306 15.9709 38.2796 15.9229C38.5325 16.1745 38.4616 15.9311 38.2728 15.8398C38.3634 15.8436 38.4471 15.8505 38.5267 15.8525C38.868 16.0017 38.6404 15.8209 38.4241 15.792C38.4198 15.7487 38.4187 15.7033 38.4398 15.6504C38.4956 15.511 38.5367 15.5191 38.7161 15.4561C38.7017 15.4265 38.6867 15.3974 38.6722 15.3682C38.1463 15.2797 39.0247 15.181 38.596 14.9746C38.8971 14.837 38.691 14.6524 38.5638 14.5518C38.5491 14.5397 38.489 14.5541 38.4652 14.54C38.4092 14.5051 38.4495 14.3665 38.2601 14.4316C38.3033 14.3766 38.3457 14.3199 38.3861 14.2617C38.3404 14.243 38.2939 14.226 38.2484 14.2109C38.1908 14.2348 38.1331 14.2593 38.0755 14.2832C38.2498 14.1464 38.1331 14.0892 38.1566 14.0264C38.1617 14.0131 38.2363 13.9708 38.2425 13.9326C38.2494 13.8872 38.1927 13.8422 38.1917 13.792C38.1026 13.83 38.0138 13.8699 37.9271 13.9121C37.8489 13.8887 38.0354 13.7191 38.0228 13.6709C38.0192 13.6601 37.9147 13.5657 37.9027 13.5625C37.8502 13.5501 37.7657 13.6245 37.6898 13.6211C37.6373 13.6012 37.5681 13.5451 37.5179 13.4648C37.4855 13.4141 37.5158 13.3325 37.4896 13.2939C37.4372 13.2217 37.1621 13.1263 37.0218 13.1953C37.123 13 36.9237 12.8323 36.9339 12.7373C36.9377 12.7093 37.0404 12.639 37.0306 12.5693C37.0217 12.5131 36.8669 12.4374 36.8489 12.3691C36.8304 12.2959 36.9099 12.2229 36.9027 12.1914C36.895 12.1616 36.8075 12.1741 36.7884 12.1367C36.7312 12.0156 36.8043 11.8523 36.765 11.7578C36.7089 11.6228 36.4289 11.5968 36.2777 11.5137C36.2811 11.4775 36.319 11.4283 36.3079 11.3965C36.1694 11.0027 36.0824 10.5229 36.0775 10.0762C36.0638 9.86139 36.4 9.34608 35.8372 9.47852C35.7266 9.39579 36.0179 8.81128 36.0657 8.70605C36.0979 8.59382 36.0307 8.47109 36.0648 8.37598C36.173 8.09219 36.3318 7.93721 36.5042 7.58984C36.5492 7.50048 36.5412 7.33686 36.5863 7.2959C36.6414 7.24699 36.7762 7.28037 36.8499 7.23047C36.984 7.13618 37.1982 6.9733 37.3792 6.88574C37.4175 6.86671 37.4522 6.85119 37.4818 6.8418C37.5063 6.83535 37.5588 6.92181 37.6038 6.93555C37.7807 6.98882 37.8986 6.91931 37.7337 6.6377C37.9518 6.73634 37.9881 6.52783 38.0501 6.47461C38.0683 6.46279 38.0826 6.44798 38.0941 6.4375C38.1477 6.27598 38.1815 6.12053 38.1624 6.00098C38.1323 5.81616 37.9928 5.77891 38.181 5.58887C38.2224 5.5466 38.2729 5.50635 38.3216 5.4541C38.4359 5.33403 38.7306 5.25659 38.4368 5.0791C38.5528 4.93919 38.5147 4.81159 38.806 4.73535C38.7419 4.71241 38.677 4.68955 38.6126 4.66797C38.6133 4.64956 38.6141 4.63132 38.6146 4.61328C38.6782 4.61495 38.7423 4.61615 38.806 4.61719C38.839 4.47865 38.585 4.30495 38.5843 4.21875C38.5931 4.04417 38.6247 3.76509 38.6614 3.69238C38.6782 3.63826 38.5809 3.73373 38.7718 3.52832C38.7511 3.53453 38.7304 3.54215 38.7113 3.55078C38.6662 3.59222 38.6226 3.63564 38.5814 3.68066C38.5806 3.68008 38.5792 3.6795 38.5784 3.67871C38.4895 3.5987 38.4053 3.42652 38.2991 3.34668C38.0912 3.19116 37.6726 3.08546 37.5286 2.83594C37.4932 2.77373 37.5026 2.6218 37.4505 2.58301C37.3739 2.52777 37.2273 2.6779 37.1302 2.6084C36.9607 2.48566 36.8055 2.05635 36.64 1.94824C36.5914 1.91679 36.5209 1.95969 36.4837 1.94141C36.3299 1.86499 36.2234 1.77267 36.0228 1.76562C36.0125 1.49949 36.1877 1.30722 36.3099 1.06934C36.4024 0.890106 36.5935 0.456658 36.6888 0.310547C36.7558 0.208343 36.8905 0.114868 36.9613 0ZM36.1361 17.1816C36.106 17.1671 36.0481 17.2597 36.0726 17.3135C36.166 17.5193 36.2668 17.2481 36.1361 17.1816ZM36.3294 10.8105C36.3634 10.832 36.3978 10.8535 36.432 10.874C36.4644 10.8471 36.4978 10.8203 36.5306 10.7939C36.5254 10.7802 36.52 10.7658 36.515 10.752C36.4533 10.7714 36.391 10.791 36.3294 10.8105Z" fill="#8B5937"/>
<path fill-rule="evenodd" clip-rule="evenodd" d="M52.0452 6.08594C52.1708 6.155 52.0682 6.22088 51.9173 6.36816C51.9779 6.53231 52.054 6.70216 52.14 6.87109C52.0809 6.91719 52.0216 6.96442 51.9632 7.01172L51.9564 7.04395C51.963 7.10438 52.1102 7.06569 52.1595 7.08008C52.5645 7.20129 52.7154 7.68351 52.8821 8.08594C52.9914 8.29625 53.0523 8.5075 53.0921 8.67969C53.1455 8.82808 53.2848 9.33594 53.1468 9.42773C53.1139 9.45149 53.0027 9.45095 52.9954 9.47559C53.0284 9.636 53.0439 9.80053 53.0452 9.96582C53.0423 10.053 53.0331 10.1402 53.0189 10.2266C52.6393 10.658 52.4099 11.0419 52.1009 11.3271C51.5848 11.7834 51.0899 12.1128 50.6927 12.4404C50.4765 12.6189 50.3024 12.7989 50.1614 12.9854C50.0864 13.0837 50.0934 13.25 50.0013 13.3359C49.9626 13.3711 49.784 13.3342 49.89 13.4424C49.8435 13.4282 49.7968 13.4135 49.7503 13.3994C49.787 13.4789 49.8831 13.5456 49.8782 13.6143C49.8728 13.672 49.8528 13.8272 49.8284 13.8799C49.8152 13.9063 49.727 13.8851 49.7239 13.9121C49.7196 13.9602 49.8355 14.0711 49.8323 14.1357C49.8285 14.194 49.7218 14.2945 49.7366 14.3438C49.7387 14.3505 49.7411 14.3574 49.7435 14.3643C49.8053 14.395 49.9405 14.3722 49.9515 14.4795C49.9537 14.5092 49.8787 14.6105 49.888 14.6211C49.9076 14.6369 50.006 14.5816 50.0277 14.5859C50.1314 14.609 50.1147 14.8117 50.181 14.9004C50.3892 15.1828 50.7331 15.473 50.9984 15.8682C51.1184 16.0457 51.3155 16.329 51.4173 16.627C51.4728 16.7758 51.5 16.9224 51.5003 17.04C51.4992 17.1311 51.371 17.1296 51.3812 17.1973C51.3914 17.2718 51.4783 17.3063 51.4876 17.3428C51.5668 17.597 51.5487 18.1302 51.3988 18.2744C51.3713 18.3037 51.2698 18.2953 51.263 18.3145C51.2599 18.3243 51.3151 18.3701 51.3099 18.4033C51.2754 18.6212 51.1952 18.7632 51.1058 18.9033C51.0593 18.9828 51.0064 19.0583 50.9486 19.1318C50.5035 19.6757 50.0695 20.0281 49.7181 20.2129C49.6415 20.2496 49.4816 20.1294 49.472 20.1377C49.4551 20.1567 49.5224 20.269 49.5091 20.3223C49.4625 20.4949 49.2823 20.5071 49.3294 20.5654C49.339 20.5762 49.3717 20.5932 49.4105 20.6035C49.4079 20.6202 49.3872 20.6662 49.3831 20.6826C49.3824 20.8398 49.3767 20.9809 49.3548 21.0596C49.3407 21.1017 49.3168 21.1366 49.2952 21.166C49.281 21.1157 49.2698 21.0202 49.2073 21.0029C49.1368 20.9817 49.0535 21.0797 48.8323 21.2715C48.828 21.2752 48.8232 21.2795 48.8187 21.2832C48.7328 21.3555 48.6229 21.4148 48.5189 21.4873C48.4139 21.5598 47.77 22.0699 47.6741 22.0137C47.5312 21.9313 47.5811 21.5032 47.5706 21.4355C47.5529 21.3853 47.468 21.3279 47.4495 21.2529C47.3968 21.0064 47.4704 20.904 47.3392 20.6396C47.3666 20.629 47.3948 20.6191 47.4222 20.6104C47.5228 20.5786 47.6229 20.5597 47.72 20.5508C47.7132 20.45 47.8904 20.4253 47.9027 20.3916C47.9135 20.3618 47.8525 20.3023 47.8646 20.2754C47.8777 20.2454 47.9794 20.2544 47.9886 20.2119C48.0012 20.1462 47.8137 20.0533 47.7777 20.041L47.7532 20.1113C47.753 20.1079 47.7531 20.1041 47.7532 20.1006C47.7587 19.9799 47.9323 19.8758 47.93 19.7295C47.9173 19.7033 47.9056 19.6763 47.8939 19.6494C47.8412 19.6309 47.7873 19.6132 47.7337 19.5967C47.75 19.52 47.8616 19.5541 47.8978 19.5059C47.9401 19.4492 47.8791 19.356 47.9095 19.3184C47.9355 19.2882 48.0321 19.3037 48.0589 19.2666C48.0989 19.2119 48.0002 19.1386 48.0091 19.0957C48.0138 19.0736 48.1535 18.8498 48.1644 18.8408C48.241 18.7685 48.3549 18.8941 48.4222 18.8594C48.6064 18.7644 48.6784 18.5494 48.7728 18.4209C48.8147 18.3638 48.8751 18.3343 48.9388 18.3223C49.1085 18.7308 49.4768 18.8816 49.0208 18.377C49.1294 18.4173 49.058 18.2446 49.1175 18.2373C49.1562 18.2332 49.2324 18.2925 49.2659 18.2627C49.3302 18.2035 49.1787 17.979 49.5335 18.3037C49.5212 18.1965 49.6914 18.2534 49.3382 18.0176C49.3242 18.0079 49.433 18.0738 49.5111 18.1064C49.5457 18.1082 49.5745 18.1076 49.5872 18.1035C49.6327 18.0879 49.8331 17.9251 49.8499 17.8945C49.8692 17.8637 49.8956 17.8088 49.8685 17.7715C49.8356 17.7189 49.4183 17.5899 49.928 17.6699C49.9024 17.5985 49.9193 17.5862 49.9847 17.542C49.9964 17.5341 50.0725 17.54 50.0736 17.5342C50.0746 17.5218 50.0195 17.4984 50.013 17.4805C50.003 17.4525 50.1612 17.4283 49.9163 17.4424C49.8747 17.4291 49.8322 17.4207 49.7904 17.418C49.8367 17.4081 49.8833 17.3969 49.929 17.3838C49.877 17.3862 49.8247 17.3917 49.7738 17.4004C50.1216 17.3236 49.9043 17.3263 49.7152 17.4062C49.7504 17.3904 49.7844 17.3706 49.8157 17.3467C49.8382 17.3113 49.8597 17.2733 49.8792 17.2344C50.2438 17.0594 49.8585 17.0972 49.6761 17.2227C49.6734 17.2173 49.6701 17.2115 49.6673 17.2061C49.7313 17.104 49.6295 17.1056 49.6478 17.0049C49.6643 16.9025 49.6992 16.8845 49.8353 16.7559C49.8153 16.7464 49.7949 16.7368 49.7747 16.7275C49.3091 16.9558 50.0178 16.4302 49.596 16.5293C49.806 16.2802 49.578 16.271 49.4388 16.2588C49.4224 16.2578 49.3756 16.2968 49.3509 16.2979C49.2916 16.2989 49.2857 16.1725 49.137 16.3057C49.1581 16.2416 49.1786 16.1766 49.1995 16.1123C49.1533 16.1144 49.1065 16.1167 49.0599 16.1182C49.0125 16.1589 48.9647 16.1995 48.9173 16.2402C49.0405 16.0569 48.9182 16.0375 48.9261 15.9678C48.928 15.9539 48.9928 15.8969 48.9925 15.8594C48.9924 15.8153 48.9318 15.7811 48.9271 15.7314C48.842 15.7774 48.7562 15.8226 48.6702 15.8672C48.5809 15.835 48.7647 15.6601 48.7542 15.6123C48.7492 15.6017 48.6481 15.4862 48.639 15.4805C48.565 15.4437 48.392 15.5825 48.3167 15.3525C48.3042 15.3111 48.354 15.2457 48.3402 15.21C48.3146 15.1528 48.0768 15.0037 47.9222 15.0225C48.0719 14.8678 47.9406 14.6087 47.9945 14.5098C48.0103 14.4823 48.1328 14.4678 48.1575 14.3936C48.1605 14.3846 48.1608 14.3738 48.1595 14.3613C48.1517 14.3153 48.0836 14.2351 48.0989 14.1924C48.1191 14.1403 48.2231 14.1255 48.2318 14.1025C48.2391 14.081 48.1572 14.0566 48.1585 14.0264C48.167 13.9299 48.31 13.8547 48.3206 13.7812C48.336 13.6756 48.1025 13.5438 48.0111 13.4238C48.0313 13.4021 48.088 13.3873 48.0941 13.3623C48.1614 13.0483 48.3237 12.696 48.5228 12.4248C48.6138 12.2864 49.098 12.1709 48.5755 11.9365C48.5242 11.8262 48.9542 11.6442 49.0062 11.6016C49.0574 11.5499 49.0254 11.4386 49.0657 11.3955C49.1886 11.2675 49.3251 11.2423 49.43 11.0449C49.4574 10.9936 49.4298 10.8638 49.4564 10.8447C49.4697 10.8357 49.4954 10.8424 49.5238 10.8516C49.5617 10.8658 49.6056 10.8845 49.6292 10.873C49.7249 10.8238 49.8609 10.6846 49.9515 10.6484C49.9681 10.6421 50.0295 10.7227 50.0677 10.7363C50.2164 10.787 50.2979 10.7215 50.1048 10.459C50.3061 10.5476 50.3056 10.3475 50.388 10.2812C50.5659 10.1423 50.9176 9.99269 50.9417 9.79395C50.9575 9.66938 50.8611 9.5622 51.0228 9.58301C51.0581 9.58764 51.1006 9.59892 51.1419 9.60352C51.2346 9.62065 51.4906 9.72982 51.2396 9.52051C51.3333 9.52963 51.2819 9.50126 51.5511 9.57422C51.4899 9.54793 51.428 9.5227 51.3655 9.5C51.3647 9.49731 51.3636 9.49459 51.3626 9.49219C51.4047 9.50399 51.4473 9.51626 51.4896 9.52734C51.5086 9.53186 51.5281 9.53562 51.5472 9.54004C51.5822 9.47481 51.3376 9.36128 51.3392 9.33594C51.3492 9.27695 51.4372 9.18038 51.4915 9.10059C51.5203 9.05671 51.4049 9.12882 51.6341 8.96777C51.6134 8.97121 51.5927 8.9756 51.5726 8.98047C51.5152 9.00493 51.4573 9.02863 51.3997 9.05273C51.334 8.95989 51.3395 8.79596 51.2816 8.70605C51.1752 8.5439 50.8772 8.37188 50.8773 8.14062C50.8774 8.08285 50.9585 7.96815 50.9349 7.92578C50.9001 7.8643 50.706 7.94471 50.6605 7.86328C50.5809 7.72135 50.6781 7.34833 50.6058 7.21484C50.5837 7.17529 50.503 7.18317 50.4837 7.15625C50.402 7.04258 50.3709 6.93599 50.2152 6.83887C50.3648 6.63721 50.6213 6.5829 50.8636 6.47656C51.0457 6.39375 51.4723 6.20915 51.6409 6.16602C51.7583 6.13419 51.9165 6.12332 52.0452 6.08594ZM49.3519 18.2227C49.3295 18.2082 49.337 18.2701 49.3724 18.3164C49.5142 18.4935 49.4601 18.2889 49.3519 18.2227ZM48.4515 13.0898C48.4921 13.0887 48.533 13.0873 48.5736 13.0869C48.5756 13.0763 48.5782 13.0653 48.5804 13.0547C48.5182 13.0369 48.4551 13.0195 48.3929 13.002C48.4118 13.0317 48.4318 13.0611 48.4515 13.0898Z" fill="#8B5937"/>
<path d="M49.3001 21.1826C49.326 21.2381 49.369 21.2743 49.3792 21.3193C49.3805 21.3237 49.3816 21.3282 49.3821 21.332C49.3845 21.3408 49.4569 21.3823 49.4417 21.3779C49.423 21.3714 49.299 21.3056 49.263 21.2803C49.2192 21.2589 49.2539 21.2225 49.2952 21.166C49.297 21.1722 49.2982 21.178 49.3001 21.1826Z" fill="#8B5937"/>
<path d="M38.4241 15.792C38.4249 15.7997 38.4252 15.8078 38.4261 15.8154C38.4257 15.8112 38.4254 15.8085 38.3675 15.793C38.3674 15.791 38.3675 15.7888 38.3675 15.7871C38.3859 15.787 38.4052 15.7895 38.4241 15.792Z" fill="#8B5937"/>
</svg>
